<?xml version="1.0" encoding="utf-8" standalone="no"?>
<!DOCTYPE svg PUBLIC "-//W3C//DTD SVG 1.1//EN"
  "http://www.w3.org/Graphics/SVG/1.1/DTD/svg11.dtd">
<svg xmlns:xlink="http://www.w3.org/1999/xlink" width="496.740625pt" height="387.456312pt" viewBox="0 0 496.740625 387.456312" xmlns="http://www.w3.org/2000/svg" version="1.1">
 <metadata>
  <rdf:RDF xmlns:dc="http://purl.org/dc/elements/1.1/" xmlns:cc="http://creativecommons.org/ns#" xmlns:rdf="http://www.w3.org/1999/02/22-rdf-syntax-ns#">
   <cc:Work>
    <dc:type rdf:resource="http://purl.org/dc/dcmitype/StillImage"/>
    <dc:date>2026-06-25T01:01:41.011207</dc:date>
    <dc:format>image/svg+xml</dc:format>
    <dc:creator>
     <cc:Agent>
      <dc:title>Matplotlib v3.10.6, https://matplotlib.org/</dc:title>
     </cc:Agent>
    </dc:creator>
   </cc:Work>
  </rdf:RDF>
 </metadata>
 <defs>
  <style type="text/css">*{stroke-linejoin: round; stroke-linecap: butt}</style>
 </defs>
 <g id="figure_1">
  <g id="patch_1">
   <path d="M 0 387.456312 
L 496.740625 387.456312 
L 496.740625 0 
L 0 0 
z
" style="fill: #ffffff"/>
  </g>
  <g id="axes_1">
   <g id="patch_2">
    <path d="M 44.749063 348.93225 
L 481.589062 348.93225 
L 481.589062 31.99625 
L 44.749063 31.99625 
z
" style="fill: #ffffff"/>
   </g>
   <g id="matplotlib.axis_1">
    <g id="xtick_1">
     <g id="line2d_1">
      <path d="M 44.749063 348.93225 
L 44.749063 31.99625 
" clip-path="url(#pb0fd1c2147)" style="fill: none; stroke: #b0b0b0; stroke-opacity: 0.2; stroke-width: 0.8; stroke-linecap: square"/>
     </g>
     <g id="line2d_2">
      <defs>
       <path id="m2eea644ff1" d="M 0 0 
L 0 3.5 
" style="stroke: #000000; stroke-width: 0.8"/>
      </defs>
      <g>
       <use xlink:href="#m2eea644ff1" x="44.749063" y="348.93225" style="stroke: #000000; stroke-width: 0.8"/>
      </g>
     </g>
     <g id="text_1">
      <!-- 0.3 -->
      <g transform="translate(36.7975 363.530687) scale(0.1 -0.1)">
       <defs>
        <path id="DejaVuSans-30" d="M 2034 4250 
Q 1547 4250 1301 3770 
Q 1056 3291 1056 2328 
Q 1056 1369 1301 889 
Q 1547 409 2034 409 
Q 2525 409 2770 889 
Q 3016 1369 3016 2328 
Q 3016 3291 2770 3770 
Q 2525 4250 2034 4250 
z
M 2034 4750 
Q 2819 4750 3233 4129 
Q 3647 3509 3647 2328 
Q 3647 1150 3233 529 
Q 2819 -91 2034 -91 
Q 1250 -91 836 529 
Q 422 1150 422 2328 
Q 422 3509 836 4129 
Q 1250 4750 2034 4750 
z
" transform="scale(0.015625)"/>
        <path id="DejaVuSans-2e" d="M 684 794 
L 1344 794 
L 1344 0 
L 684 0 
L 684 794 
z
" transform="scale(0.015625)"/>
        <path id="DejaVuSans-33" d="M 2597 2516 
Q 3050 2419 3304 2112 
Q 3559 1806 3559 1356 
Q 3559 666 3084 287 
Q 2609 -91 1734 -91 
Q 1441 -91 1130 -33 
Q 819 25 488 141 
L 488 750 
Q 750 597 1062 519 
Q 1375 441 1716 441 
Q 2309 441 2620 675 
Q 2931 909 2931 1356 
Q 2931 1769 2642 2001 
Q 2353 2234 1838 2234 
L 1294 2234 
L 1294 2753 
L 1863 2753 
Q 2328 2753 2575 2939 
Q 2822 3125 2822 3475 
Q 2822 3834 2567 4026 
Q 2313 4219 1838 4219 
Q 1578 4219 1281 4162 
Q 984 4106 628 3988 
L 628 4550 
Q 988 4650 1302 4700 
Q 1616 4750 1894 4750 
Q 2613 4750 3031 4423 
Q 3450 4097 3450 3541 
Q 3450 3153 3228 2886 
Q 3006 2619 2597 2516 
z
" transform="scale(0.015625)"/>
       </defs>
       <use xlink:href="#DejaVuSans-30"/>
       <use xlink:href="#DejaVuSans-2e" transform="translate(63.623047 0)"/>
       <use xlink:href="#DejaVuSans-33" transform="translate(95.410156 0)"/>
      </g>
     </g>
    </g>
    <g id="xtick_2">
     <g id="line2d_3">
      <path d="M 107.154777 348.93225 
L 107.154777 31.99625 
" clip-path="url(#pb0fd1c2147)" style="fill: none; stroke: #b0b0b0; stroke-opacity: 0.2; stroke-width: 0.8; stroke-linecap: square"/>
     </g>
     <g id="line2d_4">
      <g>
       <use xlink:href="#m2eea644ff1" x="107.154777" y="348.93225" style="stroke: #000000; stroke-width: 0.8"/>
      </g>
     </g>
     <g id="text_2">
      <!-- 0.4 -->
      <g transform="translate(99.203214 363.530687) scale(0.1 -0.1)">
       <defs>
        <path id="DejaVuSans-34" d="M 2419 4116 
L 825 1625 
L 2419 1625 
L 2419 4116 
z
M 2253 4666 
L 3047 4666 
L 3047 1625 
L 3713 1625 
L 3713 1100 
L 3047 1100 
L 3047 0 
L 2419 0 
L 2419 1100 
L 313 1100 
L 313 1709 
L 2253 4666 
z
" transform="scale(0.015625)"/>
       </defs>
       <use xlink:href="#DejaVuSans-30"/>
       <use xlink:href="#DejaVuSans-2e" transform="translate(63.623047 0)"/>
       <use xlink:href="#DejaVuSans-34" transform="translate(95.410156 0)"/>
      </g>
     </g>
    </g>
    <g id="xtick_3">
     <g id="line2d_5">
      <path d="M 169.560491 348.93225 
L 169.560491 31.99625 
" clip-path="url(#pb0fd1c2147)" style="fill: none; stroke: #b0b0b0; stroke-opacity: 0.2; stroke-width: 0.8; stroke-linecap: square"/>
     </g>
     <g id="line2d_6">
      <g>
       <use xlink:href="#m2eea644ff1" x="169.560491" y="348.93225" style="stroke: #000000; stroke-width: 0.8"/>
      </g>
     </g>
     <g id="text_3">
      <!-- 0.5 -->
      <g transform="translate(161.608929 363.530687) scale(0.1 -0.1)">
       <defs>
        <path id="DejaVuSans-35" d="M 691 4666 
L 3169 4666 
L 3169 4134 
L 1269 4134 
L 1269 2991 
Q 1406 3038 1543 3061 
Q 1681 3084 1819 3084 
Q 2600 3084 3056 2656 
Q 3513 2228 3513 1497 
Q 3513 744 3044 326 
Q 2575 -91 1722 -91 
Q 1428 -91 1123 -41 
Q 819 9 494 109 
L 494 744 
Q 775 591 1075 516 
Q 1375 441 1709 441 
Q 2250 441 2565 725 
Q 2881 1009 2881 1497 
Q 2881 1984 2565 2268 
Q 2250 2553 1709 2553 
Q 1456 2553 1204 2497 
Q 953 2441 691 2322 
L 691 4666 
z
" transform="scale(0.015625)"/>
       </defs>
       <use xlink:href="#DejaVuSans-30"/>
       <use xlink:href="#DejaVuSans-2e" transform="translate(63.623047 0)"/>
       <use xlink:href="#DejaVuSans-35" transform="translate(95.410156 0)"/>
      </g>
     </g>
    </g>
    <g id="xtick_4">
     <g id="line2d_7">
      <path d="M 231.966205 348.93225 
L 231.966205 31.99625 
" clip-path="url(#pb0fd1c2147)" style="fill: none; stroke: #b0b0b0; stroke-opacity: 0.2; stroke-width: 0.8; stroke-linecap: square"/>
     </g>
     <g id="line2d_8">
      <g>
       <use xlink:href="#m2eea644ff1" x="231.966205" y="348.93225" style="stroke: #000000; stroke-width: 0.8"/>
      </g>
     </g>
     <g id="text_4">
      <!-- 0.6 -->
      <g transform="translate(224.014643 363.530687) scale(0.1 -0.1)">
       <defs>
        <path id="DejaVuSans-36" d="M 2113 2584 
Q 1688 2584 1439 2293 
Q 1191 2003 1191 1497 
Q 1191 994 1439 701 
Q 1688 409 2113 409 
Q 2538 409 2786 701 
Q 3034 994 3034 1497 
Q 3034 2003 2786 2293 
Q 2538 2584 2113 2584 
z
M 3366 4563 
L 3366 3988 
Q 3128 4100 2886 4159 
Q 2644 4219 2406 4219 
Q 1781 4219 1451 3797 
Q 1122 3375 1075 2522 
Q 1259 2794 1537 2939 
Q 1816 3084 2150 3084 
Q 2853 3084 3261 2657 
Q 3669 2231 3669 1497 
Q 3669 778 3244 343 
Q 2819 -91 2113 -91 
Q 1303 -91 875 529 
Q 447 1150 447 2328 
Q 447 3434 972 4092 
Q 1497 4750 2381 4750 
Q 2619 4750 2861 4703 
Q 3103 4656 3366 4563 
z
" transform="scale(0.015625)"/>
       </defs>
       <use xlink:href="#DejaVuSans-30"/>
       <use xlink:href="#DejaVuSans-2e" transform="translate(63.623047 0)"/>
       <use xlink:href="#DejaVuSans-36" transform="translate(95.410156 0)"/>
      </g>
     </g>
    </g>
    <g id="xtick_5">
     <g id="line2d_9">
      <path d="M 294.37192 348.93225 
L 294.37192 31.99625 
" clip-path="url(#pb0fd1c2147)" style="fill: none; stroke: #b0b0b0; stroke-opacity: 0.2; stroke-width: 0.8; stroke-linecap: square"/>
     </g>
     <g id="line2d_10">
      <g>
       <use xlink:href="#m2eea644ff1" x="294.37192" y="348.93225" style="stroke: #000000; stroke-width: 0.8"/>
      </g>
     </g>
     <g id="text_5">
      <!-- 0.7 -->
      <g transform="translate(286.420357 363.530687) scale(0.1 -0.1)">
       <defs>
        <path id="DejaVuSans-37" d="M 525 4666 
L 3525 4666 
L 3525 4397 
L 1831 0 
L 1172 0 
L 2766 4134 
L 525 4134 
L 525 4666 
z
" transform="scale(0.015625)"/>
       </defs>
       <use xlink:href="#DejaVuSans-30"/>
       <use xlink:href="#DejaVuSans-2e" transform="translate(63.623047 0)"/>
       <use xlink:href="#DejaVuSans-37" transform="translate(95.410156 0)"/>
      </g>
     </g>
    </g>
    <g id="xtick_6">
     <g id="line2d_11">
      <path d="M 356.777634 348.93225 
L 356.777634 31.99625 
" clip-path="url(#pb0fd1c2147)" style="fill: none; stroke: #b0b0b0; stroke-opacity: 0.2; stroke-width: 0.8; stroke-linecap: square"/>
     </g>
     <g id="line2d_12">
      <g>
       <use xlink:href="#m2eea644ff1" x="356.777634" y="348.93225" style="stroke: #000000; stroke-width: 0.8"/>
      </g>
     </g>
     <g id="text_6">
      <!-- 0.8 -->
      <g transform="translate(348.826071 363.530687) scale(0.1 -0.1)">
       <defs>
        <path id="DejaVuSans-38" d="M 2034 2216 
Q 1584 2216 1326 1975 
Q 1069 1734 1069 1313 
Q 1069 891 1326 650 
Q 1584 409 2034 409 
Q 2484 409 2743 651 
Q 3003 894 3003 1313 
Q 3003 1734 2745 1975 
Q 2488 2216 2034 2216 
z
M 1403 2484 
Q 997 2584 770 2862 
Q 544 3141 544 3541 
Q 544 4100 942 4425 
Q 1341 4750 2034 4750 
Q 2731 4750 3128 4425 
Q 3525 4100 3525 3541 
Q 3525 3141 3298 2862 
Q 3072 2584 2669 2484 
Q 3125 2378 3379 2068 
Q 3634 1759 3634 1313 
Q 3634 634 3220 271 
Q 2806 -91 2034 -91 
Q 1263 -91 848 271 
Q 434 634 434 1313 
Q 434 1759 690 2068 
Q 947 2378 1403 2484 
z
M 1172 3481 
Q 1172 3119 1398 2916 
Q 1625 2713 2034 2713 
Q 2441 2713 2670 2916 
Q 2900 3119 2900 3481 
Q 2900 3844 2670 4047 
Q 2441 4250 2034 4250 
Q 1625 4250 1398 4047 
Q 1172 3844 1172 3481 
z
" transform="scale(0.015625)"/>
       </defs>
       <use xlink:href="#DejaVuSans-30"/>
       <use xlink:href="#DejaVuSans-2e" transform="translate(63.623047 0)"/>
       <use xlink:href="#DejaVuSans-38" transform="translate(95.410156 0)"/>
      </g>
     </g>
    </g>
    <g id="xtick_7">
     <g id="line2d_13">
      <path d="M 419.183348 348.93225 
L 419.183348 31.99625 
" clip-path="url(#pb0fd1c2147)" style="fill: none; stroke: #b0b0b0; stroke-opacity: 0.2; stroke-width: 0.8; stroke-linecap: square"/>
     </g>
     <g id="line2d_14">
      <g>
       <use xlink:href="#m2eea644ff1" x="419.183348" y="348.93225" style="stroke: #000000; stroke-width: 0.8"/>
      </g>
     </g>
     <g id="text_7">
      <!-- 0.9 -->
      <g transform="translate(411.231786 363.530687) scale(0.1 -0.1)">
       <defs>
        <path id="DejaVuSans-39" d="M 703 97 
L 703 672 
Q 941 559 1184 500 
Q 1428 441 1663 441 
Q 2288 441 2617 861 
Q 2947 1281 2994 2138 
Q 2813 1869 2534 1725 
Q 2256 1581 1919 1581 
Q 1219 1581 811 2004 
Q 403 2428 403 3163 
Q 403 3881 828 4315 
Q 1253 4750 1959 4750 
Q 2769 4750 3195 4129 
Q 3622 3509 3622 2328 
Q 3622 1225 3098 567 
Q 2575 -91 1691 -91 
Q 1453 -91 1209 -44 
Q 966 3 703 97 
z
M 1959 2075 
Q 2384 2075 2632 2365 
Q 2881 2656 2881 3163 
Q 2881 3666 2632 3958 
Q 2384 4250 1959 4250 
Q 1534 4250 1286 3958 
Q 1038 3666 1038 3163 
Q 1038 2656 1286 2365 
Q 1534 2075 1959 2075 
z
" transform="scale(0.015625)"/>
       </defs>
       <use xlink:href="#DejaVuSans-30"/>
       <use xlink:href="#DejaVuSans-2e" transform="translate(63.623047 0)"/>
       <use xlink:href="#DejaVuSans-39" transform="translate(95.410156 0)"/>
      </g>
     </g>
    </g>
    <g id="xtick_8">
     <g id="line2d_15">
      <path d="M 481.589062 348.93225 
L 481.589062 31.99625 
" clip-path="url(#pb0fd1c2147)" style="fill: none; stroke: #b0b0b0; stroke-opacity: 0.2; stroke-width: 0.8; stroke-linecap: square"/>
     </g>
     <g id="line2d_16">
      <g>
       <use xlink:href="#m2eea644ff1" x="481.589062" y="348.93225" style="stroke: #000000; stroke-width: 0.8"/>
      </g>
     </g>
     <g id="text_8">
      <!-- 1.0 -->
      <g transform="translate(473.6375 363.530687) scale(0.1 -0.1)">
       <defs>
        <path id="DejaVuSans-31" d="M 794 531 
L 1825 531 
L 1825 4091 
L 703 3866 
L 703 4441 
L 1819 4666 
L 2450 4666 
L 2450 531 
L 3481 531 
L 3481 0 
L 794 0 
L 794 531 
z
" transform="scale(0.015625)"/>
       </defs>
       <use xlink:href="#DejaVuSans-31"/>
       <use xlink:href="#DejaVuSans-2e" transform="translate(63.623047 0)"/>
       <use xlink:href="#DejaVuSans-30" transform="translate(95.410156 0)"/>
      </g>
     </g>
    </g>
    <g id="text_9">
     <!-- KG prediction score (RotatE) -->
     <g transform="translate(185.299375 377.968656) scale(0.11 -0.11)">
      <defs>
       <path id="DejaVuSans-4b" d="M 628 4666 
L 1259 4666 
L 1259 2694 
L 3353 4666 
L 4166 4666 
L 1850 2491 
L 4331 0 
L 3500 0 
L 1259 2247 
L 1259 0 
L 628 0 
L 628 4666 
z
" transform="scale(0.015625)"/>
       <path id="DejaVuSans-47" d="M 3809 666 
L 3809 1919 
L 2778 1919 
L 2778 2438 
L 4434 2438 
L 4434 434 
Q 4069 175 3628 42 
Q 3188 -91 2688 -91 
Q 1594 -91 976 548 
Q 359 1188 359 2328 
Q 359 3472 976 4111 
Q 1594 4750 2688 4750 
Q 3144 4750 3555 4637 
Q 3966 4525 4313 4306 
L 4313 3634 
Q 3963 3931 3569 4081 
Q 3175 4231 2741 4231 
Q 1884 4231 1454 3753 
Q 1025 3275 1025 2328 
Q 1025 1384 1454 906 
Q 1884 428 2741 428 
Q 3075 428 3337 486 
Q 3600 544 3809 666 
z
" transform="scale(0.015625)"/>
       <path id="DejaVuSans-20" transform="scale(0.015625)"/>
       <path id="DejaVuSans-70" d="M 1159 525 
L 1159 -1331 
L 581 -1331 
L 581 3500 
L 1159 3500 
L 1159 2969 
Q 1341 3281 1617 3432 
Q 1894 3584 2278 3584 
Q 2916 3584 3314 3078 
Q 3713 2572 3713 1747 
Q 3713 922 3314 415 
Q 2916 -91 2278 -91 
Q 1894 -91 1617 61 
Q 1341 213 1159 525 
z
M 3116 1747 
Q 3116 2381 2855 2742 
Q 2594 3103 2138 3103 
Q 1681 3103 1420 2742 
Q 1159 2381 1159 1747 
Q 1159 1113 1420 752 
Q 1681 391 2138 391 
Q 2594 391 2855 752 
Q 3116 1113 3116 1747 
z
" transform="scale(0.015625)"/>
       <path id="DejaVuSans-72" d="M 2631 2963 
Q 2534 3019 2420 3045 
Q 2306 3072 2169 3072 
Q 1681 3072 1420 2755 
Q 1159 2438 1159 1844 
L 1159 0 
L 581 0 
L 581 3500 
L 1159 3500 
L 1159 2956 
Q 1341 3275 1631 3429 
Q 1922 3584 2338 3584 
Q 2397 3584 2469 3576 
Q 2541 3569 2628 3553 
L 2631 2963 
z
" transform="scale(0.015625)"/>
       <path id="DejaVuSans-65" d="M 3597 1894 
L 3597 1613 
L 953 1613 
Q 991 1019 1311 708 
Q 1631 397 2203 397 
Q 2534 397 2845 478 
Q 3156 559 3463 722 
L 3463 178 
Q 3153 47 2828 -22 
Q 2503 -91 2169 -91 
Q 1331 -91 842 396 
Q 353 884 353 1716 
Q 353 2575 817 3079 
Q 1281 3584 2069 3584 
Q 2775 3584 3186 3129 
Q 3597 2675 3597 1894 
z
M 3022 2063 
Q 3016 2534 2758 2815 
Q 2500 3097 2075 3097 
Q 1594 3097 1305 2825 
Q 1016 2553 972 2059 
L 3022 2063 
z
" transform="scale(0.015625)"/>
       <path id="DejaVuSans-64" d="M 2906 2969 
L 2906 4863 
L 3481 4863 
L 3481 0 
L 2906 0 
L 2906 525 
Q 2725 213 2448 61 
Q 2172 -91 1784 -91 
Q 1150 -91 751 415 
Q 353 922 353 1747 
Q 353 2572 751 3078 
Q 1150 3584 1784 3584 
Q 2172 3584 2448 3432 
Q 2725 3281 2906 2969 
z
M 947 1747 
Q 947 1113 1208 752 
Q 1469 391 1925 391 
Q 2381 391 2643 752 
Q 2906 1113 2906 1747 
Q 2906 2381 2643 2742 
Q 2381 3103 1925 3103 
Q 1469 3103 1208 2742 
Q 947 2381 947 1747 
z
" transform="scale(0.015625)"/>
       <path id="DejaVuSans-69" d="M 603 3500 
L 1178 3500 
L 1178 0 
L 603 0 
L 603 3500 
z
M 603 4863 
L 1178 4863 
L 1178 4134 
L 603 4134 
L 603 4863 
z
" transform="scale(0.015625)"/>
       <path id="DejaVuSans-63" d="M 3122 3366 
L 3122 2828 
Q 2878 2963 2633 3030 
Q 2388 3097 2138 3097 
Q 1578 3097 1268 2742 
Q 959 2388 959 1747 
Q 959 1106 1268 751 
Q 1578 397 2138 397 
Q 2388 397 2633 464 
Q 2878 531 3122 666 
L 3122 134 
Q 2881 22 2623 -34 
Q 2366 -91 2075 -91 
Q 1284 -91 818 406 
Q 353 903 353 1747 
Q 353 2603 823 3093 
Q 1294 3584 2113 3584 
Q 2378 3584 2631 3529 
Q 2884 3475 3122 3366 
z
" transform="scale(0.015625)"/>
       <path id="DejaVuSans-74" d="M 1172 4494 
L 1172 3500 
L 2356 3500 
L 2356 3053 
L 1172 3053 
L 1172 1153 
Q 1172 725 1289 603 
Q 1406 481 1766 481 
L 2356 481 
L 2356 0 
L 1766 0 
Q 1100 0 847 248 
Q 594 497 594 1153 
L 594 3053 
L 172 3053 
L 172 3500 
L 594 3500 
L 594 4494 
L 1172 4494 
z
" transform="scale(0.015625)"/>
       <path id="DejaVuSans-6f" d="M 1959 3097 
Q 1497 3097 1228 2736 
Q 959 2375 959 1747 
Q 959 1119 1226 758 
Q 1494 397 1959 397 
Q 2419 397 2687 759 
Q 2956 1122 2956 1747 
Q 2956 2369 2687 2733 
Q 2419 3097 1959 3097 
z
M 1959 3584 
Q 2709 3584 3137 3096 
Q 3566 2609 3566 1747 
Q 3566 888 3137 398 
Q 2709 -91 1959 -91 
Q 1206 -91 779 398 
Q 353 888 353 1747 
Q 353 2609 779 3096 
Q 1206 3584 1959 3584 
z
" transform="scale(0.015625)"/>
       <path id="DejaVuSans-6e" d="M 3513 2113 
L 3513 0 
L 2938 0 
L 2938 2094 
Q 2938 2591 2744 2837 
Q 2550 3084 2163 3084 
Q 1697 3084 1428 2787 
Q 1159 2491 1159 1978 
L 1159 0 
L 581 0 
L 581 3500 
L 1159 3500 
L 1159 2956 
Q 1366 3272 1645 3428 
Q 1925 3584 2291 3584 
Q 2894 3584 3203 3211 
Q 3513 2838 3513 2113 
z
" transform="scale(0.015625)"/>
       <path id="DejaVuSans-73" d="M 2834 3397 
L 2834 2853 
Q 2591 2978 2328 3040 
Q 2066 3103 1784 3103 
Q 1356 3103 1142 2972 
Q 928 2841 928 2578 
Q 928 2378 1081 2264 
Q 1234 2150 1697 2047 
L 1894 2003 
Q 2506 1872 2764 1633 
Q 3022 1394 3022 966 
Q 3022 478 2636 193 
Q 2250 -91 1575 -91 
Q 1294 -91 989 -36 
Q 684 19 347 128 
L 347 722 
Q 666 556 975 473 
Q 1284 391 1588 391 
Q 1994 391 2212 530 
Q 2431 669 2431 922 
Q 2431 1156 2273 1281 
Q 2116 1406 1581 1522 
L 1381 1569 
Q 847 1681 609 1914 
Q 372 2147 372 2553 
Q 372 3047 722 3315 
Q 1072 3584 1716 3584 
Q 2034 3584 2315 3537 
Q 2597 3491 2834 3397 
z
" transform="scale(0.015625)"/>
       <path id="DejaVuSans-28" d="M 1984 4856 
Q 1566 4138 1362 3434 
Q 1159 2731 1159 2009 
Q 1159 1288 1364 580 
Q 1569 -128 1984 -844 
L 1484 -844 
Q 1016 -109 783 600 
Q 550 1309 550 2009 
Q 550 2706 781 3412 
Q 1013 4119 1484 4856 
L 1984 4856 
z
" transform="scale(0.015625)"/>
       <path id="DejaVuSans-52" d="M 2841 2188 
Q 3044 2119 3236 1894 
Q 3428 1669 3622 1275 
L 4263 0 
L 3584 0 
L 2988 1197 
Q 2756 1666 2539 1819 
Q 2322 1972 1947 1972 
L 1259 1972 
L 1259 0 
L 628 0 
L 628 4666 
L 2053 4666 
Q 2853 4666 3247 4331 
Q 3641 3997 3641 3322 
Q 3641 2881 3436 2590 
Q 3231 2300 2841 2188 
z
M 1259 4147 
L 1259 2491 
L 2053 2491 
Q 2509 2491 2742 2702 
Q 2975 2913 2975 3322 
Q 2975 3731 2742 3939 
Q 2509 4147 2053 4147 
L 1259 4147 
z
" transform="scale(0.015625)"/>
       <path id="DejaVuSans-61" d="M 2194 1759 
Q 1497 1759 1228 1600 
Q 959 1441 959 1056 
Q 959 750 1161 570 
Q 1363 391 1709 391 
Q 2188 391 2477 730 
Q 2766 1069 2766 1631 
L 2766 1759 
L 2194 1759 
z
M 3341 1997 
L 3341 0 
L 2766 0 
L 2766 531 
Q 2569 213 2275 61 
Q 1981 -91 1556 -91 
Q 1019 -91 701 211 
Q 384 513 384 1019 
Q 384 1609 779 1909 
Q 1175 2209 1959 2209 
L 2766 2209 
L 2766 2266 
Q 2766 2663 2505 2880 
Q 2244 3097 1772 3097 
Q 1472 3097 1187 3025 
Q 903 2953 641 2809 
L 641 3341 
Q 956 3463 1253 3523 
Q 1550 3584 1831 3584 
Q 2591 3584 2966 3190 
Q 3341 2797 3341 1997 
z
" transform="scale(0.015625)"/>
       <path id="DejaVuSans-45" d="M 628 4666 
L 3578 4666 
L 3578 4134 
L 1259 4134 
L 1259 2753 
L 3481 2753 
L 3481 2222 
L 1259 2222 
L 1259 531 
L 3634 531 
L 3634 0 
L 628 0 
L 628 4666 
z
" transform="scale(0.015625)"/>
       <path id="DejaVuSans-29" d="M 513 4856 
L 1013 4856 
Q 1481 4119 1714 3412 
Q 1947 2706 1947 2009 
Q 1947 1309 1714 600 
Q 1481 -109 1013 -844 
L 513 -844 
Q 928 -128 1133 580 
Q 1338 1288 1338 2009 
Q 1338 2731 1133 3434 
Q 928 4138 513 4856 
z
" transform="scale(0.015625)"/>
      </defs>
      <use xlink:href="#DejaVuSans-4b"/>
      <use xlink:href="#DejaVuSans-47" transform="translate(65.576172 0)"/>
      <use xlink:href="#DejaVuSans-20" transform="translate(143.066406 0)"/>
      <use xlink:href="#DejaVuSans-70" transform="translate(174.853516 0)"/>
      <use xlink:href="#DejaVuSans-72" transform="translate(238.330078 0)"/>
      <use xlink:href="#DejaVuSans-65" transform="translate(277.193359 0)"/>
      <use xlink:href="#DejaVuSans-64" transform="translate(338.716797 0)"/>
      <use xlink:href="#DejaVuSans-69" transform="translate(402.193359 0)"/>
      <use xlink:href="#DejaVuSans-63" transform="translate(429.976562 0)"/>
      <use xlink:href="#DejaVuSans-74" transform="translate(484.957031 0)"/>
      <use xlink:href="#DejaVuSans-69" transform="translate(524.166016 0)"/>
      <use xlink:href="#DejaVuSans-6f" transform="translate(551.949219 0)"/>
      <use xlink:href="#DejaVuSans-6e" transform="translate(613.130859 0)"/>
      <use xlink:href="#DejaVuSans-20" transform="translate(676.509766 0)"/>
      <use xlink:href="#DejaVuSans-73" transform="translate(708.296875 0)"/>
      <use xlink:href="#DejaVuSans-63" transform="translate(760.396484 0)"/>
      <use xlink:href="#DejaVuSans-6f" transform="translate(815.376953 0)"/>
      <use xlink:href="#DejaVuSans-72" transform="translate(876.558594 0)"/>
      <use xlink:href="#DejaVuSans-65" transform="translate(915.421875 0)"/>
      <use xlink:href="#DejaVuSans-20" transform="translate(976.945312 0)"/>
      <use xlink:href="#DejaVuSans-28" transform="translate(1008.732422 0)"/>
      <use xlink:href="#DejaVuSans-52" transform="translate(1047.746094 0)"/>
      <use xlink:href="#DejaVuSans-6f" transform="translate(1112.728516 0)"/>
      <use xlink:href="#DejaVuSans-74" transform="translate(1173.910156 0)"/>
      <use xlink:href="#DejaVuSans-61" transform="translate(1213.119141 0)"/>
      <use xlink:href="#DejaVuSans-74" transform="translate(1274.398438 0)"/>
      <use xlink:href="#DejaVuSans-45" transform="translate(1313.607422 0)"/>
      <use xlink:href="#DejaVuSans-29" transform="translate(1376.791016 0)"/>
     </g>
    </g>
   </g>
   <g id="matplotlib.axis_2">
    <g id="ytick_1">
     <g id="line2d_17">
      <path d="M 44.749063 348.93225 
L 481.589062 348.93225 
" clip-path="url(#pb0fd1c2147)" style="fill: none; stroke: #b0b0b0; stroke-opacity: 0.2; stroke-width: 0.8; stroke-linecap: square"/>
     </g>
     <g id="line2d_18">
      <defs>
       <path id="m0d4fdd55a3" d="M 0 0 
L -3.5 0 
" style="stroke: #000000; stroke-width: 0.8"/>
      </defs>
      <g>
       <use xlink:href="#m0d4fdd55a3" x="44.749063" y="348.93225" style="stroke: #000000; stroke-width: 0.8"/>
      </g>
     </g>
     <g id="text_10">
      <!-- 0.0 -->
      <g transform="translate(21.845938 352.731469) scale(0.1 -0.1)">
       <use xlink:href="#DejaVuSans-30"/>
       <use xlink:href="#DejaVuSans-2e" transform="translate(63.623047 0)"/>
       <use xlink:href="#DejaVuSans-30" transform="translate(95.410156 0)"/>
      </g>
     </g>
    </g>
    <g id="ytick_2">
     <g id="line2d_19">
      <path d="M 44.749063 285.54505 
L 481.589062 285.54505 
" clip-path="url(#pb0fd1c2147)" style="fill: none; stroke: #b0b0b0; stroke-opacity: 0.2; stroke-width: 0.8; stroke-linecap: square"/>
     </g>
     <g id="line2d_20">
      <g>
       <use xlink:href="#m0d4fdd55a3" x="44.749063" y="285.54505" style="stroke: #000000; stroke-width: 0.8"/>
      </g>
     </g>
     <g id="text_11">
      <!-- 0.2 -->
      <g transform="translate(21.845938 289.344269) scale(0.1 -0.1)">
       <defs>
        <path id="DejaVuSans-32" d="M 1228 531 
L 3431 531 
L 3431 0 
L 469 0 
L 469 531 
Q 828 903 1448 1529 
Q 2069 2156 2228 2338 
Q 2531 2678 2651 2914 
Q 2772 3150 2772 3378 
Q 2772 3750 2511 3984 
Q 2250 4219 1831 4219 
Q 1534 4219 1204 4116 
Q 875 4013 500 3803 
L 500 4441 
Q 881 4594 1212 4672 
Q 1544 4750 1819 4750 
Q 2544 4750 2975 4387 
Q 3406 4025 3406 3419 
Q 3406 3131 3298 2873 
Q 3191 2616 2906 2266 
Q 2828 2175 2409 1742 
Q 1991 1309 1228 531 
z
" transform="scale(0.015625)"/>
       </defs>
       <use xlink:href="#DejaVuSans-30"/>
       <use xlink:href="#DejaVuSans-2e" transform="translate(63.623047 0)"/>
       <use xlink:href="#DejaVuSans-32" transform="translate(95.410156 0)"/>
      </g>
     </g>
    </g>
    <g id="ytick_3">
     <g id="line2d_21">
      <path d="M 44.749063 222.15785 
L 481.589062 222.15785 
" clip-path="url(#pb0fd1c2147)" style="fill: none; stroke: #b0b0b0; stroke-opacity: 0.2; stroke-width: 0.8; stroke-linecap: square"/>
     </g>
     <g id="line2d_22">
      <g>
       <use xlink:href="#m0d4fdd55a3" x="44.749063" y="222.15785" style="stroke: #000000; stroke-width: 0.8"/>
      </g>
     </g>
     <g id="text_12">
      <!-- 0.4 -->
      <g transform="translate(21.845938 225.957069) scale(0.1 -0.1)">
       <use xlink:href="#DejaVuSans-30"/>
       <use xlink:href="#DejaVuSans-2e" transform="translate(63.623047 0)"/>
       <use xlink:href="#DejaVuSans-34" transform="translate(95.410156 0)"/>
      </g>
     </g>
    </g>
    <g id="ytick_4">
     <g id="line2d_23">
      <path d="M 44.749063 158.77065 
L 481.589062 158.77065 
" clip-path="url(#pb0fd1c2147)" style="fill: none; stroke: #b0b0b0; stroke-opacity: 0.2; stroke-width: 0.8; stroke-linecap: square"/>
     </g>
     <g id="line2d_24">
      <g>
       <use xlink:href="#m0d4fdd55a3" x="44.749063" y="158.77065" style="stroke: #000000; stroke-width: 0.8"/>
      </g>
     </g>
     <g id="text_13">
      <!-- 0.6 -->
      <g transform="translate(21.845938 162.569869) scale(0.1 -0.1)">
       <use xlink:href="#DejaVuSans-30"/>
       <use xlink:href="#DejaVuSans-2e" transform="translate(63.623047 0)"/>
       <use xlink:href="#DejaVuSans-36" transform="translate(95.410156 0)"/>
      </g>
     </g>
    </g>
    <g id="ytick_5">
     <g id="line2d_25">
      <path d="M 44.749063 95.38345 
L 481.589062 95.38345 
" clip-path="url(#pb0fd1c2147)" style="fill: none; stroke: #b0b0b0; stroke-opacity: 0.2; stroke-width: 0.8; stroke-linecap: square"/>
     </g>
     <g id="line2d_26">
      <g>
       <use xlink:href="#m0d4fdd55a3" x="44.749063" y="95.38345" style="stroke: #000000; stroke-width: 0.8"/>
      </g>
     </g>
     <g id="text_14">
      <!-- 0.8 -->
      <g transform="translate(21.845938 99.182669) scale(0.1 -0.1)">
       <use xlink:href="#DejaVuSans-30"/>
       <use xlink:href="#DejaVuSans-2e" transform="translate(63.623047 0)"/>
       <use xlink:href="#DejaVuSans-38" transform="translate(95.410156 0)"/>
      </g>
     </g>
    </g>
    <g id="ytick_6">
     <g id="line2d_27">
      <path d="M 44.749063 31.99625 
L 481.589062 31.99625 
" clip-path="url(#pb0fd1c2147)" style="fill: none; stroke: #b0b0b0; stroke-opacity: 0.2; stroke-width: 0.8; stroke-linecap: square"/>
     </g>
     <g id="line2d_28">
      <g>
       <use xlink:href="#m0d4fdd55a3" x="44.749063" y="31.99625" style="stroke: #000000; stroke-width: 0.8"/>
      </g>
     </g>
     <g id="text_15">
      <!-- 1.0 -->
      <g transform="translate(21.845938 35.795469) scale(0.1 -0.1)">
       <use xlink:href="#DejaVuSans-31"/>
       <use xlink:href="#DejaVuSans-2e" transform="translate(63.623047 0)"/>
       <use xlink:href="#DejaVuSans-30" transform="translate(95.410156 0)"/>
      </g>
     </g>
    </g>
    <g id="text_16">
     <!-- RNA-seq reversal score -->
     <g transform="translate(15.558281 254.222141) rotate(-90) scale(0.11 -0.11)">
      <defs>
       <path id="DejaVuSans-4e" d="M 628 4666 
L 1478 4666 
L 3547 763 
L 3547 4666 
L 4159 4666 
L 4159 0 
L 3309 0 
L 1241 3903 
L 1241 0 
L 628 0 
L 628 4666 
z
" transform="scale(0.015625)"/>
       <path id="DejaVuSans-41" d="M 2188 4044 
L 1331 1722 
L 3047 1722 
L 2188 4044 
z
M 1831 4666 
L 2547 4666 
L 4325 0 
L 3669 0 
L 3244 1197 
L 1141 1197 
L 716 0 
L 50 0 
L 1831 4666 
z
" transform="scale(0.015625)"/>
       <path id="DejaVuSans-2d" d="M 313 2009 
L 1997 2009 
L 1997 1497 
L 313 1497 
L 313 2009 
z
" transform="scale(0.015625)"/>
       <path id="DejaVuSans-71" d="M 947 1747 
Q 947 1113 1208 752 
Q 1469 391 1925 391 
Q 2381 391 2643 752 
Q 2906 1113 2906 1747 
Q 2906 2381 2643 2742 
Q 2381 3103 1925 3103 
Q 1469 3103 1208 2742 
Q 947 2381 947 1747 
z
M 2906 525 
Q 2725 213 2448 61 
Q 2172 -91 1784 -91 
Q 1150 -91 751 415 
Q 353 922 353 1747 
Q 353 2572 751 3078 
Q 1150 3584 1784 3584 
Q 2172 3584 2448 3432 
Q 2725 3281 2906 2969 
L 2906 3500 
L 3481 3500 
L 3481 -1331 
L 2906 -1331 
L 2906 525 
z
" transform="scale(0.015625)"/>
       <path id="DejaVuSans-76" d="M 191 3500 
L 800 3500 
L 1894 563 
L 2988 3500 
L 3597 3500 
L 2284 0 
L 1503 0 
L 191 3500 
z
" transform="scale(0.015625)"/>
       <path id="DejaVuSans-6c" d="M 603 4863 
L 1178 4863 
L 1178 0 
L 603 0 
L 603 4863 
z
" transform="scale(0.015625)"/>
      </defs>
      <use xlink:href="#DejaVuSans-52"/>
      <use xlink:href="#DejaVuSans-4e" transform="translate(69.482422 0)"/>
      <use xlink:href="#DejaVuSans-41" transform="translate(144.287109 0)"/>
      <use xlink:href="#DejaVuSans-2d" transform="translate(210.445312 0)"/>
      <use xlink:href="#DejaVuSans-73" transform="translate(246.529297 0)"/>
      <use xlink:href="#DejaVuSans-65" transform="translate(298.628906 0)"/>
      <use xlink:href="#DejaVuSans-71" transform="translate(360.152344 0)"/>
      <use xlink:href="#DejaVuSans-20" transform="translate(423.628906 0)"/>
      <use xlink:href="#DejaVuSans-72" transform="translate(455.416016 0)"/>
      <use xlink:href="#DejaVuSans-65" transform="translate(494.279297 0)"/>
      <use xlink:href="#DejaVuSans-76" transform="translate(555.802734 0)"/>
      <use xlink:href="#DejaVuSans-65" transform="translate(614.982422 0)"/>
      <use xlink:href="#DejaVuSans-72" transform="translate(676.505859 0)"/>
      <use xlink:href="#DejaVuSans-73" transform="translate(717.619141 0)"/>
      <use xlink:href="#DejaVuSans-61" transform="translate(769.71875 0)"/>
      <use xlink:href="#DejaVuSans-6c" transform="translate(830.998047 0)"/>
      <use xlink:href="#DejaVuSans-20" transform="translate(858.78125 0)"/>
      <use xlink:href="#DejaVuSans-73" transform="translate(890.568359 0)"/>
      <use xlink:href="#DejaVuSans-63" transform="translate(942.667969 0)"/>
      <use xlink:href="#DejaVuSans-6f" transform="translate(997.648438 0)"/>
      <use xlink:href="#DejaVuSans-72" transform="translate(1058.830078 0)"/>
      <use xlink:href="#DejaVuSans-65" transform="translate(1097.693359 0)"/>
     </g>
    </g>
   </g>
   <g id="line2d_29">
    <path d="M 157.079348 177.12618 
L 157.331493 177.055347 
L 157.583637 176.984514 
L 157.835781 176.913681 
L 158.087925 176.842847 
L 158.34007 176.772014 
L 158.592214 176.701181 
L 158.844358 176.630348 
L 159.096503 176.559514 
L 159.348647 176.488681 
L 159.600791 176.417848 
L 159.852936 176.347015 
L 160.10508 176.276181 
L 160.357224 176.205348 
L 160.609368 176.134515 
L 160.861513 176.063682 
L 161.113657 175.992848 
L 161.365801 175.922015 
L 161.617946 175.851182 
L 161.87009 175.780349 
L 162.122234 175.709515 
L 162.374379 175.638682 
L 162.626523 175.567849 
L 162.878667 175.497015 
L 163.130811 175.426182 
L 163.382956 175.355349 
L 163.6351 175.284516 
L 163.887244 175.213682 
L 164.139389 175.142849 
L 164.391533 175.072016 
L 164.643677 175.001183 
L 164.895822 174.930349 
L 165.147966 174.859516 
L 165.40011 174.788683 
L 165.652254 174.71785 
L 165.904399 174.647016 
L 166.156543 174.576183 
L 166.408687 174.50535 
L 166.660832 174.434517 
L 166.912976 174.363683 
L 167.16512 174.29285 
L 167.417265 174.222017 
L 167.669409 174.151184 
L 167.921553 174.08035 
L 168.173697 174.009517 
L 168.425842 173.938684 
L 168.677986 173.867851 
L 168.93013 173.797017 
L 169.182275 173.726184 
L 169.434419 173.655351 
L 169.686563 173.584517 
L 169.938708 173.513684 
L 170.190852 173.442851 
L 170.442996 173.372018 
L 170.69514 173.301184 
L 170.947285 173.230351 
L 171.199429 173.159518 
L 171.451573 173.088685 
L 171.703718 173.017851 
L 171.955862 172.947018 
L 172.208006 172.876185 
L 172.460151 172.805352 
L 172.712295 172.734518 
L 172.964439 172.663685 
L 173.216583 172.592852 
L 173.468728 172.522019 
L 173.720872 172.451185 
L 173.973016 172.380352 
L 174.225161 172.309519 
L 174.477305 172.238686 
L 174.729449 172.167852 
L 174.981594 172.097019 
L 175.233738 172.026186 
L 175.485882 171.955353 
L 175.738026 171.884519 
L 175.990171 171.813686 
L 176.242315 171.742853 
L 176.494459 171.672019 
L 176.746604 171.601186 
L 176.998748 171.530353 
L 177.250892 171.45952 
L 177.503037 171.388686 
L 177.755181 171.317853 
L 178.007325 171.24702 
L 178.259469 171.176187 
L 178.511614 171.105353 
L 178.763758 171.03452 
L 179.015902 170.963687 
L 179.268047 170.892854 
L 179.520191 170.82202 
L 179.772335 170.751187 
L 180.02448 170.680354 
L 180.276624 170.609521 
L 180.528768 170.538687 
L 180.780912 170.467854 
L 181.033057 170.397021 
L 181.285201 170.326188 
L 181.537345 170.255354 
L 181.78949 170.184521 
L 182.041634 170.113688 
" clip-path="url(#pb0fd1c2147)" style="fill: none; stroke-dasharray: 3.7,1.6; stroke-dashoffset: 0; stroke: #808080; stroke-opacity: 0.5"/>
   </g>
   <g id="patch_3">
    <path d="M 44.749063 348.93225 
L 44.749063 31.99625 
" style="fill: none; stroke: #000000; stroke-width: 0.8; stroke-linejoin: miter; stroke-linecap: square"/>
   </g>
   <g id="patch_4">
    <path d="M 481.589062 348.93225 
L 481.589062 31.99625 
" style="fill: none; stroke: #000000; stroke-width: 0.8; stroke-linejoin: miter; stroke-linecap: square"/>
   </g>
   <g id="patch_5">
    <path d="M 44.749063 348.93225 
L 481.589062 348.93225 
" style="fill: none; stroke: #000000; stroke-width: 0.8; stroke-linejoin: miter; stroke-linecap: square"/>
   </g>
   <g id="patch_6">
    <path d="M 44.749063 31.99625 
L 481.589062 31.99625 
" style="fill: none; stroke: #000000; stroke-width: 0.8; stroke-linejoin: miter; stroke-linecap: square"/>
   </g>
   <g id="text_17">
    <!-- Anastrozole -->
    <g style="opacity: 0.85" transform="translate(175.560491 124.345535) scale(0.07 -0.07)">
     <defs>
      <path id="DejaVuSans-7a" d="M 353 3500 
L 3084 3500 
L 3084 2975 
L 922 459 
L 3084 459 
L 3084 0 
L 275 0 
L 275 525 
L 2438 3041 
L 353 3041 
L 353 3500 
z
" transform="scale(0.015625)"/>
     </defs>
     <use xlink:href="#DejaVuSans-41"/>
     <use xlink:href="#DejaVuSans-6e" transform="translate(68.408203 0)"/>
     <use xlink:href="#DejaVuSans-61" transform="translate(131.787109 0)"/>
     <use xlink:href="#DejaVuSans-73" transform="translate(193.066406 0)"/>
     <use xlink:href="#DejaVuSans-74" transform="translate(245.166016 0)"/>
     <use xlink:href="#DejaVuSans-72" transform="translate(284.375 0)"/>
     <use xlink:href="#DejaVuSans-6f" transform="translate(323.238281 0)"/>
     <use xlink:href="#DejaVuSans-7a" transform="translate(384.419922 0)"/>
     <use xlink:href="#DejaVuSans-6f" transform="translate(436.910156 0)"/>
     <use xlink:href="#DejaVuSans-6c" transform="translate(498.091797 0)"/>
     <use xlink:href="#DejaVuSans-65" transform="translate(525.875 0)"/>
    </g>
   </g>
   <g id="text_18">
    <!-- Letrozole -->
    <g style="opacity: 0.85" transform="translate(175.560491 127.262673) scale(0.07 -0.07)">
     <defs>
      <path id="DejaVuSans-4c" d="M 628 4666 
L 1259 4666 
L 1259 531 
L 3531 531 
L 3531 0 
L 628 0 
L 628 4666 
z
" transform="scale(0.015625)"/>
     </defs>
     <use xlink:href="#DejaVuSans-4c"/>
     <use xlink:href="#DejaVuSans-65" transform="translate(53.962891 0)"/>
     <use xlink:href="#DejaVuSans-74" transform="translate(115.486328 0)"/>
     <use xlink:href="#DejaVuSans-72" transform="translate(154.695312 0)"/>
     <use xlink:href="#DejaVuSans-6f" transform="translate(193.558594 0)"/>
     <use xlink:href="#DejaVuSans-7a" transform="translate(254.740234 0)"/>
     <use xlink:href="#DejaVuSans-6f" transform="translate(307.230469 0)"/>
     <use xlink:href="#DejaVuSans-6c" transform="translate(368.412109 0)"/>
     <use xlink:href="#DejaVuSans-65" transform="translate(396.195312 0)"/>
    </g>
   </g>
   <g id="text_19">
    <!-- Pd173074 -->
    <g style="opacity: 0.85" transform="translate(175.560491 148.917402) scale(0.07 -0.07)">
     <defs>
      <path id="DejaVuSans-50" d="M 1259 4147 
L 1259 2394 
L 2053 2394 
Q 2494 2394 2734 2622 
Q 2975 2850 2975 3272 
Q 2975 3691 2734 3919 
Q 2494 4147 2053 4147 
L 1259 4147 
z
M 628 4666 
L 2053 4666 
Q 2838 4666 3239 4311 
Q 3641 3956 3641 3272 
Q 3641 2581 3239 2228 
Q 2838 1875 2053 1875 
L 1259 1875 
L 1259 0 
L 628 0 
L 628 4666 
z
" transform="scale(0.015625)"/>
     </defs>
     <use xlink:href="#DejaVuSans-50"/>
     <use xlink:href="#DejaVuSans-64" transform="translate(60.302734 0)"/>
     <use xlink:href="#DejaVuSans-31" transform="translate(123.779297 0)"/>
     <use xlink:href="#DejaVuSans-37" transform="translate(187.402344 0)"/>
     <use xlink:href="#DejaVuSans-33" transform="translate(251.025391 0)"/>
     <use xlink:href="#DejaVuSans-30" transform="translate(314.648438 0)"/>
     <use xlink:href="#DejaVuSans-37" transform="translate(378.271484 0)"/>
     <use xlink:href="#DejaVuSans-34" transform="translate(441.894531 0)"/>
    </g>
   </g>
   <g id="text_20">
    <!-- Zinc -->
    <g style="opacity: 0.85" transform="translate(175.560491 149.764856) scale(0.07 -0.07)">
     <defs>
      <path id="DejaVuSans-5a" d="M 359 4666 
L 4025 4666 
L 4025 4184 
L 1075 531 
L 4097 531 
L 4097 0 
L 288 0 
L 288 481 
L 3238 4134 
L 359 4134 
L 359 4666 
z
" transform="scale(0.015625)"/>
     </defs>
     <use xlink:href="#DejaVuSans-5a"/>
     <use xlink:href="#DejaVuSans-69" transform="translate(68.505859 0)"/>
     <use xlink:href="#DejaVuSans-6e" transform="translate(96.289062 0)"/>
     <use xlink:href="#DejaVuSans-63" transform="translate(159.667969 0)"/>
    </g>
   </g>
   <g id="text_21">
    <!-- Vemurafenib -->
    <g style="opacity: 0.85" transform="translate(175.560491 149.642454) scale(0.07 -0.07)">
     <defs>
      <path id="DejaVuSans-56" d="M 1831 0 
L 50 4666 
L 709 4666 
L 2188 738 
L 3669 4666 
L 4325 4666 
L 2547 0 
L 1831 0 
z
" transform="scale(0.015625)"/>
      <path id="DejaVuSans-6d" d="M 3328 2828 
Q 3544 3216 3844 3400 
Q 4144 3584 4550 3584 
Q 5097 3584 5394 3201 
Q 5691 2819 5691 2113 
L 5691 0 
L 5113 0 
L 5113 2094 
Q 5113 2597 4934 2840 
Q 4756 3084 4391 3084 
Q 3944 3084 3684 2787 
Q 3425 2491 3425 1978 
L 3425 0 
L 2847 0 
L 2847 2094 
Q 2847 2600 2669 2842 
Q 2491 3084 2119 3084 
Q 1678 3084 1418 2786 
Q 1159 2488 1159 1978 
L 1159 0 
L 581 0 
L 581 3500 
L 1159 3500 
L 1159 2956 
Q 1356 3278 1631 3431 
Q 1906 3584 2284 3584 
Q 2666 3584 2933 3390 
Q 3200 3197 3328 2828 
z
" transform="scale(0.015625)"/>
      <path id="DejaVuSans-75" d="M 544 1381 
L 544 3500 
L 1119 3500 
L 1119 1403 
Q 1119 906 1312 657 
Q 1506 409 1894 409 
Q 2359 409 2629 706 
Q 2900 1003 2900 1516 
L 2900 3500 
L 3475 3500 
L 3475 0 
L 2900 0 
L 2900 538 
Q 2691 219 2414 64 
Q 2138 -91 1772 -91 
Q 1169 -91 856 284 
Q 544 659 544 1381 
z
M 1991 3584 
L 1991 3584 
z
" transform="scale(0.015625)"/>
      <path id="DejaVuSans-66" d="M 2375 4863 
L 2375 4384 
L 1825 4384 
Q 1516 4384 1395 4259 
Q 1275 4134 1275 3809 
L 1275 3500 
L 2222 3500 
L 2222 3053 
L 1275 3053 
L 1275 0 
L 697 0 
L 697 3053 
L 147 3053 
L 147 3500 
L 697 3500 
L 697 3744 
Q 697 4328 969 4595 
Q 1241 4863 1831 4863 
L 2375 4863 
z
" transform="scale(0.015625)"/>
      <path id="DejaVuSans-62" d="M 3116 1747 
Q 3116 2381 2855 2742 
Q 2594 3103 2138 3103 
Q 1681 3103 1420 2742 
Q 1159 2381 1159 1747 
Q 1159 1113 1420 752 
Q 1681 391 2138 391 
Q 2594 391 2855 752 
Q 3116 1113 3116 1747 
z
M 1159 2969 
Q 1341 3281 1617 3432 
Q 1894 3584 2278 3584 
Q 2916 3584 3314 3078 
Q 3713 2572 3713 1747 
Q 3713 922 3314 415 
Q 2916 -91 2278 -91 
Q 1894 -91 1617 61 
Q 1341 213 1159 525 
L 1159 0 
L 581 0 
L 581 4863 
L 1159 4863 
L 1159 2969 
z
" transform="scale(0.015625)"/>
     </defs>
     <use xlink:href="#DejaVuSans-56"/>
     <use xlink:href="#DejaVuSans-65" transform="translate(60.658203 0)"/>
     <use xlink:href="#DejaVuSans-6d" transform="translate(122.181641 0)"/>
     <use xlink:href="#DejaVuSans-75" transform="translate(219.59375 0)"/>
     <use xlink:href="#DejaVuSans-72" transform="translate(282.972656 0)"/>
     <use xlink:href="#DejaVuSans-61" transform="translate(324.085938 0)"/>
     <use xlink:href="#DejaVuSans-66" transform="translate(385.365234 0)"/>
     <use xlink:href="#DejaVuSans-65" transform="translate(420.570312 0)"/>
     <use xlink:href="#DejaVuSans-6e" transform="translate(482.09375 0)"/>
     <use xlink:href="#DejaVuSans-69" transform="translate(545.472656 0)"/>
     <use xlink:href="#DejaVuSans-62" transform="translate(573.255859 0)"/>
    </g>
   </g>
   <g id="text_22">
    <!-- Resveratrol -->
    <g style="opacity: 0.85" transform="translate(175.560491 154.090914) scale(0.07 -0.07)">
     <use xlink:href="#DejaVuSans-52"/>
     <use xlink:href="#DejaVuSans-65" transform="translate(64.982422 0)"/>
     <use xlink:href="#DejaVuSans-73" transform="translate(126.505859 0)"/>
     <use xlink:href="#DejaVuSans-76" transform="translate(178.605469 0)"/>
     <use xlink:href="#DejaVuSans-65" transform="translate(237.785156 0)"/>
     <use xlink:href="#DejaVuSans-72" transform="translate(299.308594 0)"/>
     <use xlink:href="#DejaVuSans-61" transform="translate(340.421875 0)"/>
     <use xlink:href="#DejaVuSans-74" transform="translate(401.701172 0)"/>
     <use xlink:href="#DejaVuSans-72" transform="translate(440.910156 0)"/>
     <use xlink:href="#DejaVuSans-6f" transform="translate(479.773438 0)"/>
     <use xlink:href="#DejaVuSans-6c" transform="translate(540.955078 0)"/>
    </g>
   </g>
   <g id="text_23">
    <!-- Lapatinib -->
    <g style="opacity: 0.85" transform="translate(175.560491 154.749632) scale(0.07 -0.07)">
     <use xlink:href="#DejaVuSans-4c"/>
     <use xlink:href="#DejaVuSans-61" transform="translate(55.712891 0)"/>
     <use xlink:href="#DejaVuSans-70" transform="translate(116.992188 0)"/>
     <use xlink:href="#DejaVuSans-61" transform="translate(180.46875 0)"/>
     <use xlink:href="#DejaVuSans-74" transform="translate(241.748047 0)"/>
     <use xlink:href="#DejaVuSans-69" transform="translate(280.957031 0)"/>
     <use xlink:href="#DejaVuSans-6e" transform="translate(308.740234 0)"/>
     <use xlink:href="#DejaVuSans-69" transform="translate(372.119141 0)"/>
     <use xlink:href="#DejaVuSans-62" transform="translate(399.902344 0)"/>
    </g>
   </g>
   <g id="text_24">
    <!-- Ribavirin -->
    <g style="opacity: 0.85" transform="translate(175.560491 155.30378) scale(0.07 -0.07)">
     <use xlink:href="#DejaVuSans-52"/>
     <use xlink:href="#DejaVuSans-69" transform="translate(69.482422 0)"/>
     <use xlink:href="#DejaVuSans-62" transform="translate(97.265625 0)"/>
     <use xlink:href="#DejaVuSans-61" transform="translate(160.742188 0)"/>
     <use xlink:href="#DejaVuSans-76" transform="translate(222.021484 0)"/>
     <use xlink:href="#DejaVuSans-69" transform="translate(281.201172 0)"/>
     <use xlink:href="#DejaVuSans-72" transform="translate(308.984375 0)"/>
     <use xlink:href="#DejaVuSans-69" transform="translate(350.097656 0)"/>
     <use xlink:href="#DejaVuSans-6e" transform="translate(377.880859 0)"/>
    </g>
   </g>
   <g id="text_25">
    <!-- Mk-886 -->
    <g style="opacity: 0.85" transform="translate(175.560491 155.428312) scale(0.07 -0.07)">
     <defs>
      <path id="DejaVuSans-4d" d="M 628 4666 
L 1569 4666 
L 2759 1491 
L 3956 4666 
L 4897 4666 
L 4897 0 
L 4281 0 
L 4281 4097 
L 3078 897 
L 2444 897 
L 1241 4097 
L 1241 0 
L 628 0 
L 628 4666 
z
" transform="scale(0.015625)"/>
      <path id="DejaVuSans-6b" d="M 581 4863 
L 1159 4863 
L 1159 1991 
L 2875 3500 
L 3609 3500 
L 1753 1863 
L 3688 0 
L 2938 0 
L 1159 1709 
L 1159 0 
L 581 0 
L 581 4863 
z
" transform="scale(0.015625)"/>
     </defs>
     <use xlink:href="#DejaVuSans-4d"/>
     <use xlink:href="#DejaVuSans-6b" transform="translate(86.279297 0)"/>
     <use xlink:href="#DejaVuSans-2d" transform="translate(144.189453 0)"/>
     <use xlink:href="#DejaVuSans-38" transform="translate(180.273438 0)"/>
     <use xlink:href="#DejaVuSans-38" transform="translate(243.896484 0)"/>
     <use xlink:href="#DejaVuSans-36" transform="translate(307.519531 0)"/>
    </g>
   </g>
   <g id="text_26">
    <!-- Phorbol -->
    <g style="opacity: 0.85" transform="translate(175.560491 155.821495) scale(0.07 -0.07)">
     <defs>
      <path id="DejaVuSans-68" d="M 3513 2113 
L 3513 0 
L 2938 0 
L 2938 2094 
Q 2938 2591 2744 2837 
Q 2550 3084 2163 3084 
Q 1697 3084 1428 2787 
Q 1159 2491 1159 1978 
L 1159 0 
L 581 0 
L 581 4863 
L 1159 4863 
L 1159 2956 
Q 1366 3272 1645 3428 
Q 1925 3584 2291 3584 
Q 2894 3584 3203 3211 
Q 3513 2838 3513 2113 
z
" transform="scale(0.015625)"/>
     </defs>
     <use xlink:href="#DejaVuSans-50"/>
     <use xlink:href="#DejaVuSans-68" transform="translate(60.302734 0)"/>
     <use xlink:href="#DejaVuSans-6f" transform="translate(123.681641 0)"/>
     <use xlink:href="#DejaVuSans-72" transform="translate(184.863281 0)"/>
     <use xlink:href="#DejaVuSans-62" transform="translate(225.976562 0)"/>
     <use xlink:href="#DejaVuSans-6f" transform="translate(289.453125 0)"/>
     <use xlink:href="#DejaVuSans-6c" transform="translate(350.634766 0)"/>
    </g>
   </g>
   <g id="text_27">
    <!-- Mek -->
    <g style="opacity: 0.85" transform="translate(175.560491 155.624849) scale(0.07 -0.07)">
     <use xlink:href="#DejaVuSans-4d"/>
     <use xlink:href="#DejaVuSans-65" transform="translate(86.279297 0)"/>
     <use xlink:href="#DejaVuSans-6b" transform="translate(147.802734 0)"/>
    </g>
   </g>
   <g id="text_28">
    <!-- Bpde -->
    <g style="opacity: 0.85" transform="translate(175.560491 149.249804) scale(0.07 -0.07)">
     <defs>
      <path id="DejaVuSans-42" d="M 1259 2228 
L 1259 519 
L 2272 519 
Q 2781 519 3026 730 
Q 3272 941 3272 1375 
Q 3272 1813 3026 2020 
Q 2781 2228 2272 2228 
L 1259 2228 
z
M 1259 4147 
L 1259 2741 
L 2194 2741 
Q 2656 2741 2882 2914 
Q 3109 3088 3109 3444 
Q 3109 3797 2882 3972 
Q 2656 4147 2194 4147 
L 1259 4147 
z
M 628 4666 
L 2241 4666 
Q 2963 4666 3353 4366 
Q 3744 4066 3744 3513 
Q 3744 3084 3544 2831 
Q 3344 2578 2956 2516 
Q 3422 2416 3680 2098 
Q 3938 1781 3938 1306 
Q 3938 681 3513 340 
Q 3088 0 2303 0 
L 628 0 
L 628 4666 
z
" transform="scale(0.015625)"/>
     </defs>
     <use xlink:href="#DejaVuSans-42"/>
     <use xlink:href="#DejaVuSans-70" transform="translate(68.603516 0)"/>
     <use xlink:href="#DejaVuSans-64" transform="translate(132.080078 0)"/>
     <use xlink:href="#DejaVuSans-65" transform="translate(195.556641 0)"/>
    </g>
   </g>
   <g id="text_29">
    <!-- 2,2',4,4',5, -->
    <g style="opacity: 0.85" transform="translate(175.560491 151.863129) scale(0.07 -0.07)">
     <defs>
      <path id="DejaVuSans-2c" d="M 750 794 
L 1409 794 
L 1409 256 
L 897 -744 
L 494 -744 
L 750 256 
L 750 794 
z
" transform="scale(0.015625)"/>
      <path id="DejaVuSans-27" d="M 1147 4666 
L 1147 2931 
L 616 2931 
L 616 4666 
L 1147 4666 
z
" transform="scale(0.015625)"/>
     </defs>
     <use xlink:href="#DejaVuSans-32"/>
     <use xlink:href="#DejaVuSans-2c" transform="translate(63.623047 0)"/>
     <use xlink:href="#DejaVuSans-32" transform="translate(95.410156 0)"/>
     <use xlink:href="#DejaVuSans-27" transform="translate(159.033203 0)"/>
     <use xlink:href="#DejaVuSans-2c" transform="translate(186.523438 0)"/>
     <use xlink:href="#DejaVuSans-34" transform="translate(218.310547 0)"/>
     <use xlink:href="#DejaVuSans-2c" transform="translate(281.933594 0)"/>
     <use xlink:href="#DejaVuSans-34" transform="translate(313.720703 0)"/>
     <use xlink:href="#DejaVuSans-27" transform="translate(377.34375 0)"/>
     <use xlink:href="#DejaVuSans-2c" transform="translate(404.833984 0)"/>
     <use xlink:href="#DejaVuSans-35" transform="translate(436.621094 0)"/>
     <use xlink:href="#DejaVuSans-2c" transform="translate(500.244141 0)"/>
    </g>
   </g>
   <g id="text_30">
    <!-- 3,3',4,4'-te -->
    <g style="opacity: 0.85" transform="translate(175.560491 157.259252) scale(0.07 -0.07)">
     <use xlink:href="#DejaVuSans-33"/>
     <use xlink:href="#DejaVuSans-2c" transform="translate(63.623047 0)"/>
     <use xlink:href="#DejaVuSans-33" transform="translate(95.410156 0)"/>
     <use xlink:href="#DejaVuSans-27" transform="translate(159.033203 0)"/>
     <use xlink:href="#DejaVuSans-2c" transform="translate(186.523438 0)"/>
     <use xlink:href="#DejaVuSans-34" transform="translate(218.310547 0)"/>
     <use xlink:href="#DejaVuSans-2c" transform="translate(281.933594 0)"/>
     <use xlink:href="#DejaVuSans-34" transform="translate(313.720703 0)"/>
     <use xlink:href="#DejaVuSans-27" transform="translate(377.34375 0)"/>
     <use xlink:href="#DejaVuSans-2d" transform="translate(404.833984 0)"/>
     <use xlink:href="#DejaVuSans-74" transform="translate(440.917969 0)"/>
     <use xlink:href="#DejaVuSans-65" transform="translate(480.126953 0)"/>
    </g>
   </g>
   <g id="text_31">
    <!-- Epz004777 -->
    <g style="opacity: 0.85" transform="translate(175.560491 157.602825) scale(0.07 -0.07)">
     <use xlink:href="#DejaVuSans-45"/>
     <use xlink:href="#DejaVuSans-70" transform="translate(63.183594 0)"/>
     <use xlink:href="#DejaVuSans-7a" transform="translate(126.660156 0)"/>
     <use xlink:href="#DejaVuSans-30" transform="translate(179.150391 0)"/>
     <use xlink:href="#DejaVuSans-30" transform="translate(242.773438 0)"/>
     <use xlink:href="#DejaVuSans-34" transform="translate(306.396484 0)"/>
     <use xlink:href="#DejaVuSans-37" transform="translate(370.019531 0)"/>
     <use xlink:href="#DejaVuSans-37" transform="translate(433.642578 0)"/>
     <use xlink:href="#DejaVuSans-37" transform="translate(497.265625 0)"/>
    </g>
   </g>
   <g id="text_32">
    <!-- Gefitinib -->
    <g style="opacity: 0.85" transform="translate(175.560491 158.718992) scale(0.07 -0.07)">
     <use xlink:href="#DejaVuSans-47"/>
     <use xlink:href="#DejaVuSans-65" transform="translate(77.490234 0)"/>
     <use xlink:href="#DejaVuSans-66" transform="translate(139.013672 0)"/>
     <use xlink:href="#DejaVuSans-69" transform="translate(174.21875 0)"/>
     <use xlink:href="#DejaVuSans-74" transform="translate(202.001953 0)"/>
     <use xlink:href="#DejaVuSans-69" transform="translate(241.210938 0)"/>
     <use xlink:href="#DejaVuSans-6e" transform="translate(268.994141 0)"/>
     <use xlink:href="#DejaVuSans-69" transform="translate(332.373047 0)"/>
     <use xlink:href="#DejaVuSans-62" transform="translate(360.15625 0)"/>
    </g>
   </g>
   <g id="text_33">
    <!-- Telapristone -->
    <g style="opacity: 0.85" transform="translate(175.560491 160.577172) scale(0.07 -0.07)">
     <defs>
      <path id="DejaVuSans-54" d="M -19 4666 
L 3928 4666 
L 3928 4134 
L 2272 4134 
L 2272 0 
L 1638 0 
L 1638 4134 
L -19 4134 
L -19 4666 
z
" transform="scale(0.015625)"/>
     </defs>
     <use xlink:href="#DejaVuSans-54"/>
     <use xlink:href="#DejaVuSans-65" transform="translate(44.083984 0)"/>
     <use xlink:href="#DejaVuSans-6c" transform="translate(105.607422 0)"/>
     <use xlink:href="#DejaVuSans-61" transform="translate(133.390625 0)"/>
     <use xlink:href="#DejaVuSans-70" transform="translate(194.669922 0)"/>
     <use xlink:href="#DejaVuSans-72" transform="translate(258.146484 0)"/>
     <use xlink:href="#DejaVuSans-69" transform="translate(299.259766 0)"/>
     <use xlink:href="#DejaVuSans-73" transform="translate(327.042969 0)"/>
     <use xlink:href="#DejaVuSans-74" transform="translate(379.142578 0)"/>
     <use xlink:href="#DejaVuSans-6f" transform="translate(418.351562 0)"/>
     <use xlink:href="#DejaVuSans-6e" transform="translate(479.533203 0)"/>
     <use xlink:href="#DejaVuSans-65" transform="translate(542.912109 0)"/>
    </g>
   </g>
   <g id="text_34">
    <!-- Thapsigargin -->
    <g style="opacity: 0.85" transform="translate(175.560491 160.727822) scale(0.07 -0.07)">
     <defs>
      <path id="DejaVuSans-67" d="M 2906 1791 
Q 2906 2416 2648 2759 
Q 2391 3103 1925 3103 
Q 1463 3103 1205 2759 
Q 947 2416 947 1791 
Q 947 1169 1205 825 
Q 1463 481 1925 481 
Q 2391 481 2648 825 
Q 2906 1169 2906 1791 
z
M 3481 434 
Q 3481 -459 3084 -895 
Q 2688 -1331 1869 -1331 
Q 1566 -1331 1297 -1286 
Q 1028 -1241 775 -1147 
L 775 -588 
Q 1028 -725 1275 -790 
Q 1522 -856 1778 -856 
Q 2344 -856 2625 -561 
Q 2906 -266 2906 331 
L 2906 616 
Q 2728 306 2450 153 
Q 2172 0 1784 0 
Q 1141 0 747 490 
Q 353 981 353 1791 
Q 353 2603 747 3093 
Q 1141 3584 1784 3584 
Q 2172 3584 2450 3431 
Q 2728 3278 2906 2969 
L 2906 3500 
L 3481 3500 
L 3481 434 
z
" transform="scale(0.015625)"/>
     </defs>
     <use xlink:href="#DejaVuSans-54"/>
     <use xlink:href="#DejaVuSans-68" transform="translate(61.083984 0)"/>
     <use xlink:href="#DejaVuSans-61" transform="translate(124.462891 0)"/>
     <use xlink:href="#DejaVuSans-70" transform="translate(185.742188 0)"/>
     <use xlink:href="#DejaVuSans-73" transform="translate(249.21875 0)"/>
     <use xlink:href="#DejaVuSans-69" transform="translate(301.318359 0)"/>
     <use xlink:href="#DejaVuSans-67" transform="translate(329.101562 0)"/>
     <use xlink:href="#DejaVuSans-61" transform="translate(392.578125 0)"/>
     <use xlink:href="#DejaVuSans-72" transform="translate(453.857422 0)"/>
     <use xlink:href="#DejaVuSans-67" transform="translate(493.220703 0)"/>
     <use xlink:href="#DejaVuSans-69" transform="translate(556.697266 0)"/>
     <use xlink:href="#DejaVuSans-6e" transform="translate(584.480469 0)"/>
    </g>
   </g>
   <g id="text_35">
    <!-- Luteolin -->
    <g style="opacity: 0.85" transform="translate(175.560491 161.979051) scale(0.07 -0.07)">
     <use xlink:href="#DejaVuSans-4c"/>
     <use xlink:href="#DejaVuSans-75" transform="translate(53.962891 0)"/>
     <use xlink:href="#DejaVuSans-74" transform="translate(117.341797 0)"/>
     <use xlink:href="#DejaVuSans-65" transform="translate(156.550781 0)"/>
     <use xlink:href="#DejaVuSans-6f" transform="translate(218.074219 0)"/>
     <use xlink:href="#DejaVuSans-6c" transform="translate(279.255859 0)"/>
     <use xlink:href="#DejaVuSans-69" transform="translate(307.039062 0)"/>
     <use xlink:href="#DejaVuSans-6e" transform="translate(334.822266 0)"/>
    </g>
   </g>
   <g id="text_36">
    <!-- Isotretinoin -->
    <g style="opacity: 0.85" transform="translate(175.560491 166.574455) scale(0.07 -0.07)">
     <defs>
      <path id="DejaVuSans-49" d="M 628 4666 
L 1259 4666 
L 1259 0 
L 628 0 
L 628 4666 
z
" transform="scale(0.015625)"/>
     </defs>
     <use xlink:href="#DejaVuSans-49"/>
     <use xlink:href="#DejaVuSans-73" transform="translate(29.492188 0)"/>
     <use xlink:href="#DejaVuSans-6f" transform="translate(81.591797 0)"/>
     <use xlink:href="#DejaVuSans-74" transform="translate(142.773438 0)"/>
     <use xlink:href="#DejaVuSans-72" transform="translate(181.982422 0)"/>
     <use xlink:href="#DejaVuSans-65" transform="translate(220.845703 0)"/>
     <use xlink:href="#DejaVuSans-74" transform="translate(282.369141 0)"/>
     <use xlink:href="#DejaVuSans-69" transform="translate(321.578125 0)"/>
     <use xlink:href="#DejaVuSans-6e" transform="translate(349.361328 0)"/>
     <use xlink:href="#DejaVuSans-6f" transform="translate(412.740234 0)"/>
     <use xlink:href="#DejaVuSans-69" transform="translate(473.921875 0)"/>
     <use xlink:href="#DejaVuSans-6e" transform="translate(501.705078 0)"/>
    </g>
   </g>
   <g id="text_37">
    <!-- Imatinib -->
    <g style="opacity: 0.85" transform="translate(175.560491 168.559459) scale(0.07 -0.07)">
     <use xlink:href="#DejaVuSans-49"/>
     <use xlink:href="#DejaVuSans-6d" transform="translate(29.492188 0)"/>
     <use xlink:href="#DejaVuSans-61" transform="translate(126.904297 0)"/>
     <use xlink:href="#DejaVuSans-74" transform="translate(188.183594 0)"/>
     <use xlink:href="#DejaVuSans-69" transform="translate(227.392578 0)"/>
     <use xlink:href="#DejaVuSans-6e" transform="translate(255.175781 0)"/>
     <use xlink:href="#DejaVuSans-69" transform="translate(318.554688 0)"/>
     <use xlink:href="#DejaVuSans-62" transform="translate(346.337891 0)"/>
    </g>
   </g>
   <g id="text_38">
    <!-- 4-hydroxynon -->
    <g style="opacity: 0.85" transform="translate(175.560491 151.739192) scale(0.07 -0.07)">
     <defs>
      <path id="DejaVuSans-79" d="M 2059 -325 
Q 1816 -950 1584 -1140 
Q 1353 -1331 966 -1331 
L 506 -1331 
L 506 -850 
L 844 -850 
Q 1081 -850 1212 -737 
Q 1344 -625 1503 -206 
L 1606 56 
L 191 3500 
L 800 3500 
L 1894 763 
L 2988 3500 
L 3597 3500 
L 2059 -325 
z
" transform="scale(0.015625)"/>
      <path id="DejaVuSans-78" d="M 3513 3500 
L 2247 1797 
L 3578 0 
L 2900 0 
L 1881 1375 
L 863 0 
L 184 0 
L 1544 1831 
L 300 3500 
L 978 3500 
L 1906 2253 
L 2834 3500 
L 3513 3500 
z
" transform="scale(0.015625)"/>
     </defs>
     <use xlink:href="#DejaVuSans-34"/>
     <use xlink:href="#DejaVuSans-2d" transform="translate(63.623047 0)"/>
     <use xlink:href="#DejaVuSans-68" transform="translate(99.707031 0)"/>
     <use xlink:href="#DejaVuSans-79" transform="translate(163.085938 0)"/>
     <use xlink:href="#DejaVuSans-64" transform="translate(222.265625 0)"/>
     <use xlink:href="#DejaVuSans-72" transform="translate(285.742188 0)"/>
     <use xlink:href="#DejaVuSans-6f" transform="translate(324.605469 0)"/>
     <use xlink:href="#DejaVuSans-78" transform="translate(382.662109 0)"/>
     <use xlink:href="#DejaVuSans-79" transform="translate(441.841797 0)"/>
     <use xlink:href="#DejaVuSans-6e" transform="translate(501.021484 0)"/>
     <use xlink:href="#DejaVuSans-6f" transform="translate(564.400391 0)"/>
     <use xlink:href="#DejaVuSans-6e" transform="translate(625.582031 0)"/>
    </g>
   </g>
   <g id="text_39">
    <!-- Casiigly -->
    <g style="opacity: 0.85" transform="translate(175.560491 175.762981) scale(0.07 -0.07)">
     <defs>
      <path id="DejaVuSans-43" d="M 4122 4306 
L 4122 3641 
Q 3803 3938 3442 4084 
Q 3081 4231 2675 4231 
Q 1875 4231 1450 3742 
Q 1025 3253 1025 2328 
Q 1025 1406 1450 917 
Q 1875 428 2675 428 
Q 3081 428 3442 575 
Q 3803 722 4122 1019 
L 4122 359 
Q 3791 134 3420 21 
Q 3050 -91 2638 -91 
Q 1578 -91 968 557 
Q 359 1206 359 2328 
Q 359 3453 968 4101 
Q 1578 4750 2638 4750 
Q 3056 4750 3426 4639 
Q 3797 4528 4122 4306 
z
" transform="scale(0.015625)"/>
     </defs>
     <use xlink:href="#DejaVuSans-43"/>
     <use xlink:href="#DejaVuSans-61" transform="translate(69.824219 0)"/>
     <use xlink:href="#DejaVuSans-73" transform="translate(131.103516 0)"/>
     <use xlink:href="#DejaVuSans-69" transform="translate(183.203125 0)"/>
     <use xlink:href="#DejaVuSans-69" transform="translate(210.986328 0)"/>
     <use xlink:href="#DejaVuSans-67" transform="translate(238.769531 0)"/>
     <use xlink:href="#DejaVuSans-6c" transform="translate(302.246094 0)"/>
     <use xlink:href="#DejaVuSans-79" transform="translate(330.029297 0)"/>
    </g>
   </g>
   <g id="text_40">
    <!-- Hydrocortiso -->
    <g style="opacity: 0.85" transform="translate(175.560491 180.702565) scale(0.07 -0.07)">
     <defs>
      <path id="DejaVuSans-48" d="M 628 4666 
L 1259 4666 
L 1259 2753 
L 3553 2753 
L 3553 4666 
L 4184 4666 
L 4184 0 
L 3553 0 
L 3553 2222 
L 1259 2222 
L 1259 0 
L 628 0 
L 628 4666 
z
" transform="scale(0.015625)"/>
     </defs>
     <use xlink:href="#DejaVuSans-48"/>
     <use xlink:href="#DejaVuSans-79" transform="translate(75.195312 0)"/>
     <use xlink:href="#DejaVuSans-64" transform="translate(134.375 0)"/>
     <use xlink:href="#DejaVuSans-72" transform="translate(197.851562 0)"/>
     <use xlink:href="#DejaVuSans-6f" transform="translate(236.714844 0)"/>
     <use xlink:href="#DejaVuSans-63" transform="translate(297.896484 0)"/>
     <use xlink:href="#DejaVuSans-6f" transform="translate(352.876953 0)"/>
     <use xlink:href="#DejaVuSans-72" transform="translate(414.058594 0)"/>
     <use xlink:href="#DejaVuSans-74" transform="translate(455.171875 0)"/>
     <use xlink:href="#DejaVuSans-69" transform="translate(494.380859 0)"/>
     <use xlink:href="#DejaVuSans-73" transform="translate(522.164062 0)"/>
     <use xlink:href="#DejaVuSans-6f" transform="translate(574.263672 0)"/>
    </g>
   </g>
   <g id="text_41">
    <!-- Bisphenol -->
    <g style="opacity: 0.85" transform="translate(175.560491 175.177424) scale(0.07 -0.07)">
     <use xlink:href="#DejaVuSans-42"/>
     <use xlink:href="#DejaVuSans-69" transform="translate(68.603516 0)"/>
     <use xlink:href="#DejaVuSans-73" transform="translate(96.386719 0)"/>
     <use xlink:href="#DejaVuSans-70" transform="translate(148.486328 0)"/>
     <use xlink:href="#DejaVuSans-68" transform="translate(211.962891 0)"/>
     <use xlink:href="#DejaVuSans-65" transform="translate(275.341797 0)"/>
     <use xlink:href="#DejaVuSans-6e" transform="translate(336.865234 0)"/>
     <use xlink:href="#DejaVuSans-6f" transform="translate(400.244141 0)"/>
     <use xlink:href="#DejaVuSans-6c" transform="translate(461.425781 0)"/>
    </g>
   </g>
   <g id="text_42">
    <!-- Carboplatin -->
    <g style="opacity: 0.85" transform="translate(175.560491 184.598966) scale(0.07 -0.07)">
     <use xlink:href="#DejaVuSans-43"/>
     <use xlink:href="#DejaVuSans-61" transform="translate(69.824219 0)"/>
     <use xlink:href="#DejaVuSans-72" transform="translate(131.103516 0)"/>
     <use xlink:href="#DejaVuSans-62" transform="translate(172.216797 0)"/>
     <use xlink:href="#DejaVuSans-6f" transform="translate(235.693359 0)"/>
     <use xlink:href="#DejaVuSans-70" transform="translate(296.875 0)"/>
     <use xlink:href="#DejaVuSans-6c" transform="translate(360.351562 0)"/>
     <use xlink:href="#DejaVuSans-61" transform="translate(388.134766 0)"/>
     <use xlink:href="#DejaVuSans-74" transform="translate(449.414062 0)"/>
     <use xlink:href="#DejaVuSans-69" transform="translate(488.623047 0)"/>
     <use xlink:href="#DejaVuSans-6e" transform="translate(516.40625 0)"/>
    </g>
   </g>
   <g id="text_43">
    <!-- Doxycycline -->
    <g style="opacity: 0.85" transform="translate(175.560491 140.583518) scale(0.07 -0.07)">
     <defs>
      <path id="DejaVuSans-44" d="M 1259 4147 
L 1259 519 
L 2022 519 
Q 2988 519 3436 956 
Q 3884 1394 3884 2338 
Q 3884 3275 3436 3711 
Q 2988 4147 2022 4147 
L 1259 4147 
z
M 628 4666 
L 1925 4666 
Q 3281 4666 3915 4102 
Q 4550 3538 4550 2338 
Q 4550 1131 3912 565 
Q 3275 0 1925 0 
L 628 0 
L 628 4666 
z
" transform="scale(0.015625)"/>
     </defs>
     <use xlink:href="#DejaVuSans-44"/>
     <use xlink:href="#DejaVuSans-6f" transform="translate(77.001953 0)"/>
     <use xlink:href="#DejaVuSans-78" transform="translate(135.058594 0)"/>
     <use xlink:href="#DejaVuSans-79" transform="translate(194.238281 0)"/>
     <use xlink:href="#DejaVuSans-63" transform="translate(253.417969 0)"/>
     <use xlink:href="#DejaVuSans-79" transform="translate(308.398438 0)"/>
     <use xlink:href="#DejaVuSans-63" transform="translate(367.578125 0)"/>
     <use xlink:href="#DejaVuSans-6c" transform="translate(422.558594 0)"/>
     <use xlink:href="#DejaVuSans-69" transform="translate(450.341797 0)"/>
     <use xlink:href="#DejaVuSans-6e" transform="translate(478.125 0)"/>
     <use xlink:href="#DejaVuSans-65" transform="translate(541.503906 0)"/>
    </g>
   </g>
   <g id="text_44">
    <!-- Doxorubicin -->
    <g style="opacity: 0.85" transform="translate(175.560491 156.751346) scale(0.07 -0.07)">
     <use xlink:href="#DejaVuSans-44"/>
     <use xlink:href="#DejaVuSans-6f" transform="translate(77.001953 0)"/>
     <use xlink:href="#DejaVuSans-78" transform="translate(135.058594 0)"/>
     <use xlink:href="#DejaVuSans-6f" transform="translate(191.113281 0)"/>
     <use xlink:href="#DejaVuSans-72" transform="translate(252.294922 0)"/>
     <use xlink:href="#DejaVuSans-75" transform="translate(293.408203 0)"/>
     <use xlink:href="#DejaVuSans-62" transform="translate(356.787109 0)"/>
     <use xlink:href="#DejaVuSans-69" transform="translate(420.263672 0)"/>
     <use xlink:href="#DejaVuSans-63" transform="translate(448.046875 0)"/>
     <use xlink:href="#DejaVuSans-69" transform="translate(503.027344 0)"/>
     <use xlink:href="#DejaVuSans-6e" transform="translate(530.810547 0)"/>
    </g>
   </g>
   <g id="text_45">
    <!-- Carboplatin -->
    <g style="opacity: 0.85" transform="translate(175.560491 193.452527) scale(0.07 -0.07)">
     <use xlink:href="#DejaVuSans-43"/>
     <use xlink:href="#DejaVuSans-61" transform="translate(69.824219 0)"/>
     <use xlink:href="#DejaVuSans-72" transform="translate(131.103516 0)"/>
     <use xlink:href="#DejaVuSans-62" transform="translate(172.216797 0)"/>
     <use xlink:href="#DejaVuSans-6f" transform="translate(235.693359 0)"/>
     <use xlink:href="#DejaVuSans-70" transform="translate(296.875 0)"/>
     <use xlink:href="#DejaVuSans-6c" transform="translate(360.351562 0)"/>
     <use xlink:href="#DejaVuSans-61" transform="translate(388.134766 0)"/>
     <use xlink:href="#DejaVuSans-74" transform="translate(449.414062 0)"/>
     <use xlink:href="#DejaVuSans-69" transform="translate(488.623047 0)"/>
     <use xlink:href="#DejaVuSans-6e" transform="translate(516.40625 0)"/>
    </g>
   </g>
   <g id="text_46">
    <!-- Dexamethason -->
    <g style="opacity: 0.85" transform="translate(175.560491 196.118817) scale(0.07 -0.07)">
     <use xlink:href="#DejaVuSans-44"/>
     <use xlink:href="#DejaVuSans-65" transform="translate(77.001953 0)"/>
     <use xlink:href="#DejaVuSans-78" transform="translate(136.775391 0)"/>
     <use xlink:href="#DejaVuSans-61" transform="translate(195.955078 0)"/>
     <use xlink:href="#DejaVuSans-6d" transform="translate(257.234375 0)"/>
     <use xlink:href="#DejaVuSans-65" transform="translate(354.646484 0)"/>
     <use xlink:href="#DejaVuSans-74" transform="translate(416.169922 0)"/>
     <use xlink:href="#DejaVuSans-68" transform="translate(455.378906 0)"/>
     <use xlink:href="#DejaVuSans-61" transform="translate(518.757812 0)"/>
     <use xlink:href="#DejaVuSans-73" transform="translate(580.037109 0)"/>
     <use xlink:href="#DejaVuSans-6f" transform="translate(632.136719 0)"/>
     <use xlink:href="#DejaVuSans-6e" transform="translate(693.318359 0)"/>
    </g>
   </g>
   <g id="text_47">
    <!-- Apratoxin -->
    <g style="opacity: 0.85" transform="translate(175.560491 197.933852) scale(0.07 -0.07)">
     <use xlink:href="#DejaVuSans-41"/>
     <use xlink:href="#DejaVuSans-70" transform="translate(68.408203 0)"/>
     <use xlink:href="#DejaVuSans-72" transform="translate(131.884766 0)"/>
     <use xlink:href="#DejaVuSans-61" transform="translate(172.998047 0)"/>
     <use xlink:href="#DejaVuSans-74" transform="translate(234.277344 0)"/>
     <use xlink:href="#DejaVuSans-6f" transform="translate(273.486328 0)"/>
     <use xlink:href="#DejaVuSans-78" transform="translate(331.542969 0)"/>
     <use xlink:href="#DejaVuSans-69" transform="translate(390.722656 0)"/>
     <use xlink:href="#DejaVuSans-6e" transform="translate(418.505859 0)"/>
    </g>
   </g>
   <g id="text_48">
    <!-- Carboplatin -->
    <g style="opacity: 0.85" transform="translate(175.560491 202.836154) scale(0.07 -0.07)">
     <use xlink:href="#DejaVuSans-43"/>
     <use xlink:href="#DejaVuSans-61" transform="translate(69.824219 0)"/>
     <use xlink:href="#DejaVuSans-72" transform="translate(131.103516 0)"/>
     <use xlink:href="#DejaVuSans-62" transform="translate(172.216797 0)"/>
     <use xlink:href="#DejaVuSans-6f" transform="translate(235.693359 0)"/>
     <use xlink:href="#DejaVuSans-70" transform="translate(296.875 0)"/>
     <use xlink:href="#DejaVuSans-6c" transform="translate(360.351562 0)"/>
     <use xlink:href="#DejaVuSans-61" transform="translate(388.134766 0)"/>
     <use xlink:href="#DejaVuSans-74" transform="translate(449.414062 0)"/>
     <use xlink:href="#DejaVuSans-69" transform="translate(488.623047 0)"/>
     <use xlink:href="#DejaVuSans-6e" transform="translate(516.40625 0)"/>
    </g>
   </g>
   <g id="text_49">
    <!-- Mln4924 -->
    <g style="opacity: 0.85" transform="translate(175.560491 203.039708) scale(0.07 -0.07)">
     <use xlink:href="#DejaVuSans-4d"/>
     <use xlink:href="#DejaVuSans-6c" transform="translate(86.279297 0)"/>
     <use xlink:href="#DejaVuSans-6e" transform="translate(114.0625 0)"/>
     <use xlink:href="#DejaVuSans-34" transform="translate(177.441406 0)"/>
     <use xlink:href="#DejaVuSans-39" transform="translate(241.064453 0)"/>
     <use xlink:href="#DejaVuSans-32" transform="translate(304.6875 0)"/>
     <use xlink:href="#DejaVuSans-34" transform="translate(368.310547 0)"/>
    </g>
   </g>
   <g id="text_50">
    <!-- Rituximab -->
    <g style="opacity: 0.85" transform="translate(175.560491 203.039268) scale(0.07 -0.07)">
     <use xlink:href="#DejaVuSans-52"/>
     <use xlink:href="#DejaVuSans-69" transform="translate(69.482422 0)"/>
     <use xlink:href="#DejaVuSans-74" transform="translate(97.265625 0)"/>
     <use xlink:href="#DejaVuSans-75" transform="translate(136.474609 0)"/>
     <use xlink:href="#DejaVuSans-78" transform="translate(199.853516 0)"/>
     <use xlink:href="#DejaVuSans-69" transform="translate(259.033203 0)"/>
     <use xlink:href="#DejaVuSans-6d" transform="translate(286.816406 0)"/>
     <use xlink:href="#DejaVuSans-61" transform="translate(384.228516 0)"/>
     <use xlink:href="#DejaVuSans-62" transform="translate(445.507812 0)"/>
    </g>
   </g>
   <g id="text_51">
    <!-- Carboplatin -->
    <g style="opacity: 0.85" transform="translate(175.560491 205.334015) scale(0.07 -0.07)">
     <use xlink:href="#DejaVuSans-43"/>
     <use xlink:href="#DejaVuSans-61" transform="translate(69.824219 0)"/>
     <use xlink:href="#DejaVuSans-72" transform="translate(131.103516 0)"/>
     <use xlink:href="#DejaVuSans-62" transform="translate(172.216797 0)"/>
     <use xlink:href="#DejaVuSans-6f" transform="translate(235.693359 0)"/>
     <use xlink:href="#DejaVuSans-70" transform="translate(296.875 0)"/>
     <use xlink:href="#DejaVuSans-6c" transform="translate(360.351562 0)"/>
     <use xlink:href="#DejaVuSans-61" transform="translate(388.134766 0)"/>
     <use xlink:href="#DejaVuSans-74" transform="translate(449.414062 0)"/>
     <use xlink:href="#DejaVuSans-69" transform="translate(488.623047 0)"/>
     <use xlink:href="#DejaVuSans-6e" transform="translate(516.40625 0)"/>
    </g>
   </g>
   <g id="text_52">
    <!-- Cisplatin -->
    <g style="opacity: 0.85" transform="translate(175.560491 148.895407) scale(0.07 -0.07)">
     <use xlink:href="#DejaVuSans-43"/>
     <use xlink:href="#DejaVuSans-69" transform="translate(69.824219 0)"/>
     <use xlink:href="#DejaVuSans-73" transform="translate(97.607422 0)"/>
     <use xlink:href="#DejaVuSans-70" transform="translate(149.707031 0)"/>
     <use xlink:href="#DejaVuSans-6c" transform="translate(213.183594 0)"/>
     <use xlink:href="#DejaVuSans-61" transform="translate(240.966797 0)"/>
     <use xlink:href="#DejaVuSans-74" transform="translate(302.246094 0)"/>
     <use xlink:href="#DejaVuSans-69" transform="translate(341.455078 0)"/>
     <use xlink:href="#DejaVuSans-6e" transform="translate(369.238281 0)"/>
    </g>
   </g>
   <g id="text_53">
    <!-- Methotrexate -->
    <g style="opacity: 0.85" transform="translate(175.560491 158.498759) scale(0.07 -0.07)">
     <use xlink:href="#DejaVuSans-4d"/>
     <use xlink:href="#DejaVuSans-65" transform="translate(86.279297 0)"/>
     <use xlink:href="#DejaVuSans-74" transform="translate(147.802734 0)"/>
     <use xlink:href="#DejaVuSans-68" transform="translate(187.011719 0)"/>
     <use xlink:href="#DejaVuSans-6f" transform="translate(250.390625 0)"/>
     <use xlink:href="#DejaVuSans-74" transform="translate(311.572266 0)"/>
     <use xlink:href="#DejaVuSans-72" transform="translate(350.78125 0)"/>
     <use xlink:href="#DejaVuSans-65" transform="translate(389.644531 0)"/>
     <use xlink:href="#DejaVuSans-78" transform="translate(449.417969 0)"/>
     <use xlink:href="#DejaVuSans-61" transform="translate(508.597656 0)"/>
     <use xlink:href="#DejaVuSans-74" transform="translate(569.876953 0)"/>
     <use xlink:href="#DejaVuSans-65" transform="translate(609.085938 0)"/>
    </g>
   </g>
   <g id="text_54">
    <!-- Quercetin -->
    <g style="opacity: 0.85" transform="translate(175.560491 216.31942) scale(0.07 -0.07)">
     <defs>
      <path id="DejaVuSans-51" d="M 2522 4238 
Q 1834 4238 1429 3725 
Q 1025 3213 1025 2328 
Q 1025 1447 1429 934 
Q 1834 422 2522 422 
Q 3209 422 3611 934 
Q 4013 1447 4013 2328 
Q 4013 3213 3611 3725 
Q 3209 4238 2522 4238 
z
M 3406 84 
L 4238 -825 
L 3475 -825 
L 2784 -78 
Q 2681 -84 2626 -87 
Q 2572 -91 2522 -91 
Q 1538 -91 948 567 
Q 359 1225 359 2328 
Q 359 3434 948 4092 
Q 1538 4750 2522 4750 
Q 3503 4750 4090 4092 
Q 4678 3434 4678 2328 
Q 4678 1516 4351 937 
Q 4025 359 3406 84 
z
" transform="scale(0.015625)"/>
     </defs>
     <use xlink:href="#DejaVuSans-51"/>
     <use xlink:href="#DejaVuSans-75" transform="translate(78.710938 0)"/>
     <use xlink:href="#DejaVuSans-65" transform="translate(142.089844 0)"/>
     <use xlink:href="#DejaVuSans-72" transform="translate(203.613281 0)"/>
     <use xlink:href="#DejaVuSans-63" transform="translate(242.476562 0)"/>
     <use xlink:href="#DejaVuSans-65" transform="translate(297.457031 0)"/>
     <use xlink:href="#DejaVuSans-74" transform="translate(358.980469 0)"/>
     <use xlink:href="#DejaVuSans-69" transform="translate(398.189453 0)"/>
     <use xlink:href="#DejaVuSans-6e" transform="translate(425.972656 0)"/>
    </g>
   </g>
   <g id="text_55">
    <!-- Laccaic -->
    <g style="opacity: 0.85" transform="translate(175.560491 218.627723) scale(0.07 -0.07)">
     <use xlink:href="#DejaVuSans-4c"/>
     <use xlink:href="#DejaVuSans-61" transform="translate(55.712891 0)"/>
     <use xlink:href="#DejaVuSans-63" transform="translate(116.992188 0)"/>
     <use xlink:href="#DejaVuSans-63" transform="translate(171.972656 0)"/>
     <use xlink:href="#DejaVuSans-61" transform="translate(226.953125 0)"/>
     <use xlink:href="#DejaVuSans-69" transform="translate(288.232422 0)"/>
     <use xlink:href="#DejaVuSans-63" transform="translate(316.015625 0)"/>
    </g>
   </g>
   <g id="text_56">
    <!-- Estradiol -->
    <g style="opacity: 0.85" transform="translate(175.560491 215.72584) scale(0.07 -0.07)">
     <use xlink:href="#DejaVuSans-45"/>
     <use xlink:href="#DejaVuSans-73" transform="translate(63.183594 0)"/>
     <use xlink:href="#DejaVuSans-74" transform="translate(115.283203 0)"/>
     <use xlink:href="#DejaVuSans-72" transform="translate(154.492188 0)"/>
     <use xlink:href="#DejaVuSans-61" transform="translate(195.605469 0)"/>
     <use xlink:href="#DejaVuSans-64" transform="translate(256.884766 0)"/>
     <use xlink:href="#DejaVuSans-69" transform="translate(320.361328 0)"/>
     <use xlink:href="#DejaVuSans-6f" transform="translate(348.144531 0)"/>
     <use xlink:href="#DejaVuSans-6c" transform="translate(409.326172 0)"/>
    </g>
   </g>
   <g id="text_57">
    <!-- Bleomycin -->
    <g style="opacity: 0.85" transform="translate(175.560491 225.297995) scale(0.07 -0.07)">
     <use xlink:href="#DejaVuSans-42"/>
     <use xlink:href="#DejaVuSans-6c" transform="translate(68.603516 0)"/>
     <use xlink:href="#DejaVuSans-65" transform="translate(96.386719 0)"/>
     <use xlink:href="#DejaVuSans-6f" transform="translate(157.910156 0)"/>
     <use xlink:href="#DejaVuSans-6d" transform="translate(219.091797 0)"/>
     <use xlink:href="#DejaVuSans-79" transform="translate(316.503906 0)"/>
     <use xlink:href="#DejaVuSans-63" transform="translate(375.683594 0)"/>
     <use xlink:href="#DejaVuSans-69" transform="translate(430.664062 0)"/>
     <use xlink:href="#DejaVuSans-6e" transform="translate(458.447266 0)"/>
    </g>
   </g>
   <g id="text_58">
    <!-- Plx4032 -->
    <g style="opacity: 0.85" transform="translate(175.560491 149.537892) scale(0.07 -0.07)">
     <use xlink:href="#DejaVuSans-50"/>
     <use xlink:href="#DejaVuSans-6c" transform="translate(60.302734 0)"/>
     <use xlink:href="#DejaVuSans-78" transform="translate(88.085938 0)"/>
     <use xlink:href="#DejaVuSans-34" transform="translate(147.265625 0)"/>
     <use xlink:href="#DejaVuSans-30" transform="translate(210.888672 0)"/>
     <use xlink:href="#DejaVuSans-33" transform="translate(274.511719 0)"/>
     <use xlink:href="#DejaVuSans-32" transform="translate(338.134766 0)"/>
    </g>
   </g>
   <g id="text_59">
    <!-- KG vs RNA-seq evidence: CREEDS breast cancer ranking -->
    <g transform="translate(121.881563 14.798437) scale(0.1 -0.1)">
     <defs>
      <path id="DejaVuSans-3a" d="M 750 794 
L 1409 794 
L 1409 0 
L 750 0 
L 750 794 
z
M 750 3309 
L 1409 3309 
L 1409 2516 
L 750 2516 
L 750 3309 
z
" transform="scale(0.015625)"/>
      <path id="DejaVuSans-53" d="M 3425 4513 
L 3425 3897 
Q 3066 4069 2747 4153 
Q 2428 4238 2131 4238 
Q 1616 4238 1336 4038 
Q 1056 3838 1056 3469 
Q 1056 3159 1242 3001 
Q 1428 2844 1947 2747 
L 2328 2669 
Q 3034 2534 3370 2195 
Q 3706 1856 3706 1288 
Q 3706 609 3251 259 
Q 2797 -91 1919 -91 
Q 1588 -91 1214 -16 
Q 841 59 441 206 
L 441 856 
Q 825 641 1194 531 
Q 1563 422 1919 422 
Q 2459 422 2753 634 
Q 3047 847 3047 1241 
Q 3047 1584 2836 1778 
Q 2625 1972 2144 2069 
L 1759 2144 
Q 1053 2284 737 2584 
Q 422 2884 422 3419 
Q 422 4038 858 4394 
Q 1294 4750 2059 4750 
Q 2388 4750 2728 4690 
Q 3069 4631 3425 4513 
z
" transform="scale(0.015625)"/>
     </defs>
     <use xlink:href="#DejaVuSans-4b"/>
     <use xlink:href="#DejaVuSans-47" transform="translate(65.576172 0)"/>
     <use xlink:href="#DejaVuSans-20" transform="translate(143.066406 0)"/>
     <use xlink:href="#DejaVuSans-76" transform="translate(174.853516 0)"/>
     <use xlink:href="#DejaVuSans-73" transform="translate(234.033203 0)"/>
     <use xlink:href="#DejaVuSans-20" transform="translate(286.132812 0)"/>
     <use xlink:href="#DejaVuSans-52" transform="translate(317.919922 0)"/>
     <use xlink:href="#DejaVuSans-4e" transform="translate(387.402344 0)"/>
     <use xlink:href="#DejaVuSans-41" transform="translate(462.207031 0)"/>
     <use xlink:href="#DejaVuSans-2d" transform="translate(528.365234 0)"/>
     <use xlink:href="#DejaVuSans-73" transform="translate(564.449219 0)"/>
     <use xlink:href="#DejaVuSans-65" transform="translate(616.548828 0)"/>
     <use xlink:href="#DejaVuSans-71" transform="translate(678.072266 0)"/>
     <use xlink:href="#DejaVuSans-20" transform="translate(741.548828 0)"/>
     <use xlink:href="#DejaVuSans-65" transform="translate(773.335938 0)"/>
     <use xlink:href="#DejaVuSans-76" transform="translate(834.859375 0)"/>
     <use xlink:href="#DejaVuSans-69" transform="translate(894.039062 0)"/>
     <use xlink:href="#DejaVuSans-64" transform="translate(921.822266 0)"/>
     <use xlink:href="#DejaVuSans-65" transform="translate(985.298828 0)"/>
     <use xlink:href="#DejaVuSans-6e" transform="translate(1046.822266 0)"/>
     <use xlink:href="#DejaVuSans-63" transform="translate(1110.201172 0)"/>
     <use xlink:href="#DejaVuSans-65" transform="translate(1165.181641 0)"/>
     <use xlink:href="#DejaVuSans-3a" transform="translate(1226.705078 0)"/>
     <use xlink:href="#DejaVuSans-20" transform="translate(1260.396484 0)"/>
     <use xlink:href="#DejaVuSans-43" transform="translate(1292.183594 0)"/>
     <use xlink:href="#DejaVuSans-52" transform="translate(1362.007812 0)"/>
     <use xlink:href="#DejaVuSans-45" transform="translate(1431.490234 0)"/>
     <use xlink:href="#DejaVuSans-45" transform="translate(1494.673828 0)"/>
     <use xlink:href="#DejaVuSans-44" transform="translate(1557.857422 0)"/>
     <use xlink:href="#DejaVuSans-53" transform="translate(1634.859375 0)"/>
     <use xlink:href="#DejaVuSans-20" transform="translate(1698.335938 0)"/>
     <use xlink:href="#DejaVuSans-62" transform="translate(1730.123047 0)"/>
     <use xlink:href="#DejaVuSans-72" transform="translate(1793.599609 0)"/>
     <use xlink:href="#DejaVuSans-65" transform="translate(1832.462891 0)"/>
     <use xlink:href="#DejaVuSans-61" transform="translate(1893.986328 0)"/>
     <use xlink:href="#DejaVuSans-73" transform="translate(1955.265625 0)"/>
     <use xlink:href="#DejaVuSans-74" transform="translate(2007.365234 0)"/>
     <use xlink:href="#DejaVuSans-20" transform="translate(2046.574219 0)"/>
     <use xlink:href="#DejaVuSans-63" transform="translate(2078.361328 0)"/>
     <use xlink:href="#DejaVuSans-61" transform="translate(2133.341797 0)"/>
     <use xlink:href="#DejaVuSans-6e" transform="translate(2194.621094 0)"/>
     <use xlink:href="#DejaVuSans-63" transform="translate(2258 0)"/>
     <use xlink:href="#DejaVuSans-65" transform="translate(2312.980469 0)"/>
     <use xlink:href="#DejaVuSans-72" transform="translate(2374.503906 0)"/>
     <use xlink:href="#DejaVuSans-20" transform="translate(2415.617188 0)"/>
     <use xlink:href="#DejaVuSans-72" transform="translate(2447.404297 0)"/>
     <use xlink:href="#DejaVuSans-61" transform="translate(2488.517578 0)"/>
     <use xlink:href="#DejaVuSans-6e" transform="translate(2549.796875 0)"/>
     <use xlink:href="#DejaVuSans-6b" transform="translate(2613.175781 0)"/>
     <use xlink:href="#DejaVuSans-69" transform="translate(2671.085938 0)"/>
     <use xlink:href="#DejaVuSans-6e" transform="translate(2698.869141 0)"/>
     <use xlink:href="#DejaVuSans-67" transform="translate(2762.248047 0)"/>
    </g>
    <!-- Spearman ρ = nan (p = nan, n = 42) -->
    <g transform="translate(170.564375 25.99625) scale(0.1 -0.1)">
     <defs>
      <path id="DejaVuSans-3c1" d="M 863 2875 
Q 1053 3194 1525 3475 
Q 1709 3584 2278 3584 
Q 2916 3584 3314 3078 
Q 3713 2572 3713 1747 
Q 3713 922 3314 415 
Q 2916 -91 2278 -91 
Q 1894 -91 1617 61 
Q 1341 213 1159 525 
L 1159 -1331 
L 581 -1331 
L 581 1716 
Q 581 2438 863 2875 
z
M 3116 1747 
Q 3116 2381 2855 2742 
Q 2594 3103 2138 3103 
Q 1681 3103 1420 2742 
Q 1159 2381 1159 1747 
Q 1159 1113 1420 752 
Q 1681 391 2138 391 
Q 2594 391 2855 752 
Q 3116 1113 3116 1747 
z
" transform="scale(0.015625)"/>
      <path id="DejaVuSans-3d" d="M 678 2906 
L 4684 2906 
L 4684 2381 
L 678 2381 
L 678 2906 
z
M 678 1631 
L 4684 1631 
L 4684 1100 
L 678 1100 
L 678 1631 
z
" transform="scale(0.015625)"/>
     </defs>
     <use xlink:href="#DejaVuSans-53"/>
     <use xlink:href="#DejaVuSans-70" transform="translate(63.476562 0)"/>
     <use xlink:href="#DejaVuSans-65" transform="translate(126.953125 0)"/>
     <use xlink:href="#DejaVuSans-61" transform="translate(188.476562 0)"/>
     <use xlink:href="#DejaVuSans-72" transform="translate(249.755859 0)"/>
     <use xlink:href="#DejaVuSans-6d" transform="translate(289.119141 0)"/>
     <use xlink:href="#DejaVuSans-61" transform="translate(386.53125 0)"/>
     <use xlink:href="#DejaVuSans-6e" transform="translate(447.810547 0)"/>
     <use xlink:href="#DejaVuSans-20" transform="translate(511.189453 0)"/>
     <use xlink:href="#DejaVuSans-3c1" transform="translate(542.976562 0)"/>
     <use xlink:href="#DejaVuSans-20" transform="translate(606.453125 0)"/>
     <use xlink:href="#DejaVuSans-3d" transform="translate(638.240234 0)"/>
     <use xlink:href="#DejaVuSans-20" transform="translate(722.029297 0)"/>
     <use xlink:href="#DejaVuSans-6e" transform="translate(753.816406 0)"/>
     <use xlink:href="#DejaVuSans-61" transform="translate(817.195312 0)"/>
     <use xlink:href="#DejaVuSans-6e" transform="translate(878.474609 0)"/>
     <use xlink:href="#DejaVuSans-20" transform="translate(941.853516 0)"/>
     <use xlink:href="#DejaVuSans-28" transform="translate(973.640625 0)"/>
     <use xlink:href="#DejaVuSans-70" transform="translate(1012.654297 0)"/>
     <use xlink:href="#DejaVuSans-20" transform="translate(1076.130859 0)"/>
     <use xlink:href="#DejaVuSans-3d" transform="translate(1107.917969 0)"/>
     <use xlink:href="#DejaVuSans-20" transform="translate(1191.707031 0)"/>
     <use xlink:href="#DejaVuSans-6e" transform="translate(1223.494141 0)"/>
     <use xlink:href="#DejaVuSans-61" transform="translate(1286.873047 0)"/>
     <use xlink:href="#DejaVuSans-6e" transform="translate(1348.152344 0)"/>
     <use xlink:href="#DejaVuSans-2c" transform="translate(1411.53125 0)"/>
     <use xlink:href="#DejaVuSans-20" transform="translate(1443.318359 0)"/>
     <use xlink:href="#DejaVuSans-6e" transform="translate(1475.105469 0)"/>
     <use xlink:href="#DejaVuSans-20" transform="translate(1538.484375 0)"/>
     <use xlink:href="#DejaVuSans-3d" transform="translate(1570.271484 0)"/>
     <use xlink:href="#DejaVuSans-20" transform="translate(1654.060547 0)"/>
     <use xlink:href="#DejaVuSans-34" transform="translate(1685.847656 0)"/>
     <use xlink:href="#DejaVuSans-32" transform="translate(1749.470703 0)"/>
     <use xlink:href="#DejaVuSans-29" transform="translate(1813.09375 0)"/>
    </g>
   </g>
   <g id="PathCollection_1">
    <defs>
     <path id="C0_0_306928a522" d="M 0 4.472136 
C 1.186024 4.472136 2.323632 4.000923 3.162278 3.162278 
C 4.000923 2.323632 4.472136 1.186024 4.472136 -0 
C 4.472136 -1.186024 4.000923 -2.323632 3.162278 -3.162278 
C 2.323632 -4.000923 1.186024 -4.472136 0 -4.472136 
C -1.186024 -4.472136 -2.323632 -4.000923 -3.162278 -3.162278 
C -4.000923 -2.323632 -4.472136 -1.186024 -4.472136 0 
C -4.472136 1.186024 -4.000923 2.323632 -3.162278 3.162278 
C -2.323632 4.000923 -1.186024 4.472136 0 4.472136 
z
"/>
    </defs>
    <g clip-path="url(#pb0fd1c2147)">
     <use xlink:href="#C0_0_306928a522" x="169.560491" y="128.345535" style="fill: #e07b00; fill-opacity: 0.8; stroke: #ffffff; stroke-opacity: 0.8; stroke-width: 0.5"/>
    </g>
    <g clip-path="url(#pb0fd1c2147)">
     <use xlink:href="#C0_0_306928a522" x="169.560491" y="131.262673" style="fill: #e07b00; fill-opacity: 0.8; stroke: #ffffff; stroke-opacity: 0.8; stroke-width: 0.5"/>
    </g>
    <g clip-path="url(#pb0fd1c2147)">
     <use xlink:href="#C0_0_306928a522" x="169.560491" y="152.917402" style="fill: #e07b00; fill-opacity: 0.8; stroke: #ffffff; stroke-opacity: 0.8; stroke-width: 0.5"/>
    </g>
    <g clip-path="url(#pb0fd1c2147)">
     <use xlink:href="#C0_0_306928a522" x="169.560491" y="153.764856" style="fill: #e07b00; fill-opacity: 0.8; stroke: #ffffff; stroke-opacity: 0.8; stroke-width: 0.5"/>
    </g>
    <g clip-path="url(#pb0fd1c2147)">
     <use xlink:href="#C0_0_306928a522" x="169.560491" y="153.642454" style="fill: #e07b00; fill-opacity: 0.8; stroke: #ffffff; stroke-opacity: 0.8; stroke-width: 0.5"/>
    </g>
    <g clip-path="url(#pb0fd1c2147)">
     <use xlink:href="#C0_0_306928a522" x="169.560491" y="158.090914" style="fill: #e07b00; fill-opacity: 0.8; stroke: #ffffff; stroke-opacity: 0.8; stroke-width: 0.5"/>
    </g>
    <g clip-path="url(#pb0fd1c2147)">
     <use xlink:href="#C0_0_306928a522" x="169.560491" y="158.749632" style="fill: #e07b00; fill-opacity: 0.8; stroke: #ffffff; stroke-opacity: 0.8; stroke-width: 0.5"/>
    </g>
    <g clip-path="url(#pb0fd1c2147)">
     <use xlink:href="#C0_0_306928a522" x="169.560491" y="159.30378" style="fill: #e07b00; fill-opacity: 0.8; stroke: #ffffff; stroke-opacity: 0.8; stroke-width: 0.5"/>
    </g>
    <g clip-path="url(#pb0fd1c2147)">
     <use xlink:href="#C0_0_306928a522" x="169.560491" y="159.428312" style="fill: #e07b00; fill-opacity: 0.8; stroke: #ffffff; stroke-opacity: 0.8; stroke-width: 0.5"/>
    </g>
    <g clip-path="url(#pb0fd1c2147)">
     <use xlink:href="#C0_0_306928a522" x="169.560491" y="159.821495" style="fill: #e07b00; fill-opacity: 0.8; stroke: #ffffff; stroke-opacity: 0.8; stroke-width: 0.5"/>
    </g>
    <g clip-path="url(#pb0fd1c2147)">
     <use xlink:href="#C0_0_306928a522" x="169.560491" y="159.624849" style="fill: #e07b00; fill-opacity: 0.8; stroke: #ffffff; stroke-opacity: 0.8; stroke-width: 0.5"/>
    </g>
    <g clip-path="url(#pb0fd1c2147)">
     <use xlink:href="#C0_0_306928a522" x="169.560491" y="153.249804" style="fill: #e07b00; fill-opacity: 0.8; stroke: #ffffff; stroke-opacity: 0.8; stroke-width: 0.5"/>
    </g>
    <g clip-path="url(#pb0fd1c2147)">
     <use xlink:href="#C0_0_306928a522" x="169.560491" y="155.863129" style="fill: #e07b00; fill-opacity: 0.8; stroke: #ffffff; stroke-opacity: 0.8; stroke-width: 0.5"/>
    </g>
    <g clip-path="url(#pb0fd1c2147)">
     <use xlink:href="#C0_0_306928a522" x="169.560491" y="161.259252" style="fill: #e07b00; fill-opacity: 0.8; stroke: #ffffff; stroke-opacity: 0.8; stroke-width: 0.5"/>
    </g>
    <g clip-path="url(#pb0fd1c2147)">
     <use xlink:href="#C0_0_306928a522" x="169.560491" y="161.602825" style="fill: #e07b00; fill-opacity: 0.8; stroke: #ffffff; stroke-opacity: 0.8; stroke-width: 0.5"/>
    </g>
    <g clip-path="url(#pb0fd1c2147)">
     <use xlink:href="#C0_0_306928a522" x="169.560491" y="162.718992" style="fill: #e07b00; fill-opacity: 0.8; stroke: #ffffff; stroke-opacity: 0.8; stroke-width: 0.5"/>
    </g>
    <g clip-path="url(#pb0fd1c2147)">
     <use xlink:href="#C0_0_306928a522" x="169.560491" y="164.577172" style="fill: #e07b00; fill-opacity: 0.8; stroke: #ffffff; stroke-opacity: 0.8; stroke-width: 0.5"/>
    </g>
    <g clip-path="url(#pb0fd1c2147)">
     <use xlink:href="#C0_0_306928a522" x="169.560491" y="164.727822" style="fill: #e07b00; fill-opacity: 0.8; stroke: #ffffff; stroke-opacity: 0.8; stroke-width: 0.5"/>
    </g>
    <g clip-path="url(#pb0fd1c2147)">
     <use xlink:href="#C0_0_306928a522" x="169.560491" y="165.979051" style="fill: #e07b00; fill-opacity: 0.8; stroke: #ffffff; stroke-opacity: 0.8; stroke-width: 0.5"/>
    </g>
    <g clip-path="url(#pb0fd1c2147)">
     <use xlink:href="#C0_0_306928a522" x="169.560491" y="170.574455" style="fill: #e07b00; fill-opacity: 0.8; stroke: #ffffff; stroke-opacity: 0.8; stroke-width: 0.5"/>
    </g>
    <g clip-path="url(#pb0fd1c2147)">
     <use xlink:href="#C0_0_306928a522" x="169.560491" y="172.559459" style="fill: #e07b00; fill-opacity: 0.8; stroke: #ffffff; stroke-opacity: 0.8; stroke-width: 0.5"/>
    </g>
    <g clip-path="url(#pb0fd1c2147)">
     <use xlink:href="#C0_0_306928a522" x="169.560491" y="155.739192" style="fill: #e07b00; fill-opacity: 0.8; stroke: #ffffff; stroke-opacity: 0.8; stroke-width: 0.5"/>
    </g>
    <g clip-path="url(#pb0fd1c2147)">
     <use xlink:href="#C0_0_306928a522" x="169.560491" y="179.762981" style="fill: #e07b00; fill-opacity: 0.8; stroke: #ffffff; stroke-opacity: 0.8; stroke-width: 0.5"/>
    </g>
    <g clip-path="url(#pb0fd1c2147)">
     <use xlink:href="#C0_0_306928a522" x="169.560491" y="184.702565" style="fill: #e07b00; fill-opacity: 0.8; stroke: #ffffff; stroke-opacity: 0.8; stroke-width: 0.5"/>
    </g>
    <g clip-path="url(#pb0fd1c2147)">
     <use xlink:href="#C0_0_306928a522" x="169.560491" y="179.177424" style="fill: #e07b00; fill-opacity: 0.8; stroke: #ffffff; stroke-opacity: 0.8; stroke-width: 0.5"/>
    </g>
    <g clip-path="url(#pb0fd1c2147)">
     <use xlink:href="#C0_0_306928a522" x="169.560491" y="188.598966" style="fill: #e07b00; fill-opacity: 0.8; stroke: #ffffff; stroke-opacity: 0.8; stroke-width: 0.5"/>
    </g>
    <g clip-path="url(#pb0fd1c2147)">
     <use xlink:href="#C0_0_306928a522" x="169.560491" y="144.583518" style="fill: #e07b00; fill-opacity: 0.8; stroke: #ffffff; stroke-opacity: 0.8; stroke-width: 0.5"/>
    </g>
    <g clip-path="url(#pb0fd1c2147)">
     <use xlink:href="#C0_0_306928a522" x="169.560491" y="160.751346" style="fill: #e07b00; fill-opacity: 0.8; stroke: #ffffff; stroke-opacity: 0.8; stroke-width: 0.5"/>
    </g>
    <g clip-path="url(#pb0fd1c2147)">
     <use xlink:href="#C0_0_306928a522" x="169.560491" y="197.452527" style="fill: #e07b00; fill-opacity: 0.8; stroke: #ffffff; stroke-opacity: 0.8; stroke-width: 0.5"/>
    </g>
    <g clip-path="url(#pb0fd1c2147)">
     <use xlink:href="#C0_0_306928a522" x="169.560491" y="200.118817" style="fill: #e07b00; fill-opacity: 0.8; stroke: #ffffff; stroke-opacity: 0.8; stroke-width: 0.5"/>
    </g>
    <g clip-path="url(#pb0fd1c2147)">
     <use xlink:href="#C0_0_306928a522" x="169.560491" y="201.933852" style="fill: #e07b00; fill-opacity: 0.8; stroke: #ffffff; stroke-opacity: 0.8; stroke-width: 0.5"/>
    </g>
    <g clip-path="url(#pb0fd1c2147)">
     <use xlink:href="#C0_0_306928a522" x="169.560491" y="206.836154" style="fill: #e07b00; fill-opacity: 0.8; stroke: #ffffff; stroke-opacity: 0.8; stroke-width: 0.5"/>
    </g>
    <g clip-path="url(#pb0fd1c2147)">
     <use xlink:href="#C0_0_306928a522" x="169.560491" y="207.039708" style="fill: #e07b00; fill-opacity: 0.8; stroke: #ffffff; stroke-opacity: 0.8; stroke-width: 0.5"/>
    </g>
    <g clip-path="url(#pb0fd1c2147)">
     <use xlink:href="#C0_0_306928a522" x="169.560491" y="207.039268" style="fill: #e07b00; fill-opacity: 0.8; stroke: #ffffff; stroke-opacity: 0.8; stroke-width: 0.5"/>
    </g>
    <g clip-path="url(#pb0fd1c2147)">
     <use xlink:href="#C0_0_306928a522" x="169.560491" y="209.334015" style="fill: #e07b00; fill-opacity: 0.8; stroke: #ffffff; stroke-opacity: 0.8; stroke-width: 0.5"/>
    </g>
    <g clip-path="url(#pb0fd1c2147)">
     <use xlink:href="#C0_0_306928a522" x="169.560491" y="152.895407" style="fill: #e07b00; fill-opacity: 0.8; stroke: #ffffff; stroke-opacity: 0.8; stroke-width: 0.5"/>
    </g>
    <g clip-path="url(#pb0fd1c2147)">
     <use xlink:href="#C0_0_306928a522" x="169.560491" y="162.498759" style="fill: #e07b00; fill-opacity: 0.8; stroke: #ffffff; stroke-opacity: 0.8; stroke-width: 0.5"/>
    </g>
    <g clip-path="url(#pb0fd1c2147)">
     <use xlink:href="#C0_0_306928a522" x="169.560491" y="220.31942" style="fill: #e07b00; fill-opacity: 0.8; stroke: #ffffff; stroke-opacity: 0.8; stroke-width: 0.5"/>
    </g>
    <g clip-path="url(#pb0fd1c2147)">
     <use xlink:href="#C0_0_306928a522" x="169.560491" y="222.627723" style="fill: #e07b00; fill-opacity: 0.8; stroke: #ffffff; stroke-opacity: 0.8; stroke-width: 0.5"/>
    </g>
    <g clip-path="url(#pb0fd1c2147)">
     <use xlink:href="#C0_0_306928a522" x="169.560491" y="219.72584" style="fill: #e07b00; fill-opacity: 0.8; stroke: #ffffff; stroke-opacity: 0.8; stroke-width: 0.5"/>
    </g>
    <g clip-path="url(#pb0fd1c2147)">
     <use xlink:href="#C0_0_306928a522" x="169.560491" y="229.297995" style="fill: #e07b00; fill-opacity: 0.8; stroke: #ffffff; stroke-opacity: 0.8; stroke-width: 0.5"/>
    </g>
    <g clip-path="url(#pb0fd1c2147)">
     <use xlink:href="#C0_0_306928a522" x="169.560491" y="153.537892" style="fill: #e07b00; fill-opacity: 0.8; stroke: #ffffff; stroke-opacity: 0.8; stroke-width: 0.5"/>
    </g>
   </g>
   <g id="legend_1">
    <g id="patch_7">
     <path d="M 372.439062 344.93225 
L 475.989062 344.93225 
Q 477.589062 344.93225 477.589062 343.33225 
L 477.589062 320.64725 
Q 477.589062 319.04725 475.989062 319.04725 
L 372.439062 319.04725 
Q 370.839062 319.04725 370.839062 320.64725 
L 370.839062 343.33225 
Q 370.839062 344.93225 372.439062 344.93225 
z
" style="fill: #ffffff; opacity: 0.8; stroke: #cccccc; stroke-linejoin: miter"/>
    </g>
    <g id="line2d_30">
     <path d="M 374.039062 325.526 
L 382.039062 325.526 
L 390.039062 325.526 
" style="fill: none; stroke: #ffffff; stroke-width: 1.5; stroke-linecap: square"/>
     <defs>
      <path id="m7308f1897a" d="M 0 4 
C 1.060812 4 2.078319 3.578535 2.828427 2.828427 
C 3.578535 2.078319 4 1.060812 4 0 
C 4 -1.060812 3.578535 -2.078319 2.828427 -2.828427 
C 2.078319 -3.578535 1.060812 -4 0 -4 
C -1.060812 -4 -2.078319 -3.578535 -2.828427 -2.828427 
C -3.578535 -2.078319 -4 -1.060812 -4 0 
C -4 1.060812 -3.578535 2.078319 -2.828427 2.828427 
C -2.078319 3.578535 -1.060812 4 0 4 
z
" style="stroke: #ffffff"/>
     </defs>
     <g>
      <use xlink:href="#m7308f1897a" x="382.039062" y="325.526" style="fill: #1f77b4; stroke: #ffffff"/>
     </g>
    </g>
    <g id="text_60">
     <!-- General candidates -->
     <g transform="translate(396.439062 328.326) scale(0.08 -0.08)">
      <use xlink:href="#DejaVuSans-47"/>
      <use xlink:href="#DejaVuSans-65" transform="translate(77.490234 0)"/>
      <use xlink:href="#DejaVuSans-6e" transform="translate(139.013672 0)"/>
      <use xlink:href="#DejaVuSans-65" transform="translate(202.392578 0)"/>
      <use xlink:href="#DejaVuSans-72" transform="translate(263.916016 0)"/>
      <use xlink:href="#DejaVuSans-61" transform="translate(305.029297 0)"/>
      <use xlink:href="#DejaVuSans-6c" transform="translate(366.308594 0)"/>
      <use xlink:href="#DejaVuSans-20" transform="translate(394.091797 0)"/>
      <use xlink:href="#DejaVuSans-63" transform="translate(425.878906 0)"/>
      <use xlink:href="#DejaVuSans-61" transform="translate(480.859375 0)"/>
      <use xlink:href="#DejaVuSans-6e" transform="translate(542.138672 0)"/>
      <use xlink:href="#DejaVuSans-64" transform="translate(605.517578 0)"/>
      <use xlink:href="#DejaVuSans-69" transform="translate(668.994141 0)"/>
      <use xlink:href="#DejaVuSans-64" transform="translate(696.777344 0)"/>
      <use xlink:href="#DejaVuSans-61" transform="translate(760.253906 0)"/>
      <use xlink:href="#DejaVuSans-74" transform="translate(821.533203 0)"/>
      <use xlink:href="#DejaVuSans-65" transform="translate(860.742188 0)"/>
      <use xlink:href="#DejaVuSans-73" transform="translate(922.265625 0)"/>
     </g>
    </g>
    <g id="line2d_31">
     <path d="M 374.039062 337.2685 
L 382.039062 337.2685 
L 390.039062 337.2685 
" style="fill: none; stroke: #ffffff; stroke-width: 1.5; stroke-linecap: square"/>
     <defs>
      <path id="ma2e06aa3b9" d="M 0 4 
C 1.060812 4 2.078319 3.578535 2.828427 2.828427 
C 3.578535 2.078319 4 1.060812 4 0 
C 4 -1.060812 3.578535 -2.078319 2.828427 -2.828427 
C 2.078319 -3.578535 1.060812 -4 0 -4 
C -1.060812 -4 -2.078319 -3.578535 -2.828427 -2.828427 
C -3.578535 -2.078319 -4 -1.060812 -4 0 
C -4 1.060812 -3.578535 2.078319 -2.828427 2.828427 
C -2.078319 3.578535 -1.060812 4 0 4 
z
" style="stroke: #ffffff"/>
     </defs>
     <g>
      <use xlink:href="#ma2e06aa3b9" x="382.039062" y="337.2685" style="fill: #e07b00; stroke: #ffffff"/>
     </g>
    </g>
    <g id="text_61">
     <!-- Breast cancer -->
     <g transform="translate(396.439062 340.0685) scale(0.08 -0.08)">
      <use xlink:href="#DejaVuSans-42"/>
      <use xlink:href="#DejaVuSans-72" transform="translate(68.603516 0)"/>
      <use xlink:href="#DejaVuSans-65" transform="translate(107.466797 0)"/>
      <use xlink:href="#DejaVuSans-61" transform="translate(168.990234 0)"/>
      <use xlink:href="#DejaVuSans-73" transform="translate(230.269531 0)"/>
      <use xlink:href="#DejaVuSans-74" transform="translate(282.369141 0)"/>
      <use xlink:href="#DejaVuSans-20" transform="translate(321.578125 0)"/>
      <use xlink:href="#DejaVuSans-63" transform="translate(353.365234 0)"/>
      <use xlink:href="#DejaVuSans-61" transform="translate(408.345703 0)"/>
      <use xlink:href="#DejaVuSans-6e" transform="translate(469.625 0)"/>
      <use xlink:href="#DejaVuSans-63" transform="translate(533.003906 0)"/>
      <use xlink:href="#DejaVuSans-65" transform="translate(587.984375 0)"/>
      <use xlink:href="#DejaVuSans-72" transform="translate(649.507812 0)"/>
     </g>
    </g>
   </g>
  </g>
 </g>
 <defs>
  <clipPath id="pb0fd1c2147">
   <rect x="44.749063" y="31.99625" width="436.84" height="316.936"/>
  </clipPath>
 </defs>
</svg>
