<?xml version="1.0" encoding="utf-8" standalone="no"?>
<!DOCTYPE svg PUBLIC "-//W3C//DTD SVG 1.1//EN"
  "http://www.w3.org/Graphics/SVG/1.1/DTD/svg11.dtd">
<svg xmlns:xlink="http://www.w3.org/1999/xlink" width="496.740625pt" height="387.456312pt" viewBox="0 0 496.740625 387.456312" xmlns="http://www.w3.org/2000/svg" version="1.1">
 <metadata>
  <rdf:RDF xmlns:dc="http://purl.org/dc/elements/1.1/" xmlns:cc="http://creativecommons.org/ns#" xmlns:rdf="http://www.w3.org/1999/02/22-rdf-syntax-ns#">
   <cc:Work>
    <dc:type rdf:resource="http://purl.org/dc/dcmitype/StillImage"/>
    <dc:date>2026-06-25T01:01:40.521225</dc:date>
    <dc:format>image/svg+xml</dc:format>
    <dc:creator>
     <cc:Agent>
      <dc:title>Matplotlib v3.10.6, https://matplotlib.org/</dc:title>
     </cc:Agent>
    </dc:creator>
   </cc:Work>
  </rdf:RDF>
 </metadata>
 <defs>
  <style type="text/css">*{stroke-linejoin: round; stroke-linecap: butt}</style>
 </defs>
 <g id="figure_1">
  <g id="patch_1">
   <path d="M 0 387.456312 
L 496.740625 387.456312 
L 496.740625 0 
L 0 0 
z
" style="fill: #ffffff"/>
  </g>
  <g id="axes_1">
   <g id="patch_2">
    <path d="M 44.749063 348.93225 
L 481.589062 348.93225 
L 481.589062 31.99625 
L 44.749063 31.99625 
z
" style="fill: #ffffff"/>
   </g>
   <g id="matplotlib.axis_1">
    <g id="xtick_1">
     <g id="line2d_1">
      <path d="M 44.749063 348.93225 
L 44.749063 31.99625 
" clip-path="url(#p88067a6cce)" style="fill: none; stroke: #b0b0b0; stroke-opacity: 0.2; stroke-width: 0.8; stroke-linecap: square"/>
     </g>
     <g id="line2d_2">
      <defs>
       <path id="m647c49c6ff" d="M 0 0 
L 0 3.5 
" style="stroke: #000000; stroke-width: 0.8"/>
      </defs>
      <g>
       <use xlink:href="#m647c49c6ff" x="44.749063" y="348.93225" style="stroke: #000000; stroke-width: 0.8"/>
      </g>
     </g>
     <g id="text_1">
      <!-- 0.3 -->
      <g transform="translate(36.7975 363.530687) scale(0.1 -0.1)">
       <defs>
        <path id="DejaVuSans-30" d="M 2034 4250 
Q 1547 4250 1301 3770 
Q 1056 3291 1056 2328 
Q 1056 1369 1301 889 
Q 1547 409 2034 409 
Q 2525 409 2770 889 
Q 3016 1369 3016 2328 
Q 3016 3291 2770 3770 
Q 2525 4250 2034 4250 
z
M 2034 4750 
Q 2819 4750 3233 4129 
Q 3647 3509 3647 2328 
Q 3647 1150 3233 529 
Q 2819 -91 2034 -91 
Q 1250 -91 836 529 
Q 422 1150 422 2328 
Q 422 3509 836 4129 
Q 1250 4750 2034 4750 
z
" transform="scale(0.015625)"/>
        <path id="DejaVuSans-2e" d="M 684 794 
L 1344 794 
L 1344 0 
L 684 0 
L 684 794 
z
" transform="scale(0.015625)"/>
        <path id="DejaVuSans-33" d="M 2597 2516 
Q 3050 2419 3304 2112 
Q 3559 1806 3559 1356 
Q 3559 666 3084 287 
Q 2609 -91 1734 -91 
Q 1441 -91 1130 -33 
Q 819 25 488 141 
L 488 750 
Q 750 597 1062 519 
Q 1375 441 1716 441 
Q 2309 441 2620 675 
Q 2931 909 2931 1356 
Q 2931 1769 2642 2001 
Q 2353 2234 1838 2234 
L 1294 2234 
L 1294 2753 
L 1863 2753 
Q 2328 2753 2575 2939 
Q 2822 3125 2822 3475 
Q 2822 3834 2567 4026 
Q 2313 4219 1838 4219 
Q 1578 4219 1281 4162 
Q 984 4106 628 3988 
L 628 4550 
Q 988 4650 1302 4700 
Q 1616 4750 1894 4750 
Q 2613 4750 3031 4423 
Q 3450 4097 3450 3541 
Q 3450 3153 3228 2886 
Q 3006 2619 2597 2516 
z
" transform="scale(0.015625)"/>
       </defs>
       <use xlink:href="#DejaVuSans-30"/>
       <use xlink:href="#DejaVuSans-2e" transform="translate(63.623047 0)"/>
       <use xlink:href="#DejaVuSans-33" transform="translate(95.410156 0)"/>
      </g>
     </g>
    </g>
    <g id="xtick_2">
     <g id="line2d_3">
      <path d="M 107.154777 348.93225 
L 107.154777 31.99625 
" clip-path="url(#p88067a6cce)" style="fill: none; stroke: #b0b0b0; stroke-opacity: 0.2; stroke-width: 0.8; stroke-linecap: square"/>
     </g>
     <g id="line2d_4">
      <g>
       <use xlink:href="#m647c49c6ff" x="107.154777" y="348.93225" style="stroke: #000000; stroke-width: 0.8"/>
      </g>
     </g>
     <g id="text_2">
      <!-- 0.4 -->
      <g transform="translate(99.203214 363.530687) scale(0.1 -0.1)">
       <defs>
        <path id="DejaVuSans-34" d="M 2419 4116 
L 825 1625 
L 2419 1625 
L 2419 4116 
z
M 2253 4666 
L 3047 4666 
L 3047 1625 
L 3713 1625 
L 3713 1100 
L 3047 1100 
L 3047 0 
L 2419 0 
L 2419 1100 
L 313 1100 
L 313 1709 
L 2253 4666 
z
" transform="scale(0.015625)"/>
       </defs>
       <use xlink:href="#DejaVuSans-30"/>
       <use xlink:href="#DejaVuSans-2e" transform="translate(63.623047 0)"/>
       <use xlink:href="#DejaVuSans-34" transform="translate(95.410156 0)"/>
      </g>
     </g>
    </g>
    <g id="xtick_3">
     <g id="line2d_5">
      <path d="M 169.560491 348.93225 
L 169.560491 31.99625 
" clip-path="url(#p88067a6cce)" style="fill: none; stroke: #b0b0b0; stroke-opacity: 0.2; stroke-width: 0.8; stroke-linecap: square"/>
     </g>
     <g id="line2d_6">
      <g>
       <use xlink:href="#m647c49c6ff" x="169.560491" y="348.93225" style="stroke: #000000; stroke-width: 0.8"/>
      </g>
     </g>
     <g id="text_3">
      <!-- 0.5 -->
      <g transform="translate(161.608929 363.530687) scale(0.1 -0.1)">
       <defs>
        <path id="DejaVuSans-35" d="M 691 4666 
L 3169 4666 
L 3169 4134 
L 1269 4134 
L 1269 2991 
Q 1406 3038 1543 3061 
Q 1681 3084 1819 3084 
Q 2600 3084 3056 2656 
Q 3513 2228 3513 1497 
Q 3513 744 3044 326 
Q 2575 -91 1722 -91 
Q 1428 -91 1123 -41 
Q 819 9 494 109 
L 494 744 
Q 775 591 1075 516 
Q 1375 441 1709 441 
Q 2250 441 2565 725 
Q 2881 1009 2881 1497 
Q 2881 1984 2565 2268 
Q 2250 2553 1709 2553 
Q 1456 2553 1204 2497 
Q 953 2441 691 2322 
L 691 4666 
z
" transform="scale(0.015625)"/>
       </defs>
       <use xlink:href="#DejaVuSans-30"/>
       <use xlink:href="#DejaVuSans-2e" transform="translate(63.623047 0)"/>
       <use xlink:href="#DejaVuSans-35" transform="translate(95.410156 0)"/>
      </g>
     </g>
    </g>
    <g id="xtick_4">
     <g id="line2d_7">
      <path d="M 231.966205 348.93225 
L 231.966205 31.99625 
" clip-path="url(#p88067a6cce)" style="fill: none; stroke: #b0b0b0; stroke-opacity: 0.2; stroke-width: 0.8; stroke-linecap: square"/>
     </g>
     <g id="line2d_8">
      <g>
       <use xlink:href="#m647c49c6ff" x="231.966205" y="348.93225" style="stroke: #000000; stroke-width: 0.8"/>
      </g>
     </g>
     <g id="text_4">
      <!-- 0.6 -->
      <g transform="translate(224.014643 363.530687) scale(0.1 -0.1)">
       <defs>
        <path id="DejaVuSans-36" d="M 2113 2584 
Q 1688 2584 1439 2293 
Q 1191 2003 1191 1497 
Q 1191 994 1439 701 
Q 1688 409 2113 409 
Q 2538 409 2786 701 
Q 3034 994 3034 1497 
Q 3034 2003 2786 2293 
Q 2538 2584 2113 2584 
z
M 3366 4563 
L 3366 3988 
Q 3128 4100 2886 4159 
Q 2644 4219 2406 4219 
Q 1781 4219 1451 3797 
Q 1122 3375 1075 2522 
Q 1259 2794 1537 2939 
Q 1816 3084 2150 3084 
Q 2853 3084 3261 2657 
Q 3669 2231 3669 1497 
Q 3669 778 3244 343 
Q 2819 -91 2113 -91 
Q 1303 -91 875 529 
Q 447 1150 447 2328 
Q 447 3434 972 4092 
Q 1497 4750 2381 4750 
Q 2619 4750 2861 4703 
Q 3103 4656 3366 4563 
z
" transform="scale(0.015625)"/>
       </defs>
       <use xlink:href="#DejaVuSans-30"/>
       <use xlink:href="#DejaVuSans-2e" transform="translate(63.623047 0)"/>
       <use xlink:href="#DejaVuSans-36" transform="translate(95.410156 0)"/>
      </g>
     </g>
    </g>
    <g id="xtick_5">
     <g id="line2d_9">
      <path d="M 294.37192 348.93225 
L 294.37192 31.99625 
" clip-path="url(#p88067a6cce)" style="fill: none; stroke: #b0b0b0; stroke-opacity: 0.2; stroke-width: 0.8; stroke-linecap: square"/>
     </g>
     <g id="line2d_10">
      <g>
       <use xlink:href="#m647c49c6ff" x="294.37192" y="348.93225" style="stroke: #000000; stroke-width: 0.8"/>
      </g>
     </g>
     <g id="text_5">
      <!-- 0.7 -->
      <g transform="translate(286.420357 363.530687) scale(0.1 -0.1)">
       <defs>
        <path id="DejaVuSans-37" d="M 525 4666 
L 3525 4666 
L 3525 4397 
L 1831 0 
L 1172 0 
L 2766 4134 
L 525 4134 
L 525 4666 
z
" transform="scale(0.015625)"/>
       </defs>
       <use xlink:href="#DejaVuSans-30"/>
       <use xlink:href="#DejaVuSans-2e" transform="translate(63.623047 0)"/>
       <use xlink:href="#DejaVuSans-37" transform="translate(95.410156 0)"/>
      </g>
     </g>
    </g>
    <g id="xtick_6">
     <g id="line2d_11">
      <path d="M 356.777634 348.93225 
L 356.777634 31.99625 
" clip-path="url(#p88067a6cce)" style="fill: none; stroke: #b0b0b0; stroke-opacity: 0.2; stroke-width: 0.8; stroke-linecap: square"/>
     </g>
     <g id="line2d_12">
      <g>
       <use xlink:href="#m647c49c6ff" x="356.777634" y="348.93225" style="stroke: #000000; stroke-width: 0.8"/>
      </g>
     </g>
     <g id="text_6">
      <!-- 0.8 -->
      <g transform="translate(348.826071 363.530687) scale(0.1 -0.1)">
       <defs>
        <path id="DejaVuSans-38" d="M 2034 2216 
Q 1584 2216 1326 1975 
Q 1069 1734 1069 1313 
Q 1069 891 1326 650 
Q 1584 409 2034 409 
Q 2484 409 2743 651 
Q 3003 894 3003 1313 
Q 3003 1734 2745 1975 
Q 2488 2216 2034 2216 
z
M 1403 2484 
Q 997 2584 770 2862 
Q 544 3141 544 3541 
Q 544 4100 942 4425 
Q 1341 4750 2034 4750 
Q 2731 4750 3128 4425 
Q 3525 4100 3525 3541 
Q 3525 3141 3298 2862 
Q 3072 2584 2669 2484 
Q 3125 2378 3379 2068 
Q 3634 1759 3634 1313 
Q 3634 634 3220 271 
Q 2806 -91 2034 -91 
Q 1263 -91 848 271 
Q 434 634 434 1313 
Q 434 1759 690 2068 
Q 947 2378 1403 2484 
z
M 1172 3481 
Q 1172 3119 1398 2916 
Q 1625 2713 2034 2713 
Q 2441 2713 2670 2916 
Q 2900 3119 2900 3481 
Q 2900 3844 2670 4047 
Q 2441 4250 2034 4250 
Q 1625 4250 1398 4047 
Q 1172 3844 1172 3481 
z
" transform="scale(0.015625)"/>
       </defs>
       <use xlink:href="#DejaVuSans-30"/>
       <use xlink:href="#DejaVuSans-2e" transform="translate(63.623047 0)"/>
       <use xlink:href="#DejaVuSans-38" transform="translate(95.410156 0)"/>
      </g>
     </g>
    </g>
    <g id="xtick_7">
     <g id="line2d_13">
      <path d="M 419.183348 348.93225 
L 419.183348 31.99625 
" clip-path="url(#p88067a6cce)" style="fill: none; stroke: #b0b0b0; stroke-opacity: 0.2; stroke-width: 0.8; stroke-linecap: square"/>
     </g>
     <g id="line2d_14">
      <g>
       <use xlink:href="#m647c49c6ff" x="419.183348" y="348.93225" style="stroke: #000000; stroke-width: 0.8"/>
      </g>
     </g>
     <g id="text_7">
      <!-- 0.9 -->
      <g transform="translate(411.231786 363.530687) scale(0.1 -0.1)">
       <defs>
        <path id="DejaVuSans-39" d="M 703 97 
L 703 672 
Q 941 559 1184 500 
Q 1428 441 1663 441 
Q 2288 441 2617 861 
Q 2947 1281 2994 2138 
Q 2813 1869 2534 1725 
Q 2256 1581 1919 1581 
Q 1219 1581 811 2004 
Q 403 2428 403 3163 
Q 403 3881 828 4315 
Q 1253 4750 1959 4750 
Q 2769 4750 3195 4129 
Q 3622 3509 3622 2328 
Q 3622 1225 3098 567 
Q 2575 -91 1691 -91 
Q 1453 -91 1209 -44 
Q 966 3 703 97 
z
M 1959 2075 
Q 2384 2075 2632 2365 
Q 2881 2656 2881 3163 
Q 2881 3666 2632 3958 
Q 2384 4250 1959 4250 
Q 1534 4250 1286 3958 
Q 1038 3666 1038 3163 
Q 1038 2656 1286 2365 
Q 1534 2075 1959 2075 
z
" transform="scale(0.015625)"/>
       </defs>
       <use xlink:href="#DejaVuSans-30"/>
       <use xlink:href="#DejaVuSans-2e" transform="translate(63.623047 0)"/>
       <use xlink:href="#DejaVuSans-39" transform="translate(95.410156 0)"/>
      </g>
     </g>
    </g>
    <g id="xtick_8">
     <g id="line2d_15">
      <path d="M 481.589062 348.93225 
L 481.589062 31.99625 
" clip-path="url(#p88067a6cce)" style="fill: none; stroke: #b0b0b0; stroke-opacity: 0.2; stroke-width: 0.8; stroke-linecap: square"/>
     </g>
     <g id="line2d_16">
      <g>
       <use xlink:href="#m647c49c6ff" x="481.589062" y="348.93225" style="stroke: #000000; stroke-width: 0.8"/>
      </g>
     </g>
     <g id="text_8">
      <!-- 1.0 -->
      <g transform="translate(473.6375 363.530687) scale(0.1 -0.1)">
       <defs>
        <path id="DejaVuSans-31" d="M 794 531 
L 1825 531 
L 1825 4091 
L 703 3866 
L 703 4441 
L 1819 4666 
L 2450 4666 
L 2450 531 
L 3481 531 
L 3481 0 
L 794 0 
L 794 531 
z
" transform="scale(0.015625)"/>
       </defs>
       <use xlink:href="#DejaVuSans-31"/>
       <use xlink:href="#DejaVuSans-2e" transform="translate(63.623047 0)"/>
       <use xlink:href="#DejaVuSans-30" transform="translate(95.410156 0)"/>
      </g>
     </g>
    </g>
    <g id="text_9">
     <!-- KG prediction score (RotatE) -->
     <g transform="translate(185.299375 377.968656) scale(0.11 -0.11)">
      <defs>
       <path id="DejaVuSans-4b" d="M 628 4666 
L 1259 4666 
L 1259 2694 
L 3353 4666 
L 4166 4666 
L 1850 2491 
L 4331 0 
L 3500 0 
L 1259 2247 
L 1259 0 
L 628 0 
L 628 4666 
z
" transform="scale(0.015625)"/>
       <path id="DejaVuSans-47" d="M 3809 666 
L 3809 1919 
L 2778 1919 
L 2778 2438 
L 4434 2438 
L 4434 434 
Q 4069 175 3628 42 
Q 3188 -91 2688 -91 
Q 1594 -91 976 548 
Q 359 1188 359 2328 
Q 359 3472 976 4111 
Q 1594 4750 2688 4750 
Q 3144 4750 3555 4637 
Q 3966 4525 4313 4306 
L 4313 3634 
Q 3963 3931 3569 4081 
Q 3175 4231 2741 4231 
Q 1884 4231 1454 3753 
Q 1025 3275 1025 2328 
Q 1025 1384 1454 906 
Q 1884 428 2741 428 
Q 3075 428 3337 486 
Q 3600 544 3809 666 
z
" transform="scale(0.015625)"/>
       <path id="DejaVuSans-20" transform="scale(0.015625)"/>
       <path id="DejaVuSans-70" d="M 1159 525 
L 1159 -1331 
L 581 -1331 
L 581 3500 
L 1159 3500 
L 1159 2969 
Q 1341 3281 1617 3432 
Q 1894 3584 2278 3584 
Q 2916 3584 3314 3078 
Q 3713 2572 3713 1747 
Q 3713 922 3314 415 
Q 2916 -91 2278 -91 
Q 1894 -91 1617 61 
Q 1341 213 1159 525 
z
M 3116 1747 
Q 3116 2381 2855 2742 
Q 2594 3103 2138 3103 
Q 1681 3103 1420 2742 
Q 1159 2381 1159 1747 
Q 1159 1113 1420 752 
Q 1681 391 2138 391 
Q 2594 391 2855 752 
Q 3116 1113 3116 1747 
z
" transform="scale(0.015625)"/>
       <path id="DejaVuSans-72" d="M 2631 2963 
Q 2534 3019 2420 3045 
Q 2306 3072 2169 3072 
Q 1681 3072 1420 2755 
Q 1159 2438 1159 1844 
L 1159 0 
L 581 0 
L 581 3500 
L 1159 3500 
L 1159 2956 
Q 1341 3275 1631 3429 
Q 1922 3584 2338 3584 
Q 2397 3584 2469 3576 
Q 2541 3569 2628 3553 
L 2631 2963 
z
" transform="scale(0.015625)"/>
       <path id="DejaVuSans-65" d="M 3597 1894 
L 3597 1613 
L 953 1613 
Q 991 1019 1311 708 
Q 1631 397 2203 397 
Q 2534 397 2845 478 
Q 3156 559 3463 722 
L 3463 178 
Q 3153 47 2828 -22 
Q 2503 -91 2169 -91 
Q 1331 -91 842 396 
Q 353 884 353 1716 
Q 353 2575 817 3079 
Q 1281 3584 2069 3584 
Q 2775 3584 3186 3129 
Q 3597 2675 3597 1894 
z
M 3022 2063 
Q 3016 2534 2758 2815 
Q 2500 3097 2075 3097 
Q 1594 3097 1305 2825 
Q 1016 2553 972 2059 
L 3022 2063 
z
" transform="scale(0.015625)"/>
       <path id="DejaVuSans-64" d="M 2906 2969 
L 2906 4863 
L 3481 4863 
L 3481 0 
L 2906 0 
L 2906 525 
Q 2725 213 2448 61 
Q 2172 -91 1784 -91 
Q 1150 -91 751 415 
Q 353 922 353 1747 
Q 353 2572 751 3078 
Q 1150 3584 1784 3584 
Q 2172 3584 2448 3432 
Q 2725 3281 2906 2969 
z
M 947 1747 
Q 947 1113 1208 752 
Q 1469 391 1925 391 
Q 2381 391 2643 752 
Q 2906 1113 2906 1747 
Q 2906 2381 2643 2742 
Q 2381 3103 1925 3103 
Q 1469 3103 1208 2742 
Q 947 2381 947 1747 
z
" transform="scale(0.015625)"/>
       <path id="DejaVuSans-69" d="M 603 3500 
L 1178 3500 
L 1178 0 
L 603 0 
L 603 3500 
z
M 603 4863 
L 1178 4863 
L 1178 4134 
L 603 4134 
L 603 4863 
z
" transform="scale(0.015625)"/>
       <path id="DejaVuSans-63" d="M 3122 3366 
L 3122 2828 
Q 2878 2963 2633 3030 
Q 2388 3097 2138 3097 
Q 1578 3097 1268 2742 
Q 959 2388 959 1747 
Q 959 1106 1268 751 
Q 1578 397 2138 397 
Q 2388 397 2633 464 
Q 2878 531 3122 666 
L 3122 134 
Q 2881 22 2623 -34 
Q 2366 -91 2075 -91 
Q 1284 -91 818 406 
Q 353 903 353 1747 
Q 353 2603 823 3093 
Q 1294 3584 2113 3584 
Q 2378 3584 2631 3529 
Q 2884 3475 3122 3366 
z
" transform="scale(0.015625)"/>
       <path id="DejaVuSans-74" d="M 1172 4494 
L 1172 3500 
L 2356 3500 
L 2356 3053 
L 1172 3053 
L 1172 1153 
Q 1172 725 1289 603 
Q 1406 481 1766 481 
L 2356 481 
L 2356 0 
L 1766 0 
Q 1100 0 847 248 
Q 594 497 594 1153 
L 594 3053 
L 172 3053 
L 172 3500 
L 594 3500 
L 594 4494 
L 1172 4494 
z
" transform="scale(0.015625)"/>
       <path id="DejaVuSans-6f" d="M 1959 3097 
Q 1497 3097 1228 2736 
Q 959 2375 959 1747 
Q 959 1119 1226 758 
Q 1494 397 1959 397 
Q 2419 397 2687 759 
Q 2956 1122 2956 1747 
Q 2956 2369 2687 2733 
Q 2419 3097 1959 3097 
z
M 1959 3584 
Q 2709 3584 3137 3096 
Q 3566 2609 3566 1747 
Q 3566 888 3137 398 
Q 2709 -91 1959 -91 
Q 1206 -91 779 398 
Q 353 888 353 1747 
Q 353 2609 779 3096 
Q 1206 3584 1959 3584 
z
" transform="scale(0.015625)"/>
       <path id="DejaVuSans-6e" d="M 3513 2113 
L 3513 0 
L 2938 0 
L 2938 2094 
Q 2938 2591 2744 2837 
Q 2550 3084 2163 3084 
Q 1697 3084 1428 2787 
Q 1159 2491 1159 1978 
L 1159 0 
L 581 0 
L 581 3500 
L 1159 3500 
L 1159 2956 
Q 1366 3272 1645 3428 
Q 1925 3584 2291 3584 
Q 2894 3584 3203 3211 
Q 3513 2838 3513 2113 
z
" transform="scale(0.015625)"/>
       <path id="DejaVuSans-73" d="M 2834 3397 
L 2834 2853 
Q 2591 2978 2328 3040 
Q 2066 3103 1784 3103 
Q 1356 3103 1142 2972 
Q 928 2841 928 2578 
Q 928 2378 1081 2264 
Q 1234 2150 1697 2047 
L 1894 2003 
Q 2506 1872 2764 1633 
Q 3022 1394 3022 966 
Q 3022 478 2636 193 
Q 2250 -91 1575 -91 
Q 1294 -91 989 -36 
Q 684 19 347 128 
L 347 722 
Q 666 556 975 473 
Q 1284 391 1588 391 
Q 1994 391 2212 530 
Q 2431 669 2431 922 
Q 2431 1156 2273 1281 
Q 2116 1406 1581 1522 
L 1381 1569 
Q 847 1681 609 1914 
Q 372 2147 372 2553 
Q 372 3047 722 3315 
Q 1072 3584 1716 3584 
Q 2034 3584 2315 3537 
Q 2597 3491 2834 3397 
z
" transform="scale(0.015625)"/>
       <path id="DejaVuSans-28" d="M 1984 4856 
Q 1566 4138 1362 3434 
Q 1159 2731 1159 2009 
Q 1159 1288 1364 580 
Q 1569 -128 1984 -844 
L 1484 -844 
Q 1016 -109 783 600 
Q 550 1309 550 2009 
Q 550 2706 781 3412 
Q 1013 4119 1484 4856 
L 1984 4856 
z
" transform="scale(0.015625)"/>
       <path id="DejaVuSans-52" d="M 2841 2188 
Q 3044 2119 3236 1894 
Q 3428 1669 3622 1275 
L 4263 0 
L 3584 0 
L 2988 1197 
Q 2756 1666 2539 1819 
Q 2322 1972 1947 1972 
L 1259 1972 
L 1259 0 
L 628 0 
L 628 4666 
L 2053 4666 
Q 2853 4666 3247 4331 
Q 3641 3997 3641 3322 
Q 3641 2881 3436 2590 
Q 3231 2300 2841 2188 
z
M 1259 4147 
L 1259 2491 
L 2053 2491 
Q 2509 2491 2742 2702 
Q 2975 2913 2975 3322 
Q 2975 3731 2742 3939 
Q 2509 4147 2053 4147 
L 1259 4147 
z
" transform="scale(0.015625)"/>
       <path id="DejaVuSans-61" d="M 2194 1759 
Q 1497 1759 1228 1600 
Q 959 1441 959 1056 
Q 959 750 1161 570 
Q 1363 391 1709 391 
Q 2188 391 2477 730 
Q 2766 1069 2766 1631 
L 2766 1759 
L 2194 1759 
z
M 3341 1997 
L 3341 0 
L 2766 0 
L 2766 531 
Q 2569 213 2275 61 
Q 1981 -91 1556 -91 
Q 1019 -91 701 211 
Q 384 513 384 1019 
Q 384 1609 779 1909 
Q 1175 2209 1959 2209 
L 2766 2209 
L 2766 2266 
Q 2766 2663 2505 2880 
Q 2244 3097 1772 3097 
Q 1472 3097 1187 3025 
Q 903 2953 641 2809 
L 641 3341 
Q 956 3463 1253 3523 
Q 1550 3584 1831 3584 
Q 2591 3584 2966 3190 
Q 3341 2797 3341 1997 
z
" transform="scale(0.015625)"/>
       <path id="DejaVuSans-45" d="M 628 4666 
L 3578 4666 
L 3578 4134 
L 1259 4134 
L 1259 2753 
L 3481 2753 
L 3481 2222 
L 1259 2222 
L 1259 531 
L 3634 531 
L 3634 0 
L 628 0 
L 628 4666 
z
" transform="scale(0.015625)"/>
       <path id="DejaVuSans-29" d="M 513 4856 
L 1013 4856 
Q 1481 4119 1714 3412 
Q 1947 2706 1947 2009 
Q 1947 1309 1714 600 
Q 1481 -109 1013 -844 
L 513 -844 
Q 928 -128 1133 580 
Q 1338 1288 1338 2009 
Q 1338 2731 1133 3434 
Q 928 4138 513 4856 
z
" transform="scale(0.015625)"/>
      </defs>
      <use xlink:href="#DejaVuSans-4b"/>
      <use xlink:href="#DejaVuSans-47" transform="translate(65.576172 0)"/>
      <use xlink:href="#DejaVuSans-20" transform="translate(143.066406 0)"/>
      <use xlink:href="#DejaVuSans-70" transform="translate(174.853516 0)"/>
      <use xlink:href="#DejaVuSans-72" transform="translate(238.330078 0)"/>
      <use xlink:href="#DejaVuSans-65" transform="translate(277.193359 0)"/>
      <use xlink:href="#DejaVuSans-64" transform="translate(338.716797 0)"/>
      <use xlink:href="#DejaVuSans-69" transform="translate(402.193359 0)"/>
      <use xlink:href="#DejaVuSans-63" transform="translate(429.976562 0)"/>
      <use xlink:href="#DejaVuSans-74" transform="translate(484.957031 0)"/>
      <use xlink:href="#DejaVuSans-69" transform="translate(524.166016 0)"/>
      <use xlink:href="#DejaVuSans-6f" transform="translate(551.949219 0)"/>
      <use xlink:href="#DejaVuSans-6e" transform="translate(613.130859 0)"/>
      <use xlink:href="#DejaVuSans-20" transform="translate(676.509766 0)"/>
      <use xlink:href="#DejaVuSans-73" transform="translate(708.296875 0)"/>
      <use xlink:href="#DejaVuSans-63" transform="translate(760.396484 0)"/>
      <use xlink:href="#DejaVuSans-6f" transform="translate(815.376953 0)"/>
      <use xlink:href="#DejaVuSans-72" transform="translate(876.558594 0)"/>
      <use xlink:href="#DejaVuSans-65" transform="translate(915.421875 0)"/>
      <use xlink:href="#DejaVuSans-20" transform="translate(976.945312 0)"/>
      <use xlink:href="#DejaVuSans-28" transform="translate(1008.732422 0)"/>
      <use xlink:href="#DejaVuSans-52" transform="translate(1047.746094 0)"/>
      <use xlink:href="#DejaVuSans-6f" transform="translate(1112.728516 0)"/>
      <use xlink:href="#DejaVuSans-74" transform="translate(1173.910156 0)"/>
      <use xlink:href="#DejaVuSans-61" transform="translate(1213.119141 0)"/>
      <use xlink:href="#DejaVuSans-74" transform="translate(1274.398438 0)"/>
      <use xlink:href="#DejaVuSans-45" transform="translate(1313.607422 0)"/>
      <use xlink:href="#DejaVuSans-29" transform="translate(1376.791016 0)"/>
     </g>
    </g>
   </g>
   <g id="matplotlib.axis_2">
    <g id="ytick_1">
     <g id="line2d_17">
      <path d="M 44.749063 348.93225 
L 481.589062 348.93225 
" clip-path="url(#p88067a6cce)" style="fill: none; stroke: #b0b0b0; stroke-opacity: 0.2; stroke-width: 0.8; stroke-linecap: square"/>
     </g>
     <g id="line2d_18">
      <defs>
       <path id="m65264d6047" d="M 0 0 
L -3.5 0 
" style="stroke: #000000; stroke-width: 0.8"/>
      </defs>
      <g>
       <use xlink:href="#m65264d6047" x="44.749063" y="348.93225" style="stroke: #000000; stroke-width: 0.8"/>
      </g>
     </g>
     <g id="text_10">
      <!-- 0.0 -->
      <g transform="translate(21.845938 352.731469) scale(0.1 -0.1)">
       <use xlink:href="#DejaVuSans-30"/>
       <use xlink:href="#DejaVuSans-2e" transform="translate(63.623047 0)"/>
       <use xlink:href="#DejaVuSans-30" transform="translate(95.410156 0)"/>
      </g>
     </g>
    </g>
    <g id="ytick_2">
     <g id="line2d_19">
      <path d="M 44.749063 285.54505 
L 481.589062 285.54505 
" clip-path="url(#p88067a6cce)" style="fill: none; stroke: #b0b0b0; stroke-opacity: 0.2; stroke-width: 0.8; stroke-linecap: square"/>
     </g>
     <g id="line2d_20">
      <g>
       <use xlink:href="#m65264d6047" x="44.749063" y="285.54505" style="stroke: #000000; stroke-width: 0.8"/>
      </g>
     </g>
     <g id="text_11">
      <!-- 0.2 -->
      <g transform="translate(21.845938 289.344269) scale(0.1 -0.1)">
       <defs>
        <path id="DejaVuSans-32" d="M 1228 531 
L 3431 531 
L 3431 0 
L 469 0 
L 469 531 
Q 828 903 1448 1529 
Q 2069 2156 2228 2338 
Q 2531 2678 2651 2914 
Q 2772 3150 2772 3378 
Q 2772 3750 2511 3984 
Q 2250 4219 1831 4219 
Q 1534 4219 1204 4116 
Q 875 4013 500 3803 
L 500 4441 
Q 881 4594 1212 4672 
Q 1544 4750 1819 4750 
Q 2544 4750 2975 4387 
Q 3406 4025 3406 3419 
Q 3406 3131 3298 2873 
Q 3191 2616 2906 2266 
Q 2828 2175 2409 1742 
Q 1991 1309 1228 531 
z
" transform="scale(0.015625)"/>
       </defs>
       <use xlink:href="#DejaVuSans-30"/>
       <use xlink:href="#DejaVuSans-2e" transform="translate(63.623047 0)"/>
       <use xlink:href="#DejaVuSans-32" transform="translate(95.410156 0)"/>
      </g>
     </g>
    </g>
    <g id="ytick_3">
     <g id="line2d_21">
      <path d="M 44.749063 222.15785 
L 481.589062 222.15785 
" clip-path="url(#p88067a6cce)" style="fill: none; stroke: #b0b0b0; stroke-opacity: 0.2; stroke-width: 0.8; stroke-linecap: square"/>
     </g>
     <g id="line2d_22">
      <g>
       <use xlink:href="#m65264d6047" x="44.749063" y="222.15785" style="stroke: #000000; stroke-width: 0.8"/>
      </g>
     </g>
     <g id="text_12">
      <!-- 0.4 -->
      <g transform="translate(21.845938 225.957069) scale(0.1 -0.1)">
       <use xlink:href="#DejaVuSans-30"/>
       <use xlink:href="#DejaVuSans-2e" transform="translate(63.623047 0)"/>
       <use xlink:href="#DejaVuSans-34" transform="translate(95.410156 0)"/>
      </g>
     </g>
    </g>
    <g id="ytick_4">
     <g id="line2d_23">
      <path d="M 44.749063 158.77065 
L 481.589062 158.77065 
" clip-path="url(#p88067a6cce)" style="fill: none; stroke: #b0b0b0; stroke-opacity: 0.2; stroke-width: 0.8; stroke-linecap: square"/>
     </g>
     <g id="line2d_24">
      <g>
       <use xlink:href="#m65264d6047" x="44.749063" y="158.77065" style="stroke: #000000; stroke-width: 0.8"/>
      </g>
     </g>
     <g id="text_13">
      <!-- 0.6 -->
      <g transform="translate(21.845938 162.569869) scale(0.1 -0.1)">
       <use xlink:href="#DejaVuSans-30"/>
       <use xlink:href="#DejaVuSans-2e" transform="translate(63.623047 0)"/>
       <use xlink:href="#DejaVuSans-36" transform="translate(95.410156 0)"/>
      </g>
     </g>
    </g>
    <g id="ytick_5">
     <g id="line2d_25">
      <path d="M 44.749063 95.38345 
L 481.589062 95.38345 
" clip-path="url(#p88067a6cce)" style="fill: none; stroke: #b0b0b0; stroke-opacity: 0.2; stroke-width: 0.8; stroke-linecap: square"/>
     </g>
     <g id="line2d_26">
      <g>
       <use xlink:href="#m65264d6047" x="44.749063" y="95.38345" style="stroke: #000000; stroke-width: 0.8"/>
      </g>
     </g>
     <g id="text_14">
      <!-- 0.8 -->
      <g transform="translate(21.845938 99.182669) scale(0.1 -0.1)">
       <use xlink:href="#DejaVuSans-30"/>
       <use xlink:href="#DejaVuSans-2e" transform="translate(63.623047 0)"/>
       <use xlink:href="#DejaVuSans-38" transform="translate(95.410156 0)"/>
      </g>
     </g>
    </g>
    <g id="ytick_6">
     <g id="line2d_27">
      <path d="M 44.749063 31.99625 
L 481.589062 31.99625 
" clip-path="url(#p88067a6cce)" style="fill: none; stroke: #b0b0b0; stroke-opacity: 0.2; stroke-width: 0.8; stroke-linecap: square"/>
     </g>
     <g id="line2d_28">
      <g>
       <use xlink:href="#m65264d6047" x="44.749063" y="31.99625" style="stroke: #000000; stroke-width: 0.8"/>
      </g>
     </g>
     <g id="text_15">
      <!-- 1.0 -->
      <g transform="translate(21.845938 35.795469) scale(0.1 -0.1)">
       <use xlink:href="#DejaVuSans-31"/>
       <use xlink:href="#DejaVuSans-2e" transform="translate(63.623047 0)"/>
       <use xlink:href="#DejaVuSans-30" transform="translate(95.410156 0)"/>
      </g>
     </g>
    </g>
    <g id="text_16">
     <!-- RNA-seq reversal score -->
     <g transform="translate(15.558281 254.222141) rotate(-90) scale(0.11 -0.11)">
      <defs>
       <path id="DejaVuSans-4e" d="M 628 4666 
L 1478 4666 
L 3547 763 
L 3547 4666 
L 4159 4666 
L 4159 0 
L 3309 0 
L 1241 3903 
L 1241 0 
L 628 0 
L 628 4666 
z
" transform="scale(0.015625)"/>
       <path id="DejaVuSans-41" d="M 2188 4044 
L 1331 1722 
L 3047 1722 
L 2188 4044 
z
M 1831 4666 
L 2547 4666 
L 4325 0 
L 3669 0 
L 3244 1197 
L 1141 1197 
L 716 0 
L 50 0 
L 1831 4666 
z
" transform="scale(0.015625)"/>
       <path id="DejaVuSans-2d" d="M 313 2009 
L 1997 2009 
L 1997 1497 
L 313 1497 
L 313 2009 
z
" transform="scale(0.015625)"/>
       <path id="DejaVuSans-71" d="M 947 1747 
Q 947 1113 1208 752 
Q 1469 391 1925 391 
Q 2381 391 2643 752 
Q 2906 1113 2906 1747 
Q 2906 2381 2643 2742 
Q 2381 3103 1925 3103 
Q 1469 3103 1208 2742 
Q 947 2381 947 1747 
z
M 2906 525 
Q 2725 213 2448 61 
Q 2172 -91 1784 -91 
Q 1150 -91 751 415 
Q 353 922 353 1747 
Q 353 2572 751 3078 
Q 1150 3584 1784 3584 
Q 2172 3584 2448 3432 
Q 2725 3281 2906 2969 
L 2906 3500 
L 3481 3500 
L 3481 -1331 
L 2906 -1331 
L 2906 525 
z
" transform="scale(0.015625)"/>
       <path id="DejaVuSans-76" d="M 191 3500 
L 800 3500 
L 1894 563 
L 2988 3500 
L 3597 3500 
L 2284 0 
L 1503 0 
L 191 3500 
z
" transform="scale(0.015625)"/>
       <path id="DejaVuSans-6c" d="M 603 4863 
L 1178 4863 
L 1178 0 
L 603 0 
L 603 4863 
z
" transform="scale(0.015625)"/>
      </defs>
      <use xlink:href="#DejaVuSans-52"/>
      <use xlink:href="#DejaVuSans-4e" transform="translate(69.482422 0)"/>
      <use xlink:href="#DejaVuSans-41" transform="translate(144.287109 0)"/>
      <use xlink:href="#DejaVuSans-2d" transform="translate(210.445312 0)"/>
      <use xlink:href="#DejaVuSans-73" transform="translate(246.529297 0)"/>
      <use xlink:href="#DejaVuSans-65" transform="translate(298.628906 0)"/>
      <use xlink:href="#DejaVuSans-71" transform="translate(360.152344 0)"/>
      <use xlink:href="#DejaVuSans-20" transform="translate(423.628906 0)"/>
      <use xlink:href="#DejaVuSans-72" transform="translate(455.416016 0)"/>
      <use xlink:href="#DejaVuSans-65" transform="translate(494.279297 0)"/>
      <use xlink:href="#DejaVuSans-76" transform="translate(555.802734 0)"/>
      <use xlink:href="#DejaVuSans-65" transform="translate(614.982422 0)"/>
      <use xlink:href="#DejaVuSans-72" transform="translate(676.505859 0)"/>
      <use xlink:href="#DejaVuSans-73" transform="translate(717.619141 0)"/>
      <use xlink:href="#DejaVuSans-61" transform="translate(769.71875 0)"/>
      <use xlink:href="#DejaVuSans-6c" transform="translate(830.998047 0)"/>
      <use xlink:href="#DejaVuSans-20" transform="translate(858.78125 0)"/>
      <use xlink:href="#DejaVuSans-73" transform="translate(890.568359 0)"/>
      <use xlink:href="#DejaVuSans-63" transform="translate(942.667969 0)"/>
      <use xlink:href="#DejaVuSans-6f" transform="translate(997.648438 0)"/>
      <use xlink:href="#DejaVuSans-72" transform="translate(1058.830078 0)"/>
      <use xlink:href="#DejaVuSans-65" transform="translate(1097.693359 0)"/>
     </g>
    </g>
   </g>
   <g id="line2d_29">
    <path d="M 289.221083 118.292231 
L 290.729121 117.82519 
L 292.237158 117.358148 
L 293.745196 116.891107 
L 295.253233 116.424066 
L 296.761271 115.957024 
L 298.269309 115.489983 
L 299.777346 115.022942 
L 301.285384 114.555901 
L 302.793422 114.088859 
L 304.301459 113.621818 
L 305.809497 113.154777 
L 307.317534 112.687735 
L 308.825572 112.220694 
L 310.33361 111.753653 
L 311.841647 111.286612 
L 313.349685 110.81957 
L 314.857723 110.352529 
L 316.36576 109.885488 
L 317.873798 109.418446 
L 319.381835 108.951405 
L 320.889873 108.484364 
L 322.397911 108.017323 
L 323.905948 107.550281 
L 325.413986 107.08324 
L 326.922023 106.616199 
L 328.430061 106.149157 
L 329.938099 105.682116 
L 331.446136 105.215075 
L 332.954174 104.748033 
L 334.462212 104.280992 
L 335.970249 103.813951 
L 337.478287 103.34691 
L 338.986324 102.879868 
L 340.494362 102.412827 
L 342.0024 101.945786 
L 343.510437 101.478744 
L 345.018475 101.011703 
L 346.526512 100.544662 
L 348.03455 100.077621 
L 349.542588 99.610579 
L 351.050625 99.143538 
L 352.558663 98.676497 
L 354.066701 98.209455 
L 355.574738 97.742414 
L 357.082776 97.275373 
L 358.590813 96.808332 
L 360.098851 96.34129 
L 361.606889 95.874249 
L 363.114926 95.407208 
L 364.622964 94.940166 
L 366.131001 94.473125 
L 367.639039 94.006084 
L 369.147077 93.539043 
L 370.655114 93.072001 
L 372.163152 92.60496 
L 373.67119 92.137919 
L 375.179227 91.670877 
L 376.687265 91.203836 
L 378.195302 90.736795 
L 379.70334 90.269753 
L 381.211378 89.802712 
L 382.719415 89.335671 
L 384.227453 88.86863 
L 385.73549 88.401588 
L 387.243528 87.934547 
L 388.751566 87.467506 
L 390.259603 87.000464 
L 391.767641 86.533423 
L 393.275679 86.066382 
L 394.783716 85.599341 
L 396.291754 85.132299 
L 397.799791 84.665258 
L 399.307829 84.198217 
L 400.815867 83.731175 
L 402.323904 83.264134 
L 403.831942 82.797093 
L 405.339979 82.330052 
L 406.848017 81.86301 
L 408.356055 81.395969 
L 409.864092 80.928928 
L 411.37213 80.461886 
L 412.880168 79.994845 
L 414.388205 79.527804 
L 415.896243 79.060763 
L 417.40428 78.593721 
L 418.912318 78.12668 
L 420.420356 77.659639 
L 421.928393 77.192597 
L 423.436431 76.725556 
L 424.944469 76.258515 
L 426.452506 75.791474 
L 427.960544 75.324432 
L 429.468581 74.857391 
L 430.976619 74.39035 
L 432.484657 73.923308 
L 433.992694 73.456267 
L 435.500732 72.989226 
L 437.008769 72.522184 
L 438.516807 72.055143 
" clip-path="url(#p88067a6cce)" style="fill: none; stroke-dasharray: 3.7,1.6; stroke-dashoffset: 0; stroke: #808080; stroke-opacity: 0.5"/>
   </g>
   <g id="patch_3">
    <path d="M 44.749063 348.93225 
L 44.749063 31.99625 
" style="fill: none; stroke: #000000; stroke-width: 0.8; stroke-linejoin: miter; stroke-linecap: square"/>
   </g>
   <g id="patch_4">
    <path d="M 481.589062 348.93225 
L 481.589062 31.99625 
" style="fill: none; stroke: #000000; stroke-width: 0.8; stroke-linejoin: miter; stroke-linecap: square"/>
   </g>
   <g id="patch_5">
    <path d="M 44.749063 348.93225 
L 481.589062 348.93225 
" style="fill: none; stroke: #000000; stroke-width: 0.8; stroke-linejoin: miter; stroke-linecap: square"/>
   </g>
   <g id="patch_6">
    <path d="M 44.749063 31.99625 
L 481.589062 31.99625 
" style="fill: none; stroke: #000000; stroke-width: 0.8; stroke-linejoin: miter; stroke-linecap: square"/>
   </g>
   <g id="text_17">
    <!-- sertraline -->
    <g style="opacity: 0.85" transform="translate(381.806674 83.495978) scale(0.07 -0.07)">
     <use xlink:href="#DejaVuSans-73"/>
     <use xlink:href="#DejaVuSans-65" transform="translate(52.099609 0)"/>
     <use xlink:href="#DejaVuSans-72" transform="translate(113.623047 0)"/>
     <use xlink:href="#DejaVuSans-74" transform="translate(154.736328 0)"/>
     <use xlink:href="#DejaVuSans-72" transform="translate(193.945312 0)"/>
     <use xlink:href="#DejaVuSans-61" transform="translate(235.058594 0)"/>
     <use xlink:href="#DejaVuSans-6c" transform="translate(296.337891 0)"/>
     <use xlink:href="#DejaVuSans-69" transform="translate(324.121094 0)"/>
     <use xlink:href="#DejaVuSans-6e" transform="translate(351.904297 0)"/>
     <use xlink:href="#DejaVuSans-65" transform="translate(415.283203 0)"/>
    </g>
   </g>
   <g id="text_18">
    <!-- aspirin -->
    <g style="opacity: 0.85" transform="translate(432.035664 62.137463) scale(0.07 -0.07)">
     <use xlink:href="#DejaVuSans-61"/>
     <use xlink:href="#DejaVuSans-73" transform="translate(61.279297 0)"/>
     <use xlink:href="#DejaVuSans-70" transform="translate(113.378906 0)"/>
     <use xlink:href="#DejaVuSans-69" transform="translate(176.855469 0)"/>
     <use xlink:href="#DejaVuSans-72" transform="translate(204.638672 0)"/>
     <use xlink:href="#DejaVuSans-69" transform="translate(245.751953 0)"/>
     <use xlink:href="#DejaVuSans-6e" transform="translate(273.535156 0)"/>
    </g>
   </g>
   <g id="text_19">
    <!-- metformin -->
    <g style="opacity: 0.85" transform="translate(385.470684 92.445553) scale(0.07 -0.07)">
     <defs>
      <path id="DejaVuSans-6d" d="M 3328 2828 
Q 3544 3216 3844 3400 
Q 4144 3584 4550 3584 
Q 5097 3584 5394 3201 
Q 5691 2819 5691 2113 
L 5691 0 
L 5113 0 
L 5113 2094 
Q 5113 2597 4934 2840 
Q 4756 3084 4391 3084 
Q 3944 3084 3684 2787 
Q 3425 2491 3425 1978 
L 3425 0 
L 2847 0 
L 2847 2094 
Q 2847 2600 2669 2842 
Q 2491 3084 2119 3084 
Q 1678 3084 1418 2786 
Q 1159 2488 1159 1978 
L 1159 0 
L 581 0 
L 581 3500 
L 1159 3500 
L 1159 2956 
Q 1356 3278 1631 3431 
Q 1906 3584 2284 3584 
Q 2666 3584 2933 3390 
Q 3200 3197 3328 2828 
z
" transform="scale(0.015625)"/>
      <path id="DejaVuSans-66" d="M 2375 4863 
L 2375 4384 
L 1825 4384 
Q 1516 4384 1395 4259 
Q 1275 4134 1275 3809 
L 1275 3500 
L 2222 3500 
L 2222 3053 
L 1275 3053 
L 1275 0 
L 697 0 
L 697 3053 
L 147 3053 
L 147 3500 
L 697 3500 
L 697 3744 
Q 697 4328 969 4595 
Q 1241 4863 1831 4863 
L 2375 4863 
z
" transform="scale(0.015625)"/>
     </defs>
     <use xlink:href="#DejaVuSans-6d"/>
     <use xlink:href="#DejaVuSans-65" transform="translate(97.412109 0)"/>
     <use xlink:href="#DejaVuSans-74" transform="translate(158.935547 0)"/>
     <use xlink:href="#DejaVuSans-66" transform="translate(198.144531 0)"/>
     <use xlink:href="#DejaVuSans-6f" transform="translate(233.349609 0)"/>
     <use xlink:href="#DejaVuSans-72" transform="translate(294.53125 0)"/>
     <use xlink:href="#DejaVuSans-6d" transform="translate(333.894531 0)"/>
     <use xlink:href="#DejaVuSans-69" transform="translate(431.306641 0)"/>
     <use xlink:href="#DejaVuSans-6e" transform="translate(459.089844 0)"/>
    </g>
   </g>
   <g id="text_20">
    <!-- tamoxifen -->
    <g style="opacity: 0.85" transform="translate(378.729781 103.024754) scale(0.07 -0.07)">
     <defs>
      <path id="DejaVuSans-78" d="M 3513 3500 
L 2247 1797 
L 3578 0 
L 2900 0 
L 1881 1375 
L 863 0 
L 184 0 
L 1544 1831 
L 300 3500 
L 978 3500 
L 1906 2253 
L 2834 3500 
L 3513 3500 
z
" transform="scale(0.015625)"/>
     </defs>
     <use xlink:href="#DejaVuSans-74"/>
     <use xlink:href="#DejaVuSans-61" transform="translate(39.208984 0)"/>
     <use xlink:href="#DejaVuSans-6d" transform="translate(100.488281 0)"/>
     <use xlink:href="#DejaVuSans-6f" transform="translate(197.900391 0)"/>
     <use xlink:href="#DejaVuSans-78" transform="translate(255.957031 0)"/>
     <use xlink:href="#DejaVuSans-69" transform="translate(315.136719 0)"/>
     <use xlink:href="#DejaVuSans-66" transform="translate(342.919922 0)"/>
     <use xlink:href="#DejaVuSans-65" transform="translate(378.125 0)"/>
     <use xlink:href="#DejaVuSans-6e" transform="translate(439.648438 0)"/>
    </g>
   </g>
   <g id="text_21">
    <!-- levothyroxin -->
    <g style="opacity: 0.85" transform="translate(307.702226 103.491464) scale(0.07 -0.07)">
     <defs>
      <path id="DejaVuSans-68" d="M 3513 2113 
L 3513 0 
L 2938 0 
L 2938 2094 
Q 2938 2591 2744 2837 
Q 2550 3084 2163 3084 
Q 1697 3084 1428 2787 
Q 1159 2491 1159 1978 
L 1159 0 
L 581 0 
L 581 4863 
L 1159 4863 
L 1159 2956 
Q 1366 3272 1645 3428 
Q 1925 3584 2291 3584 
Q 2894 3584 3203 3211 
Q 3513 2838 3513 2113 
z
" transform="scale(0.015625)"/>
      <path id="DejaVuSans-79" d="M 2059 -325 
Q 1816 -950 1584 -1140 
Q 1353 -1331 966 -1331 
L 506 -1331 
L 506 -850 
L 844 -850 
Q 1081 -850 1212 -737 
Q 1344 -625 1503 -206 
L 1606 56 
L 191 3500 
L 800 3500 
L 1894 763 
L 2988 3500 
L 3597 3500 
L 2059 -325 
z
" transform="scale(0.015625)"/>
     </defs>
     <use xlink:href="#DejaVuSans-6c"/>
     <use xlink:href="#DejaVuSans-65" transform="translate(27.783203 0)"/>
     <use xlink:href="#DejaVuSans-76" transform="translate(89.306641 0)"/>
     <use xlink:href="#DejaVuSans-6f" transform="translate(148.486328 0)"/>
     <use xlink:href="#DejaVuSans-74" transform="translate(209.667969 0)"/>
     <use xlink:href="#DejaVuSans-68" transform="translate(248.876953 0)"/>
     <use xlink:href="#DejaVuSans-79" transform="translate(312.255859 0)"/>
     <use xlink:href="#DejaVuSans-72" transform="translate(371.435547 0)"/>
     <use xlink:href="#DejaVuSans-6f" transform="translate(410.298828 0)"/>
     <use xlink:href="#DejaVuSans-78" transform="translate(468.355469 0)"/>
     <use xlink:href="#DejaVuSans-69" transform="translate(527.535156 0)"/>
     <use xlink:href="#DejaVuSans-6e" transform="translate(555.318359 0)"/>
    </g>
   </g>
   <g id="text_22">
    <!-- KG vs RNA-seq evidence: top-12 multi-modal candidates -->
    <g transform="translate(121.457344 14.798437) scale(0.1 -0.1)">
     <defs>
      <path id="DejaVuSans-3a" d="M 750 794 
L 1409 794 
L 1409 0 
L 750 0 
L 750 794 
z
M 750 3309 
L 1409 3309 
L 1409 2516 
L 750 2516 
L 750 3309 
z
" transform="scale(0.015625)"/>
      <path id="DejaVuSans-75" d="M 544 1381 
L 544 3500 
L 1119 3500 
L 1119 1403 
Q 1119 906 1312 657 
Q 1506 409 1894 409 
Q 2359 409 2629 706 
Q 2900 1003 2900 1516 
L 2900 3500 
L 3475 3500 
L 3475 0 
L 2900 0 
L 2900 538 
Q 2691 219 2414 64 
Q 2138 -91 1772 -91 
Q 1169 -91 856 284 
Q 544 659 544 1381 
z
M 1991 3584 
L 1991 3584 
z
" transform="scale(0.015625)"/>
     </defs>
     <use xlink:href="#DejaVuSans-4b"/>
     <use xlink:href="#DejaVuSans-47" transform="translate(65.576172 0)"/>
     <use xlink:href="#DejaVuSans-20" transform="translate(143.066406 0)"/>
     <use xlink:href="#DejaVuSans-76" transform="translate(174.853516 0)"/>
     <use xlink:href="#DejaVuSans-73" transform="translate(234.033203 0)"/>
     <use xlink:href="#DejaVuSans-20" transform="translate(286.132812 0)"/>
     <use xlink:href="#DejaVuSans-52" transform="translate(317.919922 0)"/>
     <use xlink:href="#DejaVuSans-4e" transform="translate(387.402344 0)"/>
     <use xlink:href="#DejaVuSans-41" transform="translate(462.207031 0)"/>
     <use xlink:href="#DejaVuSans-2d" transform="translate(528.365234 0)"/>
     <use xlink:href="#DejaVuSans-73" transform="translate(564.449219 0)"/>
     <use xlink:href="#DejaVuSans-65" transform="translate(616.548828 0)"/>
     <use xlink:href="#DejaVuSans-71" transform="translate(678.072266 0)"/>
     <use xlink:href="#DejaVuSans-20" transform="translate(741.548828 0)"/>
     <use xlink:href="#DejaVuSans-65" transform="translate(773.335938 0)"/>
     <use xlink:href="#DejaVuSans-76" transform="translate(834.859375 0)"/>
     <use xlink:href="#DejaVuSans-69" transform="translate(894.039062 0)"/>
     <use xlink:href="#DejaVuSans-64" transform="translate(921.822266 0)"/>
     <use xlink:href="#DejaVuSans-65" transform="translate(985.298828 0)"/>
     <use xlink:href="#DejaVuSans-6e" transform="translate(1046.822266 0)"/>
     <use xlink:href="#DejaVuSans-63" transform="translate(1110.201172 0)"/>
     <use xlink:href="#DejaVuSans-65" transform="translate(1165.181641 0)"/>
     <use xlink:href="#DejaVuSans-3a" transform="translate(1226.705078 0)"/>
     <use xlink:href="#DejaVuSans-20" transform="translate(1260.396484 0)"/>
     <use xlink:href="#DejaVuSans-74" transform="translate(1292.183594 0)"/>
     <use xlink:href="#DejaVuSans-6f" transform="translate(1331.392578 0)"/>
     <use xlink:href="#DejaVuSans-70" transform="translate(1392.574219 0)"/>
     <use xlink:href="#DejaVuSans-2d" transform="translate(1456.050781 0)"/>
     <use xlink:href="#DejaVuSans-31" transform="translate(1492.134766 0)"/>
     <use xlink:href="#DejaVuSans-32" transform="translate(1555.757812 0)"/>
     <use xlink:href="#DejaVuSans-20" transform="translate(1619.380859 0)"/>
     <use xlink:href="#DejaVuSans-6d" transform="translate(1651.167969 0)"/>
     <use xlink:href="#DejaVuSans-75" transform="translate(1748.580078 0)"/>
     <use xlink:href="#DejaVuSans-6c" transform="translate(1811.958984 0)"/>
     <use xlink:href="#DejaVuSans-74" transform="translate(1839.742188 0)"/>
     <use xlink:href="#DejaVuSans-69" transform="translate(1878.951172 0)"/>
     <use xlink:href="#DejaVuSans-2d" transform="translate(1906.734375 0)"/>
     <use xlink:href="#DejaVuSans-6d" transform="translate(1942.818359 0)"/>
     <use xlink:href="#DejaVuSans-6f" transform="translate(2040.230469 0)"/>
     <use xlink:href="#DejaVuSans-64" transform="translate(2101.412109 0)"/>
     <use xlink:href="#DejaVuSans-61" transform="translate(2164.888672 0)"/>
     <use xlink:href="#DejaVuSans-6c" transform="translate(2226.167969 0)"/>
     <use xlink:href="#DejaVuSans-20" transform="translate(2253.951172 0)"/>
     <use xlink:href="#DejaVuSans-63" transform="translate(2285.738281 0)"/>
     <use xlink:href="#DejaVuSans-61" transform="translate(2340.71875 0)"/>
     <use xlink:href="#DejaVuSans-6e" transform="translate(2401.998047 0)"/>
     <use xlink:href="#DejaVuSans-64" transform="translate(2465.376953 0)"/>
     <use xlink:href="#DejaVuSans-69" transform="translate(2528.853516 0)"/>
     <use xlink:href="#DejaVuSans-64" transform="translate(2556.636719 0)"/>
     <use xlink:href="#DejaVuSans-61" transform="translate(2620.113281 0)"/>
     <use xlink:href="#DejaVuSans-74" transform="translate(2681.392578 0)"/>
     <use xlink:href="#DejaVuSans-65" transform="translate(2720.601562 0)"/>
     <use xlink:href="#DejaVuSans-73" transform="translate(2782.125 0)"/>
    </g>
    <!-- Spearman ρ = 0.900 (p = 0.0374, n = 5) -->
    <g transform="translate(160.739375 25.99625) scale(0.1 -0.1)">
     <defs>
      <path id="DejaVuSans-53" d="M 3425 4513 
L 3425 3897 
Q 3066 4069 2747 4153 
Q 2428 4238 2131 4238 
Q 1616 4238 1336 4038 
Q 1056 3838 1056 3469 
Q 1056 3159 1242 3001 
Q 1428 2844 1947 2747 
L 2328 2669 
Q 3034 2534 3370 2195 
Q 3706 1856 3706 1288 
Q 3706 609 3251 259 
Q 2797 -91 1919 -91 
Q 1588 -91 1214 -16 
Q 841 59 441 206 
L 441 856 
Q 825 641 1194 531 
Q 1563 422 1919 422 
Q 2459 422 2753 634 
Q 3047 847 3047 1241 
Q 3047 1584 2836 1778 
Q 2625 1972 2144 2069 
L 1759 2144 
Q 1053 2284 737 2584 
Q 422 2884 422 3419 
Q 422 4038 858 4394 
Q 1294 4750 2059 4750 
Q 2388 4750 2728 4690 
Q 3069 4631 3425 4513 
z
" transform="scale(0.015625)"/>
      <path id="DejaVuSans-3c1" d="M 863 2875 
Q 1053 3194 1525 3475 
Q 1709 3584 2278 3584 
Q 2916 3584 3314 3078 
Q 3713 2572 3713 1747 
Q 3713 922 3314 415 
Q 2916 -91 2278 -91 
Q 1894 -91 1617 61 
Q 1341 213 1159 525 
L 1159 -1331 
L 581 -1331 
L 581 1716 
Q 581 2438 863 2875 
z
M 3116 1747 
Q 3116 2381 2855 2742 
Q 2594 3103 2138 3103 
Q 1681 3103 1420 2742 
Q 1159 2381 1159 1747 
Q 1159 1113 1420 752 
Q 1681 391 2138 391 
Q 2594 391 2855 752 
Q 3116 1113 3116 1747 
z
" transform="scale(0.015625)"/>
      <path id="DejaVuSans-3d" d="M 678 2906 
L 4684 2906 
L 4684 2381 
L 678 2381 
L 678 2906 
z
M 678 1631 
L 4684 1631 
L 4684 1100 
L 678 1100 
L 678 1631 
z
" transform="scale(0.015625)"/>
      <path id="DejaVuSans-2c" d="M 750 794 
L 1409 794 
L 1409 256 
L 897 -744 
L 494 -744 
L 750 256 
L 750 794 
z
" transform="scale(0.015625)"/>
     </defs>
     <use xlink:href="#DejaVuSans-53"/>
     <use xlink:href="#DejaVuSans-70" transform="translate(63.476562 0)"/>
     <use xlink:href="#DejaVuSans-65" transform="translate(126.953125 0)"/>
     <use xlink:href="#DejaVuSans-61" transform="translate(188.476562 0)"/>
     <use xlink:href="#DejaVuSans-72" transform="translate(249.755859 0)"/>
     <use xlink:href="#DejaVuSans-6d" transform="translate(289.119141 0)"/>
     <use xlink:href="#DejaVuSans-61" transform="translate(386.53125 0)"/>
     <use xlink:href="#DejaVuSans-6e" transform="translate(447.810547 0)"/>
     <use xlink:href="#DejaVuSans-20" transform="translate(511.189453 0)"/>
     <use xlink:href="#DejaVuSans-3c1" transform="translate(542.976562 0)"/>
     <use xlink:href="#DejaVuSans-20" transform="translate(606.453125 0)"/>
     <use xlink:href="#DejaVuSans-3d" transform="translate(638.240234 0)"/>
     <use xlink:href="#DejaVuSans-20" transform="translate(722.029297 0)"/>
     <use xlink:href="#DejaVuSans-30" transform="translate(753.816406 0)"/>
     <use xlink:href="#DejaVuSans-2e" transform="translate(817.439453 0)"/>
     <use xlink:href="#DejaVuSans-39" transform="translate(849.226562 0)"/>
     <use xlink:href="#DejaVuSans-30" transform="translate(912.849609 0)"/>
     <use xlink:href="#DejaVuSans-30" transform="translate(976.472656 0)"/>
     <use xlink:href="#DejaVuSans-20" transform="translate(1040.095703 0)"/>
     <use xlink:href="#DejaVuSans-28" transform="translate(1071.882812 0)"/>
     <use xlink:href="#DejaVuSans-70" transform="translate(1110.896484 0)"/>
     <use xlink:href="#DejaVuSans-20" transform="translate(1174.373047 0)"/>
     <use xlink:href="#DejaVuSans-3d" transform="translate(1206.160156 0)"/>
     <use xlink:href="#DejaVuSans-20" transform="translate(1289.949219 0)"/>
     <use xlink:href="#DejaVuSans-30" transform="translate(1321.736328 0)"/>
     <use xlink:href="#DejaVuSans-2e" transform="translate(1385.359375 0)"/>
     <use xlink:href="#DejaVuSans-30" transform="translate(1417.146484 0)"/>
     <use xlink:href="#DejaVuSans-33" transform="translate(1480.769531 0)"/>
     <use xlink:href="#DejaVuSans-37" transform="translate(1544.392578 0)"/>
     <use xlink:href="#DejaVuSans-34" transform="translate(1608.015625 0)"/>
     <use xlink:href="#DejaVuSans-2c" transform="translate(1671.638672 0)"/>
     <use xlink:href="#DejaVuSans-20" transform="translate(1703.425781 0)"/>
     <use xlink:href="#DejaVuSans-6e" transform="translate(1735.212891 0)"/>
     <use xlink:href="#DejaVuSans-20" transform="translate(1798.591797 0)"/>
     <use xlink:href="#DejaVuSans-3d" transform="translate(1830.378906 0)"/>
     <use xlink:href="#DejaVuSans-20" transform="translate(1914.167969 0)"/>
     <use xlink:href="#DejaVuSans-35" transform="translate(1945.955078 0)"/>
     <use xlink:href="#DejaVuSans-29" transform="translate(2009.578125 0)"/>
    </g>
   </g>
   <g id="PathCollection_1">
    <defs>
     <path id="C0_0_10c6d44db1" d="M 0 4.472136 
C 1.186024 4.472136 2.323632 4.000923 3.162278 3.162278 
C 4.000923 2.323632 4.472136 1.186024 4.472136 -0 
C 4.472136 -1.186024 4.000923 -2.323632 3.162278 -3.162278 
C 2.323632 -4.000923 1.186024 -4.472136 0 -4.472136 
C -1.186024 -4.472136 -2.323632 -4.000923 -3.162278 -3.162278 
C -4.000923 -2.323632 -4.472136 -1.186024 -4.472136 0 
C -4.472136 1.186024 -4.000923 2.323632 -3.162278 3.162278 
C -2.323632 4.000923 -1.186024 4.472136 0 4.472136 
z
"/>
    </defs>
    <g clip-path="url(#p88067a6cce)">
     <use xlink:href="#C0_0_10c6d44db1" x="375.806674" y="87.495978" style="fill: #1f77b4; fill-opacity: 0.8; stroke: #ffffff; stroke-opacity: 0.8; stroke-width: 0.5"/>
    </g>
    <g clip-path="url(#p88067a6cce)">
     <use xlink:href="#C0_0_10c6d44db1" x="426.035664" y="66.137463" style="fill: #1f77b4; fill-opacity: 0.8; stroke: #ffffff; stroke-opacity: 0.8; stroke-width: 0.5"/>
    </g>
    <g clip-path="url(#p88067a6cce)">
     <use xlink:href="#C0_0_10c6d44db1" x="379.470684" y="96.445553" style="fill: #1f77b4; fill-opacity: 0.8; stroke: #ffffff; stroke-opacity: 0.8; stroke-width: 0.5"/>
    </g>
    <g clip-path="url(#p88067a6cce)">
     <use xlink:href="#C0_0_10c6d44db1" x="372.729781" y="107.024754" style="fill: #e07b00; fill-opacity: 0.8; stroke: #ffffff; stroke-opacity: 0.8; stroke-width: 0.5"/>
    </g>
    <g clip-path="url(#p88067a6cce)">
     <use xlink:href="#C0_0_10c6d44db1" x="301.702226" y="107.491464" style="fill: #1f77b4; fill-opacity: 0.8; stroke: #ffffff; stroke-opacity: 0.8; stroke-width: 0.5"/>
    </g>
   </g>
   <g id="legend_1">
    <g id="patch_7">
     <path d="M 372.439062 344.93225 
L 475.989062 344.93225 
Q 477.589062 344.93225 477.589062 343.33225 
L 477.589062 320.64725 
Q 477.589062 319.04725 475.989062 319.04725 
L 372.439062 319.04725 
Q 370.839062 319.04725 370.839062 320.64725 
L 370.839062 343.33225 
Q 370.839062 344.93225 372.439062 344.93225 
z
" style="fill: #ffffff; opacity: 0.8; stroke: #cccccc; stroke-linejoin: miter"/>
    </g>
    <g id="line2d_30">
     <path d="M 374.039062 325.526 
L 382.039062 325.526 
L 390.039062 325.526 
" style="fill: none; stroke: #ffffff; stroke-width: 1.5; stroke-linecap: square"/>
     <defs>
      <path id="mc8516ddf46" d="M 0 4 
C 1.060812 4 2.078319 3.578535 2.828427 2.828427 
C 3.578535 2.078319 4 1.060812 4 0 
C 4 -1.060812 3.578535 -2.078319 2.828427 -2.828427 
C 2.078319 -3.578535 1.060812 -4 0 -4 
C -1.060812 -4 -2.078319 -3.578535 -2.828427 -2.828427 
C -3.578535 -2.078319 -4 -1.060812 -4 0 
C -4 1.060812 -3.578535 2.078319 -2.828427 2.828427 
C -2.078319 3.578535 -1.060812 4 0 4 
z
" style="stroke: #ffffff"/>
     </defs>
     <g>
      <use xlink:href="#mc8516ddf46" x="382.039062" y="325.526" style="fill: #1f77b4; stroke: #ffffff"/>
     </g>
    </g>
    <g id="text_23">
     <!-- General candidates -->
     <g transform="translate(396.439062 328.326) scale(0.08 -0.08)">
      <use xlink:href="#DejaVuSans-47"/>
      <use xlink:href="#DejaVuSans-65" transform="translate(77.490234 0)"/>
      <use xlink:href="#DejaVuSans-6e" transform="translate(139.013672 0)"/>
      <use xlink:href="#DejaVuSans-65" transform="translate(202.392578 0)"/>
      <use xlink:href="#DejaVuSans-72" transform="translate(263.916016 0)"/>
      <use xlink:href="#DejaVuSans-61" transform="translate(305.029297 0)"/>
      <use xlink:href="#DejaVuSans-6c" transform="translate(366.308594 0)"/>
      <use xlink:href="#DejaVuSans-20" transform="translate(394.091797 0)"/>
      <use xlink:href="#DejaVuSans-63" transform="translate(425.878906 0)"/>
      <use xlink:href="#DejaVuSans-61" transform="translate(480.859375 0)"/>
      <use xlink:href="#DejaVuSans-6e" transform="translate(542.138672 0)"/>
      <use xlink:href="#DejaVuSans-64" transform="translate(605.517578 0)"/>
      <use xlink:href="#DejaVuSans-69" transform="translate(668.994141 0)"/>
      <use xlink:href="#DejaVuSans-64" transform="translate(696.777344 0)"/>
      <use xlink:href="#DejaVuSans-61" transform="translate(760.253906 0)"/>
      <use xlink:href="#DejaVuSans-74" transform="translate(821.533203 0)"/>
      <use xlink:href="#DejaVuSans-65" transform="translate(860.742188 0)"/>
      <use xlink:href="#DejaVuSans-73" transform="translate(922.265625 0)"/>
     </g>
    </g>
    <g id="line2d_31">
     <path d="M 374.039062 337.2685 
L 382.039062 337.2685 
L 390.039062 337.2685 
" style="fill: none; stroke: #ffffff; stroke-width: 1.5; stroke-linecap: square"/>
     <defs>
      <path id="m517de04155" d="M 0 4 
C 1.060812 4 2.078319 3.578535 2.828427 2.828427 
C 3.578535 2.078319 4 1.060812 4 0 
C 4 -1.060812 3.578535 -2.078319 2.828427 -2.828427 
C 2.078319 -3.578535 1.060812 -4 0 -4 
C -1.060812 -4 -2.078319 -3.578535 -2.828427 -2.828427 
C -3.578535 -2.078319 -4 -1.060812 -4 0 
C -4 1.060812 -3.578535 2.078319 -2.828427 2.828427 
C -2.078319 3.578535 -1.060812 4 0 4 
z
" style="stroke: #ffffff"/>
     </defs>
     <g>
      <use xlink:href="#m517de04155" x="382.039062" y="337.2685" style="fill: #e07b00; stroke: #ffffff"/>
     </g>
    </g>
    <g id="text_24">
     <!-- Breast cancer -->
     <g transform="translate(396.439062 340.0685) scale(0.08 -0.08)">
      <defs>
       <path id="DejaVuSans-42" d="M 1259 2228 
L 1259 519 
L 2272 519 
Q 2781 519 3026 730 
Q 3272 941 3272 1375 
Q 3272 1813 3026 2020 
Q 2781 2228 2272 2228 
L 1259 2228 
z
M 1259 4147 
L 1259 2741 
L 2194 2741 
Q 2656 2741 2882 2914 
Q 3109 3088 3109 3444 
Q 3109 3797 2882 3972 
Q 2656 4147 2194 4147 
L 1259 4147 
z
M 628 4666 
L 2241 4666 
Q 2963 4666 3353 4366 
Q 3744 4066 3744 3513 
Q 3744 3084 3544 2831 
Q 3344 2578 2956 2516 
Q 3422 2416 3680 2098 
Q 3938 1781 3938 1306 
Q 3938 681 3513 340 
Q 3088 0 2303 0 
L 628 0 
L 628 4666 
z
" transform="scale(0.015625)"/>
      </defs>
      <use xlink:href="#DejaVuSans-42"/>
      <use xlink:href="#DejaVuSans-72" transform="translate(68.603516 0)"/>
      <use xlink:href="#DejaVuSans-65" transform="translate(107.466797 0)"/>
      <use xlink:href="#DejaVuSans-61" transform="translate(168.990234 0)"/>
      <use xlink:href="#DejaVuSans-73" transform="translate(230.269531 0)"/>
      <use xlink:href="#DejaVuSans-74" transform="translate(282.369141 0)"/>
      <use xlink:href="#DejaVuSans-20" transform="translate(321.578125 0)"/>
      <use xlink:href="#DejaVuSans-63" transform="translate(353.365234 0)"/>
      <use xlink:href="#DejaVuSans-61" transform="translate(408.345703 0)"/>
      <use xlink:href="#DejaVuSans-6e" transform="translate(469.625 0)"/>
      <use xlink:href="#DejaVuSans-63" transform="translate(533.003906 0)"/>
      <use xlink:href="#DejaVuSans-65" transform="translate(587.984375 0)"/>
      <use xlink:href="#DejaVuSans-72" transform="translate(649.507812 0)"/>
     </g>
    </g>
   </g>
  </g>
 </g>
 <defs>
  <clipPath id="p88067a6cce">
   <rect x="44.749063" y="31.99625" width="436.84" height="316.936"/>
  </clipPath>
 </defs>
</svg>
