<?xml version="1.0" encoding="utf-8" standalone="no"?>
<!DOCTYPE svg PUBLIC "-//W3C//DTD SVG 1.1//EN"
  "http://www.w3.org/Graphics/SVG/1.1/DTD/svg11.dtd">
<svg xmlns:xlink="http://www.w3.org/1999/xlink" width="492.331567pt" height="388.157734pt" viewBox="0 0 492.331567 388.157734" xmlns="http://www.w3.org/2000/svg" version="1.1">
 <metadata>
  <rdf:RDF xmlns:dc="http://purl.org/dc/elements/1.1/" xmlns:cc="http://creativecommons.org/ns#" xmlns:rdf="http://www.w3.org/1999/02/22-rdf-syntax-ns#">
   <cc:Work>
    <dc:type rdf:resource="http://purl.org/dc/dcmitype/StillImage"/>
    <dc:date>2026-06-29T12:24:28.595135</dc:date>
    <dc:format>image/svg+xml</dc:format>
    <dc:creator>
     <cc:Agent>
      <dc:title>Matplotlib v3.11.0, https://matplotlib.org/</dc:title>
     </cc:Agent>
    </dc:creator>
   </cc:Work>
  </rdf:RDF>
 </metadata>
 <defs>
  <style type="text/css">*{stroke-linejoin: round; stroke-linecap: butt}</style>
 </defs>
 <g id="figure_1">
  <g id="patch_1">
   <path d="M 0 388.157734 
L 492.331567 388.157734 
L 492.331567 0 
L 0 0 
z
" style="fill: #ffffff"/>
  </g>
  <g id="axes_1">
   <g id="patch_2">
    <path d="M 45.103984 348.956875 
L 477.180004 348.956875 
L 477.180004 33.802148 
L 45.103984 33.802148 
z
" style="fill: #ffffff"/>
   </g>
   <g id="PathCollection_1">
    <defs>
     <path id="m10eb4cd5f8" d="M 0 4.472136 
C 1.186024 4.472136 2.323632 4.000923 3.162278 3.162278 
C 4.000923 2.323632 4.472136 1.186024 4.472136 0 
C 4.472136 -1.186024 4.000923 -2.323632 3.162278 -3.162278 
C 2.323632 -4.000923 1.186024 -4.472136 0 -4.472136 
C -1.186024 -4.472136 -2.323632 -4.000923 -3.162278 -3.162278 
C -4.000923 -2.323632 -4.472136 -1.186024 -4.472136 0 
C -4.472136 1.186024 -4.000923 2.323632 -3.162278 3.162278 
C -2.323632 4.000923 -1.186024 4.472136 0 4.472136 
z
" style="stroke: #ffffff; stroke-opacity: 0.85; stroke-width: 0.5"/>
    </defs>
    <g clip-path="url(#p1d02e623c6)">
     <use xlink:href="#m10eb4cd5f8" x="433.976805" y="163.685187" style="fill: #e07b00; fill-opacity: 0.85; stroke: #ffffff; stroke-opacity: 0.85; stroke-width: 0.5"/>
     <use xlink:href="#m10eb4cd5f8" x="401.710991" y="167.294925" style="fill: #e07b00; fill-opacity: 0.85; stroke: #ffffff; stroke-opacity: 0.85; stroke-width: 0.5"/>
     <use xlink:href="#m10eb4cd5f8" x="395.560644" y="201.166681" style="fill: #e07b00; fill-opacity: 0.85; stroke: #ffffff; stroke-opacity: 0.85; stroke-width: 0.5"/>
     <use xlink:href="#m10eb4cd5f8" x="393.964834" y="211.910805" style="fill: #e07b00; fill-opacity: 0.85; stroke: #ffffff; stroke-opacity: 0.85; stroke-width: 0.5"/>
    </g>
   </g>
   <g id="matplotlib.axis_1">
    <g id="xtick_1">
     <g id="line2d_1">
      <path d="M 45.103984 348.956875 
L 45.103984 33.802148 
" clip-path="url(#p1d02e623c6)" style="fill: none; stroke: #b0b0b0; stroke-opacity: 0.2; stroke-width: 0.8; stroke-linecap: square"/>
     </g>
     <g id="line2d_2">
      <defs>
       <path id="mcef646af1f" d="M 0 0 
L 0 3.5 
" style="stroke: #000000; stroke-width: 0.8"/>
      </defs>
      <g>
       <use xlink:href="#mcef646af1f" x="45.103984" y="348.956875" style="stroke: #000000; stroke-width: 0.8"/>
      </g>
     </g>
     <g id="text_1">
      <!-- 0.0 -->
      <g transform="translate(37.152422 363.554531) scale(0.1 -0.1)">
       <defs>
        <path id="DejaVuSans-13" d="M 2034 4250 
Q 1547 4250 1301 3770 
Q 1056 3291 1056 2328 
Q 1056 1369 1301 889 
Q 1547 409 2034 409 
Q 2525 409 2770 889 
Q 3016 1369 3016 2328 
Q 3016 3291 2770 3770 
Q 2525 4250 2034 4250 
z
M 2034 4750 
Q 2819 4750 3233 4129 
Q 3647 3509 3647 2328 
Q 3647 1150 3233 529 
Q 2819 -91 2034 -91 
Q 1250 -91 836 529 
Q 422 1150 422 2328 
Q 422 3509 836 4129 
Q 1250 4750 2034 4750 
z
" transform="scale(0.015625)"/>
        <path id="DejaVuSans-11" d="M 684 794 
L 1344 794 
L 1344 0 
L 684 0 
L 684 794 
z
" transform="scale(0.015625)"/>
       </defs>
       <use xlink:href="#DejaVuSans-13"/>
       <use xlink:href="#DejaVuSans-11" transform="translate(63.625 0)"/>
       <use xlink:href="#DejaVuSans-13" transform="translate(95.40625 0)"/>
      </g>
     </g>
    </g>
    <g id="xtick_2">
     <g id="line2d_3">
      <path d="M 131.519188 348.956875 
L 131.519188 33.802148 
" clip-path="url(#p1d02e623c6)" style="fill: none; stroke: #b0b0b0; stroke-opacity: 0.2; stroke-width: 0.8; stroke-linecap: square"/>
     </g>
     <g id="line2d_4">
      <g>
       <use xlink:href="#mcef646af1f" x="131.519188" y="348.956875" style="stroke: #000000; stroke-width: 0.8"/>
      </g>
     </g>
     <g id="text_2">
      <!-- 0.2 -->
      <g transform="translate(123.567626 363.554531) scale(0.1 -0.1)">
       <defs>
        <path id="DejaVuSans-15" d="M 1228 531 
L 3431 531 
L 3431 0 
L 469 0 
L 469 531 
Q 828 903 1448 1529 
Q 2069 2156 2228 2338 
Q 2531 2678 2651 2914 
Q 2772 3150 2772 3378 
Q 2772 3750 2511 3984 
Q 2250 4219 1831 4219 
Q 1534 4219 1204 4116 
Q 875 4013 500 3803 
L 500 4441 
Q 881 4594 1212 4672 
Q 1544 4750 1819 4750 
Q 2544 4750 2975 4387 
Q 3406 4025 3406 3419 
Q 3406 3131 3298 2873 
Q 3191 2616 2906 2266 
Q 2828 2175 2409 1742 
Q 1991 1309 1228 531 
z
" transform="scale(0.015625)"/>
       </defs>
       <use xlink:href="#DejaVuSans-13"/>
       <use xlink:href="#DejaVuSans-11" transform="translate(63.625 0)"/>
       <use xlink:href="#DejaVuSans-15" transform="translate(95.40625 0)"/>
      </g>
     </g>
    </g>
    <g id="xtick_3">
     <g id="line2d_5">
      <path d="M 217.934392 348.956875 
L 217.934392 33.802148 
" clip-path="url(#p1d02e623c6)" style="fill: none; stroke: #b0b0b0; stroke-opacity: 0.2; stroke-width: 0.8; stroke-linecap: square"/>
     </g>
     <g id="line2d_6">
      <g>
       <use xlink:href="#mcef646af1f" x="217.934392" y="348.956875" style="stroke: #000000; stroke-width: 0.8"/>
      </g>
     </g>
     <g id="text_3">
      <!-- 0.4 -->
      <g transform="translate(209.98283 363.554531) scale(0.1 -0.1)">
       <defs>
        <path id="DejaVuSans-17" d="M 2419 4116 
L 825 1625 
L 2419 1625 
L 2419 4116 
z
M 2253 4666 
L 3047 4666 
L 3047 1625 
L 3713 1625 
L 3713 1100 
L 3047 1100 
L 3047 0 
L 2419 0 
L 2419 1100 
L 313 1100 
L 313 1709 
L 2253 4666 
z
" transform="scale(0.015625)"/>
       </defs>
       <use xlink:href="#DejaVuSans-13"/>
       <use xlink:href="#DejaVuSans-11" transform="translate(63.625 0)"/>
       <use xlink:href="#DejaVuSans-17" transform="translate(95.40625 0)"/>
      </g>
     </g>
    </g>
    <g id="xtick_4">
     <g id="line2d_7">
      <path d="M 304.349596 348.956875 
L 304.349596 33.802148 
" clip-path="url(#p1d02e623c6)" style="fill: none; stroke: #b0b0b0; stroke-opacity: 0.2; stroke-width: 0.8; stroke-linecap: square"/>
     </g>
     <g id="line2d_8">
      <g>
       <use xlink:href="#mcef646af1f" x="304.349596" y="348.956875" style="stroke: #000000; stroke-width: 0.8"/>
      </g>
     </g>
     <g id="text_4">
      <!-- 0.6 -->
      <g transform="translate(296.398034 363.554531) scale(0.1 -0.1)">
       <defs>
        <path id="DejaVuSans-19" d="M 2113 2584 
Q 1688 2584 1439 2293 
Q 1191 2003 1191 1497 
Q 1191 994 1439 701 
Q 1688 409 2113 409 
Q 2538 409 2786 701 
Q 3034 994 3034 1497 
Q 3034 2003 2786 2293 
Q 2538 2584 2113 2584 
z
M 3366 4563 
L 3366 3988 
Q 3128 4100 2886 4159 
Q 2644 4219 2406 4219 
Q 1781 4219 1451 3797 
Q 1122 3375 1075 2522 
Q 1259 2794 1537 2939 
Q 1816 3084 2150 3084 
Q 2853 3084 3261 2657 
Q 3669 2231 3669 1497 
Q 3669 778 3244 343 
Q 2819 -91 2113 -91 
Q 1303 -91 875 529 
Q 447 1150 447 2328 
Q 447 3434 972 4092 
Q 1497 4750 2381 4750 
Q 2619 4750 2861 4703 
Q 3103 4656 3366 4563 
z
" transform="scale(0.015625)"/>
       </defs>
       <use xlink:href="#DejaVuSans-13"/>
       <use xlink:href="#DejaVuSans-11" transform="translate(63.625 0)"/>
       <use xlink:href="#DejaVuSans-19" transform="translate(95.40625 0)"/>
      </g>
     </g>
    </g>
    <g id="xtick_5">
     <g id="line2d_9">
      <path d="M 390.7648 348.956875 
L 390.7648 33.802148 
" clip-path="url(#p1d02e623c6)" style="fill: none; stroke: #b0b0b0; stroke-opacity: 0.2; stroke-width: 0.8; stroke-linecap: square"/>
     </g>
     <g id="line2d_10">
      <g>
       <use xlink:href="#mcef646af1f" x="390.7648" y="348.956875" style="stroke: #000000; stroke-width: 0.8"/>
      </g>
     </g>
     <g id="text_5">
      <!-- 0.8 -->
      <g transform="translate(382.813238 363.554531) scale(0.1 -0.1)">
       <defs>
        <path id="DejaVuSans-1b" d="M 2034 2216 
Q 1584 2216 1326 1975 
Q 1069 1734 1069 1313 
Q 1069 891 1326 650 
Q 1584 409 2034 409 
Q 2484 409 2743 651 
Q 3003 894 3003 1313 
Q 3003 1734 2745 1975 
Q 2488 2216 2034 2216 
z
M 1403 2484 
Q 997 2584 770 2862 
Q 544 3141 544 3541 
Q 544 4100 942 4425 
Q 1341 4750 2034 4750 
Q 2731 4750 3128 4425 
Q 3525 4100 3525 3541 
Q 3525 3141 3298 2862 
Q 3072 2584 2669 2484 
Q 3125 2378 3379 2068 
Q 3634 1759 3634 1313 
Q 3634 634 3220 271 
Q 2806 -91 2034 -91 
Q 1263 -91 848 271 
Q 434 634 434 1313 
Q 434 1759 690 2068 
Q 947 2378 1403 2484 
z
M 1172 3481 
Q 1172 3119 1398 2916 
Q 1625 2713 2034 2713 
Q 2441 2713 2670 2916 
Q 2900 3119 2900 3481 
Q 2900 3844 2670 4047 
Q 2441 4250 2034 4250 
Q 1625 4250 1398 4047 
Q 1172 3844 1172 3481 
z
" transform="scale(0.015625)"/>
       </defs>
       <use xlink:href="#DejaVuSans-13"/>
       <use xlink:href="#DejaVuSans-11" transform="translate(63.625 0)"/>
       <use xlink:href="#DejaVuSans-1b" transform="translate(95.40625 0)"/>
      </g>
     </g>
    </g>
    <g id="xtick_6">
     <g id="line2d_11">
      <path d="M 477.180004 348.956875 
L 477.180004 33.802148 
" clip-path="url(#p1d02e623c6)" style="fill: none; stroke: #b0b0b0; stroke-opacity: 0.2; stroke-width: 0.8; stroke-linecap: square"/>
     </g>
     <g id="line2d_12">
      <g>
       <use xlink:href="#mcef646af1f" x="477.180004" y="348.956875" style="stroke: #000000; stroke-width: 0.8"/>
      </g>
     </g>
     <g id="text_6">
      <!-- 1.0 -->
      <g transform="translate(469.228442 363.554531) scale(0.1 -0.1)">
       <defs>
        <path id="DejaVuSans-14" d="M 794 531 
L 1825 531 
L 1825 4091 
L 703 3866 
L 703 4441 
L 1819 4666 
L 2450 4666 
L 2450 531 
L 3481 531 
L 3481 0 
L 794 0 
L 794 531 
z
" transform="scale(0.015625)"/>
       </defs>
       <use xlink:href="#DejaVuSans-14"/>
       <use xlink:href="#DejaVuSans-11" transform="translate(63.625 0)"/>
       <use xlink:href="#DejaVuSans-13" transform="translate(95.40625 0)"/>
      </g>
     </g>
    </g>
    <g id="text_7">
     <!-- KG prediction score (RotatE) -->
     <g transform="translate(183.266291 378.315156) scale(0.11 -0.11)">
      <defs>
       <path id="DejaVuSans-2e" d="M 628 4666 
L 1259 4666 
L 1259 2694 
L 3353 4666 
L 4166 4666 
L 1850 2491 
L 4331 0 
L 3500 0 
L 1259 2247 
L 1259 0 
L 628 0 
L 628 4666 
z
" transform="scale(0.015625)"/>
       <path id="DejaVuSans-2a" d="M 3809 666 
L 3809 1919 
L 2778 1919 
L 2778 2438 
L 4434 2438 
L 4434 434 
Q 4069 175 3628 42 
Q 3188 -91 2688 -91 
Q 1594 -91 976 548 
Q 359 1188 359 2328 
Q 359 3472 976 4111 
Q 1594 4750 2688 4750 
Q 3144 4750 3555 4637 
Q 3966 4525 4313 4306 
L 4313 3634 
Q 3963 3931 3569 4081 
Q 3175 4231 2741 4231 
Q 1884 4231 1454 3753 
Q 1025 3275 1025 2328 
Q 1025 1384 1454 906 
Q 1884 428 2741 428 
Q 3075 428 3337 486 
Q 3600 544 3809 666 
z
" transform="scale(0.015625)"/>
       <path id="DejaVuSans-3" transform="scale(0.015625)"/>
       <path id="DejaVuSans-53" d="M 1159 525 
L 1159 -1331 
L 581 -1331 
L 581 3500 
L 1159 3500 
L 1159 2969 
Q 1341 3281 1617 3432 
Q 1894 3584 2278 3584 
Q 2916 3584 3314 3078 
Q 3713 2572 3713 1747 
Q 3713 922 3314 415 
Q 2916 -91 2278 -91 
Q 1894 -91 1617 61 
Q 1341 213 1159 525 
z
M 3116 1747 
Q 3116 2381 2855 2742 
Q 2594 3103 2138 3103 
Q 1681 3103 1420 2742 
Q 1159 2381 1159 1747 
Q 1159 1113 1420 752 
Q 1681 391 2138 391 
Q 2594 391 2855 752 
Q 3116 1113 3116 1747 
z
" transform="scale(0.015625)"/>
       <path id="DejaVuSans-55" d="M 2631 2963 
Q 2534 3019 2420 3045 
Q 2306 3072 2169 3072 
Q 1681 3072 1420 2755 
Q 1159 2438 1159 1844 
L 1159 0 
L 581 0 
L 581 3500 
L 1159 3500 
L 1159 2956 
Q 1341 3275 1631 3429 
Q 1922 3584 2338 3584 
Q 2397 3584 2469 3576 
Q 2541 3569 2628 3553 
L 2631 2963 
z
" transform="scale(0.015625)"/>
       <path id="DejaVuSans-48" d="M 3597 1894 
L 3597 1613 
L 953 1613 
Q 991 1019 1311 708 
Q 1631 397 2203 397 
Q 2534 397 2845 478 
Q 3156 559 3463 722 
L 3463 178 
Q 3153 47 2828 -22 
Q 2503 -91 2169 -91 
Q 1331 -91 842 396 
Q 353 884 353 1716 
Q 353 2575 817 3079 
Q 1281 3584 2069 3584 
Q 2775 3584 3186 3129 
Q 3597 2675 3597 1894 
z
M 3022 2063 
Q 3016 2534 2758 2815 
Q 2500 3097 2075 3097 
Q 1594 3097 1305 2825 
Q 1016 2553 972 2059 
L 3022 2063 
z
" transform="scale(0.015625)"/>
       <path id="DejaVuSans-47" d="M 2906 2969 
L 2906 4863 
L 3481 4863 
L 3481 0 
L 2906 0 
L 2906 525 
Q 2725 213 2448 61 
Q 2172 -91 1784 -91 
Q 1150 -91 751 415 
Q 353 922 353 1747 
Q 353 2572 751 3078 
Q 1150 3584 1784 3584 
Q 2172 3584 2448 3432 
Q 2725 3281 2906 2969 
z
M 947 1747 
Q 947 1113 1208 752 
Q 1469 391 1925 391 
Q 2381 391 2643 752 
Q 2906 1113 2906 1747 
Q 2906 2381 2643 2742 
Q 2381 3103 1925 3103 
Q 1469 3103 1208 2742 
Q 947 2381 947 1747 
z
" transform="scale(0.015625)"/>
       <path id="DejaVuSans-4c" d="M 603 3500 
L 1178 3500 
L 1178 0 
L 603 0 
L 603 3500 
z
M 603 4863 
L 1178 4863 
L 1178 4134 
L 603 4134 
L 603 4863 
z
" transform="scale(0.015625)"/>
       <path id="DejaVuSans-46" d="M 3122 3366 
L 3122 2828 
Q 2878 2963 2633 3030 
Q 2388 3097 2138 3097 
Q 1578 3097 1268 2742 
Q 959 2388 959 1747 
Q 959 1106 1268 751 
Q 1578 397 2138 397 
Q 2388 397 2633 464 
Q 2878 531 3122 666 
L 3122 134 
Q 2881 22 2623 -34 
Q 2366 -91 2075 -91 
Q 1284 -91 818 406 
Q 353 903 353 1747 
Q 353 2603 823 3093 
Q 1294 3584 2113 3584 
Q 2378 3584 2631 3529 
Q 2884 3475 3122 3366 
z
" transform="scale(0.015625)"/>
       <path id="DejaVuSans-57" d="M 1172 4494 
L 1172 3500 
L 2356 3500 
L 2356 3053 
L 1172 3053 
L 1172 1153 
Q 1172 725 1289 603 
Q 1406 481 1766 481 
L 2356 481 
L 2356 0 
L 1766 0 
Q 1100 0 847 248 
Q 594 497 594 1153 
L 594 3053 
L 172 3053 
L 172 3500 
L 594 3500 
L 594 4494 
L 1172 4494 
z
" transform="scale(0.015625)"/>
       <path id="DejaVuSans-52" d="M 1959 3097 
Q 1497 3097 1228 2736 
Q 959 2375 959 1747 
Q 959 1119 1226 758 
Q 1494 397 1959 397 
Q 2419 397 2687 759 
Q 2956 1122 2956 1747 
Q 2956 2369 2687 2733 
Q 2419 3097 1959 3097 
z
M 1959 3584 
Q 2709 3584 3137 3096 
Q 3566 2609 3566 1747 
Q 3566 888 3137 398 
Q 2709 -91 1959 -91 
Q 1206 -91 779 398 
Q 353 888 353 1747 
Q 353 2609 779 3096 
Q 1206 3584 1959 3584 
z
" transform="scale(0.015625)"/>
       <path id="DejaVuSans-51" d="M 3513 2113 
L 3513 0 
L 2938 0 
L 2938 2094 
Q 2938 2591 2744 2837 
Q 2550 3084 2163 3084 
Q 1697 3084 1428 2787 
Q 1159 2491 1159 1978 
L 1159 0 
L 581 0 
L 581 3500 
L 1159 3500 
L 1159 2956 
Q 1366 3272 1645 3428 
Q 1925 3584 2291 3584 
Q 2894 3584 3203 3211 
Q 3513 2838 3513 2113 
z
" transform="scale(0.015625)"/>
       <path id="DejaVuSans-56" d="M 2834 3397 
L 2834 2853 
Q 2591 2978 2328 3040 
Q 2066 3103 1784 3103 
Q 1356 3103 1142 2972 
Q 928 2841 928 2578 
Q 928 2378 1081 2264 
Q 1234 2150 1697 2047 
L 1894 2003 
Q 2506 1872 2764 1633 
Q 3022 1394 3022 966 
Q 3022 478 2636 193 
Q 2250 -91 1575 -91 
Q 1294 -91 989 -36 
Q 684 19 347 128 
L 347 722 
Q 666 556 975 473 
Q 1284 391 1588 391 
Q 1994 391 2212 530 
Q 2431 669 2431 922 
Q 2431 1156 2273 1281 
Q 2116 1406 1581 1522 
L 1381 1569 
Q 847 1681 609 1914 
Q 372 2147 372 2553 
Q 372 3047 722 3315 
Q 1072 3584 1716 3584 
Q 2034 3584 2315 3537 
Q 2597 3491 2834 3397 
z
" transform="scale(0.015625)"/>
       <path id="DejaVuSans-b" d="M 1984 4856 
Q 1566 4138 1362 3434 
Q 1159 2731 1159 2009 
Q 1159 1288 1364 580 
Q 1569 -128 1984 -844 
L 1484 -844 
Q 1016 -109 783 600 
Q 550 1309 550 2009 
Q 550 2706 781 3412 
Q 1013 4119 1484 4856 
L 1984 4856 
z
" transform="scale(0.015625)"/>
       <path id="DejaVuSans-35" d="M 2841 2188 
Q 3044 2119 3236 1894 
Q 3428 1669 3622 1275 
L 4263 0 
L 3584 0 
L 2988 1197 
Q 2756 1666 2539 1819 
Q 2322 1972 1947 1972 
L 1259 1972 
L 1259 0 
L 628 0 
L 628 4666 
L 2053 4666 
Q 2853 4666 3247 4331 
Q 3641 3997 3641 3322 
Q 3641 2881 3436 2590 
Q 3231 2300 2841 2188 
z
M 1259 4147 
L 1259 2491 
L 2053 2491 
Q 2509 2491 2742 2702 
Q 2975 2913 2975 3322 
Q 2975 3731 2742 3939 
Q 2509 4147 2053 4147 
L 1259 4147 
z
" transform="scale(0.015625)"/>
       <path id="DejaVuSans-44" d="M 2194 1759 
Q 1497 1759 1228 1600 
Q 959 1441 959 1056 
Q 959 750 1161 570 
Q 1363 391 1709 391 
Q 2188 391 2477 730 
Q 2766 1069 2766 1631 
L 2766 1759 
L 2194 1759 
z
M 3341 1997 
L 3341 0 
L 2766 0 
L 2766 531 
Q 2569 213 2275 61 
Q 1981 -91 1556 -91 
Q 1019 -91 701 211 
Q 384 513 384 1019 
Q 384 1609 779 1909 
Q 1175 2209 1959 2209 
L 2766 2209 
L 2766 2266 
Q 2766 2663 2505 2880 
Q 2244 3097 1772 3097 
Q 1472 3097 1187 3025 
Q 903 2953 641 2809 
L 641 3341 
Q 956 3463 1253 3523 
Q 1550 3584 1831 3584 
Q 2591 3584 2966 3190 
Q 3341 2797 3341 1997 
z
" transform="scale(0.015625)"/>
       <path id="DejaVuSans-28" d="M 628 4666 
L 3578 4666 
L 3578 4134 
L 1259 4134 
L 1259 2753 
L 3481 2753 
L 3481 2222 
L 1259 2222 
L 1259 531 
L 3634 531 
L 3634 0 
L 628 0 
L 628 4666 
z
" transform="scale(0.015625)"/>
       <path id="DejaVuSans-c" d="M 513 4856 
L 1013 4856 
Q 1481 4119 1714 3412 
Q 1947 2706 1947 2009 
Q 1947 1309 1714 600 
Q 1481 -109 1013 -844 
L 513 -844 
Q 928 -128 1133 580 
Q 1338 1288 1338 2009 
Q 1338 2731 1133 3434 
Q 928 4138 513 4856 
z
" transform="scale(0.015625)"/>
      </defs>
      <use xlink:href="#DejaVuSans-2e"/>
      <use xlink:href="#DejaVuSans-2a" transform="translate(65.578125 0)"/>
      <use xlink:href="#DejaVuSans-3" transform="translate(143.0625 0)"/>
      <use xlink:href="#DejaVuSans-53" transform="translate(174.84375 0)"/>
      <use xlink:href="#DejaVuSans-55" transform="translate(238.328125 0)"/>
      <use xlink:href="#DejaVuSans-48" transform="translate(277.234375 0)"/>
      <use xlink:href="#DejaVuSans-47" transform="translate(338.765625 0)"/>
      <use xlink:href="#DejaVuSans-4c" transform="translate(402.25 0)"/>
      <use xlink:href="#DejaVuSans-46" transform="translate(430.03125 0)"/>
      <use xlink:href="#DejaVuSans-57" transform="translate(485.015625 0)"/>
      <use xlink:href="#DejaVuSans-4c" transform="translate(524.21875 0)"/>
      <use xlink:href="#DejaVuSans-52" transform="translate(552 0)"/>
      <use xlink:href="#DejaVuSans-51" transform="translate(613.1875 0)"/>
      <use xlink:href="#DejaVuSans-3" transform="translate(676.5625 0)"/>
      <use xlink:href="#DejaVuSans-56" transform="translate(708.34375 0)"/>
      <use xlink:href="#DejaVuSans-46" transform="translate(760.4375 0)"/>
      <use xlink:href="#DejaVuSans-52" transform="translate(815.421875 0)"/>
      <use xlink:href="#DejaVuSans-55" transform="translate(876.609375 0)"/>
      <use xlink:href="#DejaVuSans-48" transform="translate(915.515625 0)"/>
      <use xlink:href="#DejaVuSans-3" transform="translate(977.046875 0)"/>
      <use xlink:href="#DejaVuSans-b" transform="translate(1008.828125 0)"/>
      <use xlink:href="#DejaVuSans-35" transform="translate(1047.84375 0)"/>
      <use xlink:href="#DejaVuSans-52" transform="translate(1112.84375 0)"/>
      <use xlink:href="#DejaVuSans-57" transform="translate(1174.03125 0)"/>
      <use xlink:href="#DejaVuSans-44" transform="translate(1213.234375 0)"/>
      <use xlink:href="#DejaVuSans-57" transform="translate(1274.515625 0)"/>
      <use xlink:href="#DejaVuSans-28" transform="translate(1313.71875 0)"/>
      <use xlink:href="#DejaVuSans-c" transform="translate(1376.90625 0)"/>
     </g>
    </g>
   </g>
   <g id="matplotlib.axis_2">
    <g id="ytick_1">
     <g id="line2d_13">
      <path d="M 45.103984 348.956875 
L 477.180004 348.956875 
" clip-path="url(#p1d02e623c6)" style="fill: none; stroke: #b0b0b0; stroke-opacity: 0.2; stroke-width: 0.8; stroke-linecap: square"/>
     </g>
     <g id="line2d_14">
      <defs>
       <path id="m9798e179ae" d="M 0 0 
L -3.5 0 
" style="stroke: #000000; stroke-width: 0.8"/>
      </defs>
      <g>
       <use xlink:href="#m9798e179ae" x="45.103984" y="348.956875" style="stroke: #000000; stroke-width: 0.8"/>
      </g>
     </g>
     <g id="text_8">
      <!-- 0.0 -->
      <g transform="translate(22.200859 352.755703) scale(0.1 -0.1)">
       <use xlink:href="#DejaVuSans-13"/>
       <use xlink:href="#DejaVuSans-11" transform="translate(63.625 0)"/>
       <use xlink:href="#DejaVuSans-13" transform="translate(95.40625 0)"/>
      </g>
     </g>
    </g>
    <g id="ytick_2">
     <g id="line2d_15">
      <path d="M 45.103984 285.92593 
L 477.180004 285.92593 
" clip-path="url(#p1d02e623c6)" style="fill: none; stroke: #b0b0b0; stroke-opacity: 0.2; stroke-width: 0.8; stroke-linecap: square"/>
     </g>
     <g id="line2d_16">
      <g>
       <use xlink:href="#m9798e179ae" x="45.103984" y="285.92593" style="stroke: #000000; stroke-width: 0.8"/>
      </g>
     </g>
     <g id="text_9">
      <!-- 0.2 -->
      <g transform="translate(22.200859 289.724758) scale(0.1 -0.1)">
       <use xlink:href="#DejaVuSans-13"/>
       <use xlink:href="#DejaVuSans-11" transform="translate(63.625 0)"/>
       <use xlink:href="#DejaVuSans-15" transform="translate(95.40625 0)"/>
      </g>
     </g>
    </g>
    <g id="ytick_3">
     <g id="line2d_17">
      <path d="M 45.103984 222.894984 
L 477.180004 222.894984 
" clip-path="url(#p1d02e623c6)" style="fill: none; stroke: #b0b0b0; stroke-opacity: 0.2; stroke-width: 0.8; stroke-linecap: square"/>
     </g>
     <g id="line2d_18">
      <g>
       <use xlink:href="#m9798e179ae" x="45.103984" y="222.894984" style="stroke: #000000; stroke-width: 0.8"/>
      </g>
     </g>
     <g id="text_10">
      <!-- 0.4 -->
      <g transform="translate(22.200859 226.693812) scale(0.1 -0.1)">
       <use xlink:href="#DejaVuSans-13"/>
       <use xlink:href="#DejaVuSans-11" transform="translate(63.625 0)"/>
       <use xlink:href="#DejaVuSans-17" transform="translate(95.40625 0)"/>
      </g>
     </g>
    </g>
    <g id="ytick_4">
     <g id="line2d_19">
      <path d="M 45.103984 159.864039 
L 477.180004 159.864039 
" clip-path="url(#p1d02e623c6)" style="fill: none; stroke: #b0b0b0; stroke-opacity: 0.2; stroke-width: 0.8; stroke-linecap: square"/>
     </g>
     <g id="line2d_20">
      <g>
       <use xlink:href="#m9798e179ae" x="45.103984" y="159.864039" style="stroke: #000000; stroke-width: 0.8"/>
      </g>
     </g>
     <g id="text_11">
      <!-- 0.6 -->
      <g transform="translate(22.200859 163.662867) scale(0.1 -0.1)">
       <use xlink:href="#DejaVuSans-13"/>
       <use xlink:href="#DejaVuSans-11" transform="translate(63.625 0)"/>
       <use xlink:href="#DejaVuSans-19" transform="translate(95.40625 0)"/>
      </g>
     </g>
    </g>
    <g id="ytick_5">
     <g id="line2d_21">
      <path d="M 45.103984 96.833094 
L 477.180004 96.833094 
" clip-path="url(#p1d02e623c6)" style="fill: none; stroke: #b0b0b0; stroke-opacity: 0.2; stroke-width: 0.8; stroke-linecap: square"/>
     </g>
     <g id="line2d_22">
      <g>
       <use xlink:href="#m9798e179ae" x="45.103984" y="96.833094" style="stroke: #000000; stroke-width: 0.8"/>
      </g>
     </g>
     <g id="text_12">
      <!-- 0.8 -->
      <g transform="translate(22.200859 100.631922) scale(0.1 -0.1)">
       <use xlink:href="#DejaVuSans-13"/>
       <use xlink:href="#DejaVuSans-11" transform="translate(63.625 0)"/>
       <use xlink:href="#DejaVuSans-1b" transform="translate(95.40625 0)"/>
      </g>
     </g>
    </g>
    <g id="ytick_6">
     <g id="line2d_23">
      <path d="M 45.103984 33.802148 
L 477.180004 33.802148 
" clip-path="url(#p1d02e623c6)" style="fill: none; stroke: #b0b0b0; stroke-opacity: 0.2; stroke-width: 0.8; stroke-linecap: square"/>
     </g>
     <g id="line2d_24">
      <g>
       <use xlink:href="#m9798e179ae" x="45.103984" y="33.802148" style="stroke: #000000; stroke-width: 0.8"/>
      </g>
     </g>
     <g id="text_13">
      <!-- 1.0 -->
      <g transform="translate(22.200859 37.600977) scale(0.1 -0.1)">
       <use xlink:href="#DejaVuSans-14"/>
       <use xlink:href="#DejaVuSans-11" transform="translate(63.625 0)"/>
       <use xlink:href="#DejaVuSans-13" transform="translate(95.40625 0)"/>
      </g>
     </g>
    </g>
    <g id="text_14">
     <!-- CREEDS reversal score (cosine) -->
     <g transform="translate(15.558281 277.873887) rotate(-90) scale(0.11 -0.11)">
      <defs>
       <path id="DejaVuSans-26" d="M 4122 4306 
L 4122 3641 
Q 3803 3938 3442 4084 
Q 3081 4231 2675 4231 
Q 1875 4231 1450 3742 
Q 1025 3253 1025 2328 
Q 1025 1406 1450 917 
Q 1875 428 2675 428 
Q 3081 428 3442 575 
Q 3803 722 4122 1019 
L 4122 359 
Q 3791 134 3420 21 
Q 3050 -91 2638 -91 
Q 1578 -91 968 557 
Q 359 1206 359 2328 
Q 359 3453 968 4101 
Q 1578 4750 2638 4750 
Q 3056 4750 3426 4639 
Q 3797 4528 4122 4306 
z
" transform="scale(0.015625)"/>
       <path id="DejaVuSans-27" d="M 1259 4147 
L 1259 519 
L 2022 519 
Q 2988 519 3436 956 
Q 3884 1394 3884 2338 
Q 3884 3275 3436 3711 
Q 2988 4147 2022 4147 
L 1259 4147 
z
M 628 4666 
L 1925 4666 
Q 3281 4666 3915 4102 
Q 4550 3538 4550 2338 
Q 4550 1131 3912 565 
Q 3275 0 1925 0 
L 628 0 
L 628 4666 
z
" transform="scale(0.015625)"/>
       <path id="DejaVuSans-36" d="M 3425 4513 
L 3425 3897 
Q 3066 4069 2747 4153 
Q 2428 4238 2131 4238 
Q 1616 4238 1336 4038 
Q 1056 3838 1056 3469 
Q 1056 3159 1242 3001 
Q 1428 2844 1947 2747 
L 2328 2669 
Q 3034 2534 3370 2195 
Q 3706 1856 3706 1288 
Q 3706 609 3251 259 
Q 2797 -91 1919 -91 
Q 1588 -91 1214 -16 
Q 841 59 441 206 
L 441 856 
Q 825 641 1194 531 
Q 1563 422 1919 422 
Q 2459 422 2753 634 
Q 3047 847 3047 1241 
Q 3047 1584 2836 1778 
Q 2625 1972 2144 2069 
L 1759 2144 
Q 1053 2284 737 2584 
Q 422 2884 422 3419 
Q 422 4038 858 4394 
Q 1294 4750 2059 4750 
Q 2388 4750 2728 4690 
Q 3069 4631 3425 4513 
z
" transform="scale(0.015625)"/>
       <path id="DejaVuSans-59" d="M 191 3500 
L 800 3500 
L 1894 563 
L 2988 3500 
L 3597 3500 
L 2284 0 
L 1503 0 
L 191 3500 
z
" transform="scale(0.015625)"/>
       <path id="DejaVuSans-4f" d="M 603 4863 
L 1178 4863 
L 1178 0 
L 603 0 
L 603 4863 
z
" transform="scale(0.015625)"/>
      </defs>
      <use xlink:href="#DejaVuSans-26"/>
      <use xlink:href="#DejaVuSans-35" transform="translate(69.828125 0)"/>
      <use xlink:href="#DejaVuSans-28" transform="translate(139.3125 0)"/>
      <use xlink:href="#DejaVuSans-28" transform="translate(202.5 0)"/>
      <use xlink:href="#DejaVuSans-27" transform="translate(265.6875 0)"/>
      <use xlink:href="#DejaVuSans-36" transform="translate(342.6875 0)"/>
      <use xlink:href="#DejaVuSans-3" transform="translate(406.171875 0)"/>
      <use xlink:href="#DejaVuSans-55" transform="translate(437.953125 0)"/>
      <use xlink:href="#DejaVuSans-48" transform="translate(476.859375 0)"/>
      <use xlink:href="#DejaVuSans-59" transform="translate(538.390625 0)"/>
      <use xlink:href="#DejaVuSans-48" transform="translate(597.578125 0)"/>
      <use xlink:href="#DejaVuSans-55" transform="translate(659.109375 0)"/>
      <use xlink:href="#DejaVuSans-56" transform="translate(700.21875 0)"/>
      <use xlink:href="#DejaVuSans-44" transform="translate(752.3125 0)"/>
      <use xlink:href="#DejaVuSans-4f" transform="translate(813.59375 0)"/>
      <use xlink:href="#DejaVuSans-3" transform="translate(841.375 0)"/>
      <use xlink:href="#DejaVuSans-56" transform="translate(873.15625 0)"/>
      <use xlink:href="#DejaVuSans-46" transform="translate(925.25 0)"/>
      <use xlink:href="#DejaVuSans-52" transform="translate(980.234375 0)"/>
      <use xlink:href="#DejaVuSans-55" transform="translate(1041.421875 0)"/>
      <use xlink:href="#DejaVuSans-48" transform="translate(1080.328125 0)"/>
      <use xlink:href="#DejaVuSans-3" transform="translate(1141.859375 0)"/>
      <use xlink:href="#DejaVuSans-b" transform="translate(1173.640625 0)"/>
      <use xlink:href="#DejaVuSans-46" transform="translate(1212.65625 0)"/>
      <use xlink:href="#DejaVuSans-52" transform="translate(1267.640625 0)"/>
      <use xlink:href="#DejaVuSans-56" transform="translate(1328.828125 0)"/>
      <use xlink:href="#DejaVuSans-4c" transform="translate(1380.921875 0)"/>
      <use xlink:href="#DejaVuSans-51" transform="translate(1408.703125 0)"/>
      <use xlink:href="#DejaVuSans-48" transform="translate(1472.078125 0)"/>
      <use xlink:href="#DejaVuSans-c" transform="translate(1533.609375 0)"/>
     </g>
    </g>
   </g>
   <g id="line2d_25">
    <path d="M 385.323314 206.192749 
L 385.902052 205.636126 
L 386.480789 205.079502 
L 387.059526 204.522878 
L 387.638264 203.966255 
L 388.217001 203.409631 
L 388.795739 202.853007 
L 389.374476 202.296384 
L 389.953214 201.73976 
L 390.531951 201.183136 
L 391.110689 200.626513 
L 391.689426 200.069889 
L 392.268164 199.513265 
L 392.846901 198.956641 
L 393.425639 198.400018 
L 394.004376 197.843394 
L 394.583114 197.28677 
L 395.161851 196.730147 
L 395.740589 196.173523 
L 396.319326 195.616899 
L 396.898064 195.060276 
L 397.476801 194.503652 
L 398.055539 193.947028 
L 398.634276 193.390404 
L 399.213014 192.833781 
L 399.791751 192.277157 
L 400.370489 191.720533 
L 400.949226 191.16391 
L 401.527964 190.607286 
L 402.106701 190.050662 
L 402.685439 189.494039 
L 403.264176 188.937415 
L 403.842914 188.380791 
L 404.421651 187.824168 
L 405.000389 187.267544 
L 405.579126 186.71092 
L 406.157864 186.154296 
L 406.736601 185.597673 
L 407.315339 185.041049 
L 407.894076 184.484425 
L 408.472814 183.927802 
L 409.051551 183.371178 
L 409.630289 182.814554 
L 410.209026 182.257931 
L 410.787764 181.701307 
L 411.366501 181.144683 
L 411.945238 180.588059 
L 412.523976 180.031436 
L 413.102713 179.474812 
L 413.681451 178.918188 
L 414.260188 178.361565 
L 414.838926 177.804941 
L 415.417663 177.248317 
L 415.996401 176.691694 
L 416.575138 176.13507 
L 417.153876 175.578446 
L 417.732613 175.021823 
L 418.311351 174.465199 
L 418.890088 173.908575 
L 419.468826 173.351951 
L 420.047563 172.795328 
L 420.626301 172.238704 
L 421.205038 171.68208 
L 421.783776 171.125457 
L 422.362513 170.568833 
L 422.941251 170.012209 
L 423.519988 169.455586 
L 424.098726 168.898962 
L 424.677463 168.342338 
L 425.256201 167.785714 
L 425.834938 167.229091 
L 426.413676 166.672467 
L 426.992413 166.115843 
L 427.571151 165.55922 
L 428.149888 165.002596 
L 428.728626 164.445972 
L 429.307363 163.889349 
L 429.886101 163.332725 
L 430.464838 162.776101 
L 431.043576 162.219478 
L 431.622313 161.662854 
L 432.201051 161.10623 
L 432.779788 160.549606 
L 433.358526 159.992983 
L 433.937263 159.436359 
L 434.516001 158.879735 
L 435.094738 158.323112 
L 435.673476 157.766488 
L 436.252213 157.209864 
L 436.830951 156.653241 
L 437.409688 156.096617 
L 437.988425 155.539993 
L 438.567163 154.983369 
L 439.1459 154.426746 
L 439.724638 153.870122 
L 440.303375 153.313498 
L 440.882113 152.756875 
L 441.46085 152.200251 
L 442.039588 151.643627 
L 442.618325 151.087004 
" clip-path="url(#p1d02e623c6)" style="fill: none; stroke-dasharray: 3.7,1.6; stroke-dashoffset: 0; stroke: #808080; stroke-opacity: 0.5"/>
   </g>
   <g id="patch_3">
    <path d="M 45.103984 348.956875 
L 45.103984 33.802148 
" style="fill: none; stroke: #000000; stroke-width: 0.8; stroke-linejoin: miter; stroke-linecap: square"/>
   </g>
   <g id="patch_4">
    <path d="M 477.180004 348.956875 
L 477.180004 33.802148 
" style="fill: none; stroke: #000000; stroke-width: 0.8; stroke-linejoin: miter; stroke-linecap: square"/>
   </g>
   <g id="patch_5">
    <path d="M 45.103984 348.956875 
L 477.180004 348.956875 
" style="fill: none; stroke: #000000; stroke-width: 0.8; stroke-linejoin: miter; stroke-linecap: square"/>
   </g>
   <g id="patch_6">
    <path d="M 45.103984 33.802148 
L 477.180004 33.802148 
" style="fill: none; stroke: #000000; stroke-width: 0.8; stroke-linejoin: miter; stroke-linecap: square"/>
   </g>
   <g id="text_15">
    <!-- Vemurafenib -->
    <g style="opacity: 0.85" transform="translate(439.976805 159.685187) scale(0.07 -0.07)">
     <defs>
      <path id="DejaVuSans-39" d="M 1831 0 
L 50 4666 
L 709 4666 
L 2188 738 
L 3669 4666 
L 4325 4666 
L 2547 0 
L 1831 0 
z
" transform="scale(0.015625)"/>
      <path id="DejaVuSans-50" d="M 3328 2828 
Q 3544 3216 3844 3400 
Q 4144 3584 4550 3584 
Q 5097 3584 5394 3201 
Q 5691 2819 5691 2113 
L 5691 0 
L 5113 0 
L 5113 2094 
Q 5113 2597 4934 2840 
Q 4756 3084 4391 3084 
Q 3944 3084 3684 2787 
Q 3425 2491 3425 1978 
L 3425 0 
L 2847 0 
L 2847 2094 
Q 2847 2600 2669 2842 
Q 2491 3084 2119 3084 
Q 1678 3084 1418 2786 
Q 1159 2488 1159 1978 
L 1159 0 
L 581 0 
L 581 3500 
L 1159 3500 
L 1159 2956 
Q 1356 3278 1631 3431 
Q 1906 3584 2284 3584 
Q 2666 3584 2933 3390 
Q 3200 3197 3328 2828 
z
" transform="scale(0.015625)"/>
      <path id="DejaVuSans-58" d="M 544 1381 
L 544 3500 
L 1119 3500 
L 1119 1403 
Q 1119 906 1312 657 
Q 1506 409 1894 409 
Q 2359 409 2629 706 
Q 2900 1003 2900 1516 
L 2900 3500 
L 3475 3500 
L 3475 0 
L 2900 0 
L 2900 538 
Q 2691 219 2414 64 
Q 2138 -91 1772 -91 
Q 1169 -91 856 284 
Q 544 659 544 1381 
z
M 1991 3584 
L 1991 3584 
z
" transform="scale(0.015625)"/>
      <path id="DejaVuSans-49" d="M 2375 4863 
L 2375 4384 
L 1825 4384 
Q 1516 4384 1395 4259 
Q 1275 4134 1275 3809 
L 1275 3500 
L 2222 3500 
L 2222 3053 
L 1275 3053 
L 1275 0 
L 697 0 
L 697 3053 
L 147 3053 
L 147 3500 
L 697 3500 
L 697 3744 
Q 697 4328 969 4595 
Q 1241 4863 1831 4863 
L 2375 4863 
z
" transform="scale(0.015625)"/>
      <path id="DejaVuSans-45" d="M 3116 1747 
Q 3116 2381 2855 2742 
Q 2594 3103 2138 3103 
Q 1681 3103 1420 2742 
Q 1159 2381 1159 1747 
Q 1159 1113 1420 752 
Q 1681 391 2138 391 
Q 2594 391 2855 752 
Q 3116 1113 3116 1747 
z
M 1159 2969 
Q 1341 3281 1617 3432 
Q 1894 3584 2278 3584 
Q 2916 3584 3314 3078 
Q 3713 2572 3713 1747 
Q 3713 922 3314 415 
Q 2916 -91 2278 -91 
Q 1894 -91 1617 61 
Q 1341 213 1159 525 
L 1159 0 
L 581 0 
L 581 4863 
L 1159 4863 
L 1159 2969 
z
" transform="scale(0.015625)"/>
     </defs>
     <use xlink:href="#DejaVuSans-39"/>
     <use xlink:href="#DejaVuSans-48" transform="translate(60.640625 0)"/>
     <use xlink:href="#DejaVuSans-50" transform="translate(122.171875 0)"/>
     <use xlink:href="#DejaVuSans-58" transform="translate(219.578125 0)"/>
     <use xlink:href="#DejaVuSans-55" transform="translate(282.953125 0)"/>
     <use xlink:href="#DejaVuSans-44" transform="translate(324.0625 0)"/>
     <use xlink:href="#DejaVuSans-49" transform="translate(385.34375 0)"/>
     <use xlink:href="#DejaVuSans-48" transform="translate(420.546875 0)"/>
     <use xlink:href="#DejaVuSans-51" transform="translate(482.078125 0)"/>
     <use xlink:href="#DejaVuSans-4c" transform="translate(545.453125 0)"/>
     <use xlink:href="#DejaVuSans-45" transform="translate(573.234375 0)"/>
    </g>
   </g>
   <g id="text_16">
    <!-- Cisplatin -->
    <g style="opacity: 0.85" transform="translate(407.710991 163.294925) scale(0.07 -0.07)">
     <use xlink:href="#DejaVuSans-26"/>
     <use xlink:href="#DejaVuSans-4c" transform="translate(69.828125 0)"/>
     <use xlink:href="#DejaVuSans-56" transform="translate(97.609375 0)"/>
     <use xlink:href="#DejaVuSans-53" transform="translate(149.703125 0)"/>
     <use xlink:href="#DejaVuSans-4f" transform="translate(213.1875 0)"/>
     <use xlink:href="#DejaVuSans-44" transform="translate(240.96875 0)"/>
     <use xlink:href="#DejaVuSans-57" transform="translate(302.25 0)"/>
     <use xlink:href="#DejaVuSans-4c" transform="translate(341.453125 0)"/>
     <use xlink:href="#DejaVuSans-51" transform="translate(369.234375 0)"/>
    </g>
   </g>
   <g id="text_17">
    <!-- Paclitaxel -->
    <g style="opacity: 0.85" transform="translate(401.560644 197.166681) scale(0.07 -0.07)">
     <defs>
      <path id="DejaVuSans-33" d="M 1259 4147 
L 1259 2394 
L 2053 2394 
Q 2494 2394 2734 2622 
Q 2975 2850 2975 3272 
Q 2975 3691 2734 3919 
Q 2494 4147 2053 4147 
L 1259 4147 
z
M 628 4666 
L 2053 4666 
Q 2838 4666 3239 4311 
Q 3641 3956 3641 3272 
Q 3641 2581 3239 2228 
Q 2838 1875 2053 1875 
L 1259 1875 
L 1259 0 
L 628 0 
L 628 4666 
z
" transform="scale(0.015625)"/>
      <path id="DejaVuSans-5b" d="M 3513 3500 
L 2247 1797 
L 3578 0 
L 2900 0 
L 1881 1375 
L 863 0 
L 184 0 
L 1544 1831 
L 300 3500 
L 978 3500 
L 1906 2253 
L 2834 3500 
L 3513 3500 
z
" transform="scale(0.015625)"/>
     </defs>
     <use xlink:href="#DejaVuSans-33"/>
     <use xlink:href="#DejaVuSans-44" transform="translate(55.8125 0)"/>
     <use xlink:href="#DejaVuSans-46" transform="translate(117.09375 0)"/>
     <use xlink:href="#DejaVuSans-4f" transform="translate(172.078125 0)"/>
     <use xlink:href="#DejaVuSans-4c" transform="translate(199.859375 0)"/>
     <use xlink:href="#DejaVuSans-57" transform="translate(227.640625 0)"/>
     <use xlink:href="#DejaVuSans-44" transform="translate(266.84375 0)"/>
     <use xlink:href="#DejaVuSans-5b" transform="translate(328.125 0)"/>
     <use xlink:href="#DejaVuSans-48" transform="translate(384.234375 0)"/>
     <use xlink:href="#DejaVuSans-4f" transform="translate(445.765625 0)"/>
    </g>
   </g>
   <g id="text_18">
    <!-- Temsirolimus -->
    <g style="opacity: 0.85" transform="translate(399.964834 207.910805) scale(0.07 -0.07)">
     <defs>
      <path id="DejaVuSans-37" d="M -19 4666 
L 3928 4666 
L 3928 4134 
L 2272 4134 
L 2272 0 
L 1638 0 
L 1638 4134 
L -19 4134 
L -19 4666 
z
" transform="scale(0.015625)"/>
     </defs>
     <use xlink:href="#DejaVuSans-37"/>
     <use xlink:href="#DejaVuSans-48" transform="translate(44.09375 0)"/>
     <use xlink:href="#DejaVuSans-50" transform="translate(105.625 0)"/>
     <use xlink:href="#DejaVuSans-56" transform="translate(203.03125 0)"/>
     <use xlink:href="#DejaVuSans-4c" transform="translate(255.125 0)"/>
     <use xlink:href="#DejaVuSans-55" transform="translate(282.90625 0)"/>
     <use xlink:href="#DejaVuSans-52" transform="translate(321.8125 0)"/>
     <use xlink:href="#DejaVuSans-4f" transform="translate(383 0)"/>
     <use xlink:href="#DejaVuSans-4c" transform="translate(410.78125 0)"/>
     <use xlink:href="#DejaVuSans-50" transform="translate(438.5625 0)"/>
     <use xlink:href="#DejaVuSans-58" transform="translate(535.96875 0)"/>
     <use xlink:href="#DejaVuSans-56" transform="translate(599.34375 0)"/>
    </g>
   </g>
   <g id="text_19">
    <!-- KG vs omics evidence: breast CREEDS-matched -->
    <g transform="translate(141.451369 15.799414) scale(0.1 -0.1)">
     <defs>
      <path id="DejaVuSans-1d" d="M 750 794 
L 1409 794 
L 1409 0 
L 750 0 
L 750 794 
z
M 750 3309 
L 1409 3309 
L 1409 2516 
L 750 2516 
L 750 3309 
z
" transform="scale(0.015625)"/>
      <path id="DejaVuSans-10" d="M 313 2009 
L 1997 2009 
L 1997 1497 
L 313 1497 
L 313 2009 
z
" transform="scale(0.015625)"/>
      <path id="DejaVuSans-4b" d="M 3513 2113 
L 3513 0 
L 2938 0 
L 2938 2094 
Q 2938 2591 2744 2837 
Q 2550 3084 2163 3084 
Q 1697 3084 1428 2787 
Q 1159 2491 1159 1978 
L 1159 0 
L 581 0 
L 581 4863 
L 1159 4863 
L 1159 2956 
Q 1366 3272 1645 3428 
Q 1925 3584 2291 3584 
Q 2894 3584 3203 3211 
Q 3513 2838 3513 2113 
z
" transform="scale(0.015625)"/>
     </defs>
     <use xlink:href="#DejaVuSans-2e"/>
     <use xlink:href="#DejaVuSans-2a" transform="translate(65.578125 0)"/>
     <use xlink:href="#DejaVuSans-3" transform="translate(143.0625 0)"/>
     <use xlink:href="#DejaVuSans-59" transform="translate(174.84375 0)"/>
     <use xlink:href="#DejaVuSans-56" transform="translate(234.03125 0)"/>
     <use xlink:href="#DejaVuSans-3" transform="translate(286.125 0)"/>
     <use xlink:href="#DejaVuSans-52" transform="translate(317.90625 0)"/>
     <use xlink:href="#DejaVuSans-50" transform="translate(379.09375 0)"/>
     <use xlink:href="#DejaVuSans-4c" transform="translate(476.5 0)"/>
     <use xlink:href="#DejaVuSans-46" transform="translate(504.28125 0)"/>
     <use xlink:href="#DejaVuSans-56" transform="translate(559.265625 0)"/>
     <use xlink:href="#DejaVuSans-3" transform="translate(611.359375 0)"/>
     <use xlink:href="#DejaVuSans-48" transform="translate(643.140625 0)"/>
     <use xlink:href="#DejaVuSans-59" transform="translate(704.671875 0)"/>
     <use xlink:href="#DejaVuSans-4c" transform="translate(763.859375 0)"/>
     <use xlink:href="#DejaVuSans-47" transform="translate(791.640625 0)"/>
     <use xlink:href="#DejaVuSans-48" transform="translate(855.125 0)"/>
     <use xlink:href="#DejaVuSans-51" transform="translate(916.65625 0)"/>
     <use xlink:href="#DejaVuSans-46" transform="translate(980.03125 0)"/>
     <use xlink:href="#DejaVuSans-48" transform="translate(1035.015625 0)"/>
     <use xlink:href="#DejaVuSans-1d" transform="translate(1096.546875 0)"/>
     <use xlink:href="#DejaVuSans-3" transform="translate(1130.234375 0)"/>
     <use xlink:href="#DejaVuSans-45" transform="translate(1162.015625 0)"/>
     <use xlink:href="#DejaVuSans-55" transform="translate(1225.5 0)"/>
     <use xlink:href="#DejaVuSans-48" transform="translate(1264.40625 0)"/>
     <use xlink:href="#DejaVuSans-44" transform="translate(1325.9375 0)"/>
     <use xlink:href="#DejaVuSans-56" transform="translate(1387.21875 0)"/>
     <use xlink:href="#DejaVuSans-57" transform="translate(1439.3125 0)"/>
     <use xlink:href="#DejaVuSans-3" transform="translate(1478.515625 0)"/>
     <use xlink:href="#DejaVuSans-26" transform="translate(1510.296875 0)"/>
     <use xlink:href="#DejaVuSans-35" transform="translate(1580.125 0)"/>
     <use xlink:href="#DejaVuSans-28" transform="translate(1649.609375 0)"/>
     <use xlink:href="#DejaVuSans-28" transform="translate(1712.796875 0)"/>
     <use xlink:href="#DejaVuSans-27" transform="translate(1775.984375 0)"/>
     <use xlink:href="#DejaVuSans-36" transform="translate(1852.984375 0)"/>
     <use xlink:href="#DejaVuSans-10" transform="translate(1916.46875 0)"/>
     <use xlink:href="#DejaVuSans-50" transform="translate(1952.546875 0)"/>
     <use xlink:href="#DejaVuSans-44" transform="translate(2049.953125 0)"/>
     <use xlink:href="#DejaVuSans-57" transform="translate(2111.234375 0)"/>
     <use xlink:href="#DejaVuSans-46" transform="translate(2150.4375 0)"/>
     <use xlink:href="#DejaVuSans-4b" transform="translate(2205.421875 0)"/>
     <use xlink:href="#DejaVuSans-48" transform="translate(2268.796875 0)"/>
     <use xlink:href="#DejaVuSans-47" transform="translate(2330.328125 0)"/>
    </g>
    <!-- Spearman rho = 1.000 (p = 0.0000, n = 4) -->
    <g transform="translate(153.690432 27.802148) scale(0.1 -0.1)">
     <defs>
      <path id="DejaVuSans-20" d="M 678 2906 
L 4684 2906 
L 4684 2381 
L 678 2381 
L 678 2906 
z
M 678 1631 
L 4684 1631 
L 4684 1100 
L 678 1100 
L 678 1631 
z
" transform="scale(0.015625)"/>
      <path id="DejaVuSans-f" d="M 750 794 
L 1409 794 
L 1409 256 
L 897 -744 
L 494 -744 
L 750 256 
L 750 794 
z
" transform="scale(0.015625)"/>
     </defs>
     <use xlink:href="#DejaVuSans-36"/>
     <use xlink:href="#DejaVuSans-53" transform="translate(63.484375 0)"/>
     <use xlink:href="#DejaVuSans-48" transform="translate(126.96875 0)"/>
     <use xlink:href="#DejaVuSans-44" transform="translate(188.5 0)"/>
     <use xlink:href="#DejaVuSans-55" transform="translate(249.78125 0)"/>
     <use xlink:href="#DejaVuSans-50" transform="translate(289.140625 0)"/>
     <use xlink:href="#DejaVuSans-44" transform="translate(386.546875 0)"/>
     <use xlink:href="#DejaVuSans-51" transform="translate(447.828125 0)"/>
     <use xlink:href="#DejaVuSans-3" transform="translate(511.203125 0)"/>
     <use xlink:href="#DejaVuSans-55" transform="translate(542.984375 0)"/>
     <use xlink:href="#DejaVuSans-4b" transform="translate(582.34375 0)"/>
     <use xlink:href="#DejaVuSans-52" transform="translate(645.71875 0)"/>
     <use xlink:href="#DejaVuSans-3" transform="translate(706.90625 0)"/>
     <use xlink:href="#DejaVuSans-20" transform="translate(738.6875 0)"/>
     <use xlink:href="#DejaVuSans-3" transform="translate(822.484375 0)"/>
     <use xlink:href="#DejaVuSans-14" transform="translate(854.265625 0)"/>
     <use xlink:href="#DejaVuSans-11" transform="translate(917.890625 0)"/>
     <use xlink:href="#DejaVuSans-13" transform="translate(949.671875 0)"/>
     <use xlink:href="#DejaVuSans-13" transform="translate(1013.296875 0)"/>
     <use xlink:href="#DejaVuSans-13" transform="translate(1076.921875 0)"/>
     <use xlink:href="#DejaVuSans-3" transform="translate(1140.546875 0)"/>
     <use xlink:href="#DejaVuSans-b" transform="translate(1172.328125 0)"/>
     <use xlink:href="#DejaVuSans-53" transform="translate(1211.34375 0)"/>
     <use xlink:href="#DejaVuSans-3" transform="translate(1274.828125 0)"/>
     <use xlink:href="#DejaVuSans-20" transform="translate(1306.609375 0)"/>
     <use xlink:href="#DejaVuSans-3" transform="translate(1390.40625 0)"/>
     <use xlink:href="#DejaVuSans-13" transform="translate(1422.1875 0)"/>
     <use xlink:href="#DejaVuSans-11" transform="translate(1485.8125 0)"/>
     <use xlink:href="#DejaVuSans-13" transform="translate(1517.59375 0)"/>
     <use xlink:href="#DejaVuSans-13" transform="translate(1581.21875 0)"/>
     <use xlink:href="#DejaVuSans-13" transform="translate(1644.84375 0)"/>
     <use xlink:href="#DejaVuSans-13" transform="translate(1708.46875 0)"/>
     <use xlink:href="#DejaVuSans-f" transform="translate(1772.09375 0)"/>
     <use xlink:href="#DejaVuSans-3" transform="translate(1803.875 0)"/>
     <use xlink:href="#DejaVuSans-51" transform="translate(1835.65625 0)"/>
     <use xlink:href="#DejaVuSans-3" transform="translate(1899.03125 0)"/>
     <use xlink:href="#DejaVuSans-20" transform="translate(1930.8125 0)"/>
     <use xlink:href="#DejaVuSans-3" transform="translate(2014.609375 0)"/>
     <use xlink:href="#DejaVuSans-17" transform="translate(2046.390625 0)"/>
     <use xlink:href="#DejaVuSans-c" transform="translate(2110.015625 0)"/>
    </g>
   </g>
  </g>
 </g>
 <defs>
  <clipPath id="p1d02e623c6">
   <rect x="45.103984" y="33.802148" width="432.07602" height="315.154727"/>
  </clipPath>
 </defs>
</svg>
